<svg version="1.1" id="OBJECTS" xmlns="http://www.w3.org/2000/svg" x="0" y="0" viewBox="0 0 167.6 103" xml:space="preserve"><style>.st0{fill:#2ea9ae}.st1{fill:#187e8a}.st3{fill:#e06150}.st4{fill:#bf423c}.st5{fill:#f2eed1}.st6{fill:#d89346}.st7{fill:#f4c166}.st8{fill:#dddab1}.st13,.st9{fill:none;stroke:#e68173;stroke-width:3;stroke-linecap:round;stroke-linejoin:round;stroke-miterlimit:10}.st13{stroke:#5b4659}</style><path class="st0" d="M39.8 31L20.2 10.1c-1.8-2-.4-5.2 2.3-5.2h5.6c3 0 5.9.4 8.8 1.1l59.7 15.2L39.8 31z"/><path class="st1" d="M39.8 31l56.8-9.7c-27.3 0-58.5 1.5-74.1-16.3-2.7 0-4.1 3.2-2.3 5.2"/><path fill="none" stroke="#6fc4c7" stroke-width="3" stroke-linecap="round" stroke-linejoin="round" stroke-miterlimit="10" d="M59.1 15.9L35.8 9.8"/><path class="st0" d="M39.8 72L20.2 92.8c-1.8 2-.4 5.2 2.3 5.2h5.6c3 0 5.9-.4 8.8-1.1l59.7-15.2L39.8 72z"/><path class="st1" d="M39.8 72l56.8 9.7c-27.3 0-58.5-1.5-74.1 16.3-2.7 0-4.1-3.2-2.3-5.2"/><path class="st3" d="M108.3 82.5c10.3.7 20.6-1.4 29.8-6.1 5.9-3 12.5-6.7 18-10.6V37.2c-5.5-3.9-12.1-7.6-18-10.6-9.2-4.7-19.5-6.8-29.8-6.1L52 24.2v54.6l56.3 3.7z"/><path class="st4" d="M148.6 47.5v-.2c0-.1 0-.1.1-.2 0-.1.1-.1.1-.2s.1-.1.1-.2c.2-.2.5-.3.8-.3.3 0 .6.1.8.3.1.1.1.1.1.2s.1.1.1.2 0 .1.1.2c.1.4 0 .7-.3 1-.1.1-.1.1-.2.1s-.1.1-.2.1-.1.1-.2.1h-.4c-.1 0-.1 0-.2-.1-.1 0-.1-.1-.2-.1s-.1-.1-.2-.1c-.2-.2-.3-.5-.3-.8zM65.9 46.4c.6 0 1.1.5 1.1 1.1 0 .6-.5 1.1-1.1 1.1-.6 0-1.1-.5-1.1-1.1 0-.6.5-1.1 1.1-1.1zm6 0c.6 0 1.1.5 1.1 1.1 0 .6-.5 1.1-1.1 1.1-.6 0-1.1-.5-1.1-1.1 0-.6.5-1.1 1.1-1.1zm6 0c.6 0 1.1.5 1.1 1.1 0 .6-.5 1.1-1.1 1.1-.6 0-1.1-.5-1.1-1.1 0-.6.5-1.1 1.1-1.1zm6 0c.6 0 1.1.5 1.1 1.1 0 .6-.5 1.1-1.1 1.1-.6 0-1.1-.5-1.1-1.1 0-.6.5-1.1 1.1-1.1zm6 0c.6 0 1.1.5 1.1 1.1 0 .6-.5 1.1-1.1 1.1-.6 0-1.1-.5-1.1-1.1 0-.6.5-1.1 1.1-1.1zm5.9 0c.6 0 1.1.5 1.1 1.1 0 .6-.5 1.1-1.1 1.1-.6 0-1.1-.5-1.1-1.1 0-.6.5-1.1 1.1-1.1zm6 0c.6 0 1.1.5 1.1 1.1 0 .6-.5 1.1-1.1 1.1-.6 0-1.1-.5-1.1-1.1 0-.6.5-1.1 1.1-1.1zm6 0c.6 0 1.1.5 1.1 1.1 0 .6-.5 1.1-1.1 1.1-.6 0-1.1-.5-1.1-1.1 0-.6.5-1.1 1.1-1.1zm6 0c.6 0 1.1.5 1.1 1.1 0 .6-.5 1.1-1.1 1.1-.6 0-1.1-.5-1.1-1.1 0-.6.5-1.1 1.1-1.1zm6 0c.6 0 1.1.5 1.1 1.1 0 .6-.5 1.1-1.1 1.1-.6 0-1.1-.5-1.1-1.1 0-.6.5-1.1 1.1-1.1zm5.9 0c.6 0 1.1.5 1.1 1.1 0 .6-.5 1.1-1.1 1.1-.6 0-1.1-.5-1.1-1.1.1-.6.5-1.1 1.1-1.1zm6 0c.6 0 1.1.5 1.1 1.1 0 .6-.5 1.1-1.1 1.1-.6 0-1.1-.5-1.1-1.1 0-.6.5-1.1 1.1-1.1zm6 0c.6 0 1.1.5 1.1 1.1 0 .6-.5 1.1-1.1 1.1-.6 0-1.1-.5-1.1-1.1 0-.6.5-1.1 1.1-1.1zm6 0c.6 0 1.1.5 1.1 1.1 0 .6-.5 1.1-1.1 1.1-.6 0-1.1-.5-1.1-1.1 0-.6.5-1.1 1.1-1.1zM58.9 47.5v-.2c0-.1 0-.1.1-.2v-.2c0-.1.1-.1.1-.2.2-.2.5-.3.8-.3.3 0 .6.1.8.3.1.1.1.1.1.2s.1.1.1.2 0 .1.1.2c.1.4 0 .7-.3 1-.1.1-.1.1-.2.1s-.1.1-.2.1-.1.1-.2.1h-.4c-.1 0-.1 0-.2-.1-.1 0-.1-.1-.2-.1s-.1-.1-.2-.1c-.1-.2-.2-.5-.2-.8zM148.6 55.5v.2c0 .1 0 .1.1.2 0 .1.1.1.1.2s.1.1.1.2c.2.2.5.3.8.3.3 0 .6-.1.8-.3.1-.1.1-.1.1-.2s.1-.1.1-.2 0-.1.1-.2c.1-.4 0-.7-.3-1-.1-.1-.1-.1-.2-.1s-.1-.1-.2-.1-.1-.1-.2-.1h-.4c-.1 0-.1 0-.2.1-.1 0-.1.1-.2.1s-.1.1-.2.1c-.2.2-.3.5-.3.8zM64.8 55.5c0-.6.5-1.1 1.1-1.1.6 0 1.1.5 1.1 1.1 0 .6-.5 1.1-1.1 1.1s-1.1-.5-1.1-1.1zm6 0c0-.6.5-1.1 1.1-1.1.6 0 1.1.5 1.1 1.1 0 .6-.5 1.1-1.1 1.1-.6-.1-1.1-.5-1.1-1.1zm6 0c0-.6.5-1.1 1.1-1.1.6 0 1.1.5 1.1 1.1 0 .6-.5 1.1-1.1 1.1-.6-.1-1.1-.5-1.1-1.1zm6 0c0-.6.5-1.1 1.1-1.1.6 0 1.1.5 1.1 1.1 0 .6-.5 1.1-1.1 1.1-.6-.1-1.1-.5-1.1-1.1zm6 0c0-.6.5-1.1 1.1-1.1.6 0 1.1.5 1.1 1.1 0 .6-.5 1.1-1.1 1.1s-1.1-.5-1.1-1.1zm5.9 0c0-.6.5-1.1 1.1-1.1.6 0 1.1.5 1.1 1.1 0 .6-.5 1.1-1.1 1.1-.6-.1-1.1-.5-1.1-1.1zm6 0c0-.6.5-1.1 1.1-1.1.6 0 1.1.5 1.1 1.1 0 .6-.5 1.1-1.1 1.1-.6-.1-1.1-.5-1.1-1.1zm6 0c0-.6.5-1.1 1.1-1.1.6 0 1.1.5 1.1 1.1 0 .6-.5 1.1-1.1 1.1-.6-.1-1.1-.5-1.1-1.1zm6 0c0-.6.5-1.1 1.1-1.1.6 0 1.1.5 1.1 1.1 0 .6-.5 1.1-1.1 1.1-.6-.1-1.1-.5-1.1-1.1zm6 0c0-.6.5-1.1 1.1-1.1.6 0 1.1.5 1.1 1.1 0 .6-.5 1.1-1.1 1.1-.6-.1-1.1-.5-1.1-1.1zm6 0c0-.6.5-1.1 1.1-1.1.6 0 1.1.5 1.1 1.1 0 .6-.5 1.1-1.1 1.1-.7-.1-1.1-.5-1.1-1.1zm5.9 0c0-.6.5-1.1 1.1-1.1.6 0 1.1.5 1.1 1.1 0 .6-.5 1.1-1.1 1.1-.6-.1-1.1-.5-1.1-1.1zm6 0c0-.6.5-1.1 1.1-1.1.6 0 1.1.5 1.1 1.1 0 .6-.5 1.1-1.1 1.1-.6-.1-1.1-.5-1.1-1.1zm6 0c0-.6.5-1.1 1.1-1.1.6 0 1.1.5 1.1 1.1 0 .6-.5 1.1-1.1 1.1s-1.1-.5-1.1-1.1zM58.9 55.5v.2c0 .1 0 .1.1.2 0 .1.1.1.1.2s.1.1.1.2c.2.2.5.3.8.3.3 0 .6-.1.8-.3.1-.1.1-.1.1-.2s.1-.1.1-.2 0-.1.1-.2c.1-.4 0-.7-.3-1-.1-.1-.1-.1-.2-.1s-.1-.1-.2-.1-.1-.1-.2-.1h-.4c-.1 0-.1 0-.2.1-.1 0-.1.1-.2.1s-.1.1-.2.1c-.2.2-.3.5-.3.8z"/><path class="st5" d="M167.6 51.5c0-4.5-4.9-9.6-11.5-14.3v28.6c6.6-4.7 11.5-9.8 11.5-14.3z"/><path class="st1" d="M52 24.2l-12.2.8c-4.1.3-7.3 3.7-7.3 7.8v37.5c0 4.1 3.2 7.5 7.3 7.8l12.2.7V24.2z"/><path class="st0" d="M41.1 78.1V24.9l5.9-.4v54z"/><g><path class="st5" d="M27.1 42.6v-9.8c0-2.2 2-3.8 4.1-3.4l8.6 1.6v13.4L31.1 46c-2.1.4-4-1.2-4-3.4z"/><path class="st6" d="M27.1 41.7S16.6 58.2 0 37.7c16.6-20.5 27.1-4 27.1-4v8z"/><path class="st7" d="M27.1 40.5s-7.2 11.3-18.5-2.7c11.3-14 18.5-2.7 18.5-2.7v5.4z"/><path class="st8" d="M39.8 31s-7.2 2.3-7.2 6.7 7.2 6.7 7.2 6.7V31z"/><path class="st1" d="M39.8 31s9.9-.2 9.9 6.7-9.9 6.7-9.9 6.7V31z"/><path class="st8" d="M39.8 31s7.2-.2 7.2 6.7-7.2 6.7-7.2 6.7V31z"/></g><g><path class="st5" d="M27.1 60.4v9.8c0 2.2 2 3.8 4.1 3.4l8.6-1.6V58.6L31.1 57c-2.1-.4-4 1.2-4 3.4z"/><path class="st6" d="M27.1 61.3S16.6 44.8 0 65.3c16.6 20.5 27.1 4 27.1 4v-8z"/><path class="st7" d="M27.1 62.5s-7.2-11.3-18.5 2.7c11.3 14 18.5 2.7 18.5 2.7v-5.4z"/><path class="st8" d="M39.8 72s-7.2-2.3-7.2-6.7 7.2-6.7 7.2-6.7V72z"/><path class="st1" d="M39.8 72s9.9.2 9.9-6.7-9.9-6.7-9.9-6.7V72z"/><path class="st8" d="M39.8 72s7.2.2 7.2-6.7-7.2-6.7-7.2-6.7V72z"/></g><g><path class="st9" d="M148.6 37.5c.9.6 1.7 1.1 2.5 1.6M140.4 32.8c2.1 1.1 3.3 1.8 5.1 2.9"/></g><linearGradient id="SVGID_1_" gradientUnits="userSpaceOnUse" x1="498.177" y1="-215.394" x2="498.177" y2="-79.081" gradientTransform="rotate(90 187.055 -236.36)"><stop offset="0" stop-color="#5b4659" stop-opacity=".2"/><stop offset="1" stop-color="#5b4659"/></linearGradient><path d="M36.8 96.9l59.7-15.2 11.8.8c10.3.7 20.6-1.4 29.8-6.1 5.9-3 12.5-6.7 18-10.6 6.6-4.7 11.5-9.7 11.5-14.3H32.5v5.7l-1.4-.2c-2.1-.4-4.1 1.2-4.1 3.4v9.8c0 2.2 2 3.8 4.1 3.4l2-.4c.5 1.3 1.4 2.4 2.5 3.2l-2.3 2.5-13 13.9c-.6.6-.8 1.4-.8 2.1 0 .4.1.9.3 1.3.1.3.3.5.4.7.5.7 1.4 1.1 2.4 1.1h5.6c2.8 0 5.8-.3 8.6-1.1z" opacity=".2" fill="url(#SVGID_1_)"/><g><path fill="none" stroke="#bf423c" stroke-miterlimit="10" d="M156.2 51.5H52"/><path class="st3" d="M120.5 71.9c-11.2 0-20.4-9.1-20.4-20.4s9.1-20.4 20.4-20.4 20.4 9.1 20.4 20.4-9.1 20.4-20.4 20.4z"/><path class="st4" d="M120.5 31.6c11 0 19.9 8.9 19.9 19.9 0 11-8.9 19.9-19.9 19.9s-19.9-8.9-19.9-19.9c0-11 8.9-19.9 19.9-19.9m0-1c-11.5 0-20.9 9.4-20.9 20.9s9.4 20.9 20.9 20.9 20.9-9.4 20.9-20.9-9.3-20.9-20.9-20.9z"/><path class="st5" d="M120.5 69.2c-9.7 0-17.7-7.9-17.7-17.7 0-9.7 7.9-17.7 17.7-17.7 9.7 0 17.7 7.9 17.7 17.7 0 9.7-7.9 17.7-17.7 17.7z"/><path class="st8" d="M120.5 34.8c9.2 0 16.7 7.5 16.7 16.7s-7.5 16.7-16.7 16.7-16.7-7.5-16.7-16.7c.1-9.2 7.5-16.7 16.7-16.7m0-2c-10.3 0-18.7 8.4-18.7 18.7s8.4 18.7 18.7 18.7c10.3 0 18.7-8.4 18.7-18.7s-8.4-18.7-18.7-18.7z"/><g><path d="M120.5 64.3c-7.1 0-12.9-5.8-12.9-12.9 0-7.1 5.8-12.9 12.9-12.9s12.9 5.8 12.9 12.9c0 7.2-5.8 12.9-12.9 12.9z" fill="#3f2f3c"/><path class="st8" d="M120.5 39.1c6.8 0 12.4 5.5 12.4 12.4 0 6.8-5.5 12.4-12.4 12.4-6.8 0-12.4-5.5-12.4-12.4.1-6.8 5.6-12.4 12.4-12.4m0-1c-7.4 0-13.4 6-13.4 13.4s6 13.4 13.4 13.4 13.4-6 13.4-13.4-6-13.4-13.4-13.4z"/></g><g><path class="st13" d="M120.5 42.2c2.6 0 4.9 1 6.6 2.7M117.3 42.8c.2-.1.3-.1.5-.2M129.1 47.9c.5 1.1.7 2.3.7 3.6"/></g></g></svg>