<svg version="1.1" id="OBJECTS" xmlns="http://www.w3.org/2000/svg" x="0" y="0" viewBox="0 0 167.6 103" xml:space="preserve"><style>.st0{fill:#dddab1}.st1{fill:none;stroke:#f2eed1;stroke-width:3;stroke-linecap:round;stroke-linejoin:round;stroke-miterlimit:10}.st2{fill:#e06150}.st3{fill:#bf423c}.st6{fill:#187e8a}.st8{fill:none;stroke:#2ea9ae;stroke-width:3;stroke-linecap:round;stroke-linejoin:round;stroke-miterlimit:10}.st11{fill:#3f2f3c}.st12,.st13{fill:none;stroke:#5b4659;stroke-width:3;stroke-linecap:round;stroke-linejoin:round;stroke-miterlimit:10}.st13{stroke-width:2}</style><path class="st0" d="M55.1 20.4s9-10.9 4.6-15.9c-5.5-6.3-26.2-7.1-40.3 4.6-1.1.9-1.1 2.5.1 3.2 2.8 1.8 8 1.4 11.6 7.7 5.1 9.2 24 .4 24 .4z"/><path class="st1" d="M50.1 3.4c-3.3-.6-7.4-.6-11.6.1M56.8 6.4c-.7-.7-1.7-1.4-2.9-1.9"/><path class="st2" d="M29.9 41.3c-1.8 1-2.9 2.9-2.9 4.9v10.1c0 1.8.9 3.5 2.4 4.6 2.4 1.7 6 3.8 10.3 6V36.1c-3.8 2-7.2 3.8-9.8 5.2z"/><path class="st3" d="M39.8 36.1s-7.2 3.6-7.2 14.9 7.2 15.9 7.2 15.9V36.1z"/><path d="M27.1 55S16.6 71.5 0 51c16.6-20.5 27.1-4 27.1-4v8z" fill="#d89346"/><path d="M27.1 53.7S19.9 65 8.6 51c11.3-14 18.5-2.7 18.5-2.7v5.4z" fill="#f4c166"/><path class="st0" d="M55.1 82.6s9 10.9 4.6 15.9c-5.5 6.3-26.2 7.1-40.3-4.6-1.1-.9-1.1-2.5.1-3.2 2.8-1.8 8-1.4 11.6-7.7 5.1-9.2 24-.4 24-.4z"/><path class="st6" d="M62.3 89.6c64.3 3.7 105.3-27.4 105.3-38.1 0-10.7-41-41.8-105.3-38.1 3.9 6.9 9.7 20.2 9.7 38.1 0 17.9-5.8 31.2-9.7 38.1z"/><path class="st3" d="M72 51.5c0-17.9-5.8-31.2-9.7-38.1-10.6.6-21.8 2.2-33.6 4.9-1.4.3-2.1 1.9-1.5 3.2 2.2 4.2 12.5 13.7 12.5 30s-10.3 25.8-12.5 30c-.7 1.3.1 2.8 1.5 3.2 11.8 2.7 23 4.3 33.6 4.9 3.9-6.9 9.7-20.2 9.7-38.1z"/><linearGradient id="SVGID_1_" gradientUnits="userSpaceOnUse" x1="26.031" y1="-213.585" x2="26.031" y2="-75.244" gradientTransform="rotate(90 -50.252 .947)"><stop offset="0" stop-color="#5b4659" stop-opacity=".2"/><stop offset="1" stop-color="#5b4659"/></linearGradient><path d="M59.6 98.5c2.1-2.3 1.2-5.9-.2-9.1 1 .1 1.9.1 2.9.2 64.3 3.7 105.3-27.4 105.3-38.1H27.1v4.8c0 1.8.9 3.5 2.4 4.6 1.9 1.3 4.5 2.9 7.6 4.5-3.2 8.1-8.4 13.3-9.8 16.1-.7 1.3.1 2.8 1.5 3.2.3.1.7.1 1 .2-3.5 4.3-7.8 4.2-10.3 5.8-1.2.7-1.1 2.3-.1 3.2 14 11.6 34.7 10.8 40.2 4.6z" opacity=".2" fill="url(#SVGID_1_)"/><g><path class="st8" d="M151.7 40.2c1.8 1.3 3.3 2.5 4.6 3.7M138.6 32.4c3.5 1.7 6.6 3.4 9.2 5.1"/></g><g><path fill="none" stroke="#e06150" stroke-miterlimit="10" d="M67.7 51.5H37.1"/><path fill="none" stroke="#3f2f3c" stroke-miterlimit="10" d="M156.2 51.5H77.9"/><path class="st6" d="M120.5 71.9c-11.2 0-20.4-9.1-20.4-20.4s9.1-20.4 20.4-20.4 20.4 9.1 20.4 20.4-9.1 20.4-20.4 20.4z"/><path class="st11" d="M120.5 31.6c11 0 19.9 8.9 19.9 19.9 0 11-8.9 19.9-19.9 19.9s-19.9-8.9-19.9-19.9c0-11 8.9-19.9 19.9-19.9m0-1c-11.5 0-20.9 9.4-20.9 20.9 0 11.5 9.4 20.9 20.9 20.9s20.9-9.4 20.9-20.9c0-11.5-9.3-20.9-20.9-20.9z"/><path class="st2" d="M120.5 69.2c-9.7 0-17.7-7.9-17.7-17.7 0-9.7 7.9-17.7 17.7-17.7 9.7 0 17.7 7.9 17.7 17.7 0 9.7-7.9 17.7-17.7 17.7z"/><path class="st3" d="M120.5 34.8c9.2 0 16.7 7.5 16.7 16.7s-7.5 16.7-16.7 16.7-16.7-7.5-16.7-16.7c.1-9.2 7.5-16.7 16.7-16.7m0-2c-10.3 0-18.7 8.4-18.7 18.7 0 10.3 8.4 18.7 18.7 18.7 10.3 0 18.7-8.4 18.7-18.7 0-10.3-8.4-18.7-18.7-18.7z"/><g><path class="st11" d="M120.5 64.3c-7.1 0-12.9-5.8-12.9-12.9 0-7.1 5.8-12.9 12.9-12.9s12.9 5.8 12.9 12.9c0 7.2-5.8 12.9-12.9 12.9z"/><path class="st3" d="M120.5 39.1c6.8 0 12.4 5.5 12.4 12.4 0 6.8-5.5 12.4-12.4 12.4-6.8 0-12.4-5.5-12.4-12.4.1-6.8 5.6-12.4 12.4-12.4m0-1c-7.4 0-13.4 6-13.4 13.4s6 13.4 13.4 13.4 13.4-6 13.4-13.4-6-13.4-13.4-13.4z"/></g><g><path class="st12" d="M120.5 42.2c2.6 0 4.9 1 6.6 2.7M117.3 42.8c.2-.1.3-.1.5-.2M129.1 47.9c.5 1.1.7 2.3.7 3.6"/></g><g><path class="st6" d="M84.3 66.6c-8.4 0-15.1-6.8-15.1-15.1 0-8.4 6.8-15.1 15.1-15.1s15.1 6.8 15.1 15.1c.1 8.3-6.7 15.1-15.1 15.1z"/><path class="st11" d="M84.3 36.8c8.1 0 14.6 6.6 14.6 14.6 0 8.1-6.6 14.6-14.6 14.6s-14.6-6.6-14.6-14.6 6.5-14.6 14.6-14.6m0-1c-8.6 0-15.6 7-15.6 15.6S75.7 67 84.3 67s15.6-7 15.6-15.6c.1-8.5-7-15.6-15.6-15.6z"/><circle class="st2" cx="84.3" cy="51.5" r="12.8"/><path class="st3" d="M84.3 39.2c6.8 0 12.3 5.5 12.3 12.3 0 6.8-5.5 12.3-12.3 12.3S72 58.3 72 51.5c0-6.8 5.5-12.3 12.3-12.3m0-1c-7.3 0-13.3 6-13.3 13.3 0 7.3 6 13.3 13.3 13.3s13.3-6 13.3-13.3c0-7.3-6-13.3-13.3-13.3z"/><g><circle class="st11" cx="84.3" cy="51.5" r="9.6"/><path class="st3" d="M84.3 42.4c5 0 9.1 4.1 9.1 9.1s-4.1 9.1-9.1 9.1-9.1-4.1-9.1-9.1 4.1-9.1 9.1-9.1m0-1c-5.6 0-10.1 4.5-10.1 10.1s4.5 10.1 10.1 10.1 10.1-4.5 10.1-10.1-4.5-10.1-10.1-10.1z"/></g><g><path class="st13" d="M84.3 44.7c1.9 0 3.6.8 4.8 2M81.9 45.1c.1 0 .2-.1.3-.1M90.6 48.8c.3.8.5 1.7.5 2.7"/></g></g></g></svg>