<svg version="1.1" id="OBJECTS" xmlns="http://www.w3.org/2000/svg" x="0" y="0" viewBox="0 0 167.6 103" xml:space="preserve"><style>.st0{fill:#bf423c}.st1{fill:none;stroke:#e06150;stroke-width:3;stroke-linecap:round;stroke-linejoin:round;stroke-miterlimit:10}.st2{fill:#2ea9ae}.st3{fill:#187e8a}.st4{fill:#f2eed1}.st7{fill:#3f2f3c}.st8{fill:none;stroke:#5b4659;stroke-width:2;stroke-linecap:round;stroke-linejoin:round;stroke-miterlimit:10}.st9{fill:#d89346}</style><path class="st0" d="M69.2 25.5l-11.1-6.4C52 15.5 44.6 15 38 17.5l-16.4 6.4c-3.4 1.3-3.6 6.1-.3 7.6l17.2 8.1 30.7-14.1z"/><path class="st1" d="M52 20.5c-3.9-1.3-8.2-1.2-12.1.3l-7 2.7M59.6 24.4l-4.5-2.5"/><path class="st0" d="M69.2 77.5l-11.1 6.4C52 87.4 44.6 88 38 85.4L21.6 79c-3.4-1.3-3.6-6.1-.3-7.6l17.2-8.1 30.7 14.2z"/><path class="st2" d="M29.9 41.8c-1.8 1-2.9 2.9-2.9 4.9v10.1c0 1.8.9 3.5 2.4 4.6 2.4 1.7 6 3.8 10.3 6V36.6c-3.8 2-7.2 3.8-9.8 5.2z"/><path class="st3" d="M39.8 36.6s-7.2 3.6-7.2 14.9 7.2 15.9 7.2 15.9V36.6z"/><path class="st4" d="M144.7 29.6c-10.4-5.6-24.5-10-42.5-10-24.1 0-47.5 9.6-62.5 17v30.7c14.8 7.4 39.2 16.1 62.5 16.1 18 0 32.1-4.4 42.5-10V29.6z"/><g><path class="st0" d="M167.6 51.5c0-2.6-7.4-13.6-22.9-21.9v43.8c15.6-8.3 22.9-19.3 22.9-21.9z"/><path class="st1" d="M155.7 43.1c-2-2-3.4-3.1-6.2-4.8M161.2 48.8c-.6-.7-1.3-1.6-2.1-2.5"/></g><linearGradient id="SVGID_1_" gradientUnits="userSpaceOnUse" x1="284.961" y1="-215.389" x2="284.961" y2="-78.705" gradientTransform="rotate(90 83.199 -132.504)"><stop offset="0" stop-color="#5b4659" stop-opacity=".2"/><stop offset="1" stop-color="#5b4659"/></linearGradient><path d="M58.1 83.9l9.9-5.7c10.8 3.1 22.6 5.2 34.2 5.2 18 0 32.1-4.4 42.5-10 15.6-8.3 22.9-19.3 22.9-21.9H27.1v5.3c0 1.8.9 3.5 2.4 4.6 1.5 1.1 3.5 2.3 5.8 3.6l-13.8 6.5c-3.3 1.6-3.1 6.3.3 7.6L38 85.4c6.6 2.6 14 2 20.1-1.5z" opacity=".2" fill="url(#SVGID_1_)"/><g><path fill="none" stroke="#3f2f3c" stroke-miterlimit="10" d="M144.7 51.5H39.8"/><path class="st4" d="M84.3 66.6c-8.4 0-15.1-6.8-15.1-15.1 0-8.4 6.8-15.1 15.1-15.1s15.1 6.8 15.1 15.1c.1 8.3-6.7 15.1-15.1 15.1z"/><path class="st7" d="M84.3 36.8c8.1 0 14.6 6.6 14.6 14.6 0 8.1-6.6 14.6-14.6 14.6s-14.6-6.6-14.6-14.6 6.5-14.6 14.6-14.6m0-1c-8.6 0-15.6 7-15.6 15.6S75.7 67 84.3 67s15.6-7 15.6-15.6-7-15.6-15.6-15.6z"/><path class="st2" d="M84.3 64.8c-7.3 0-13.3-6-13.3-13.3 0-7.3 6-13.3 13.3-13.3s13.3 6 13.3 13.3c0 7.3-6 13.3-13.3 13.3z"/><path class="st3" d="M84.3 39.2c6.8 0 12.3 5.5 12.3 12.3 0 6.8-5.5 12.3-12.3 12.3S72 58.3 72 51.5c0-6.8 5.5-12.3 12.3-12.3m0-2c-7.9 0-14.3 6.4-14.3 14.3s6.4 14.3 14.3 14.3 14.3-6.4 14.3-14.3-6.4-14.3-14.3-14.3z"/><g><path class="st7" d="M84.3 61.1c-5.3 0-9.6-4.3-9.6-9.6s4.3-9.6 9.6-9.6 9.6 4.3 9.6 9.6-4.3 9.6-9.6 9.6z"/><path class="st3" d="M84.3 42.4c5 0 9.1 4.1 9.1 9.1s-4.1 9.1-9.1 9.1-9.1-4.1-9.1-9.1 4.1-9.1 9.1-9.1m0-1c-5.6 0-10.1 4.5-10.1 10.1s4.5 10.1 10.1 10.1 10.1-4.5 10.1-10.1-4.5-10.1-10.1-10.1z"/></g><g><path class="st8" d="M84.3 44.7c1.9 0 3.6.8 4.8 2M81.9 45.1c.1 0 .2-.1.3-.1M90.6 48.8c.3.8.5 1.7.5 2.7"/></g><g><path class="st4" d="M120.5 66.6c-8.4 0-15.1-6.8-15.1-15.1 0-8.4 6.8-15.1 15.1-15.1s15.1 6.8 15.1 15.1c.1 8.3-6.7 15.1-15.1 15.1z"/><path class="st7" d="M120.5 36.8c8.1 0 14.6 6.6 14.6 14.6 0 8.1-6.6 14.6-14.6 14.6-8.1 0-14.6-6.6-14.6-14.6s6.5-14.6 14.6-14.6m0-1c-8.6 0-15.6 7-15.6 15.6s7 15.6 15.6 15.6 15.6-7 15.6-15.6-6.9-15.6-15.6-15.6z"/><path class="st2" d="M120.5 64.8c-7.3 0-13.3-6-13.3-13.3 0-7.3 6-13.3 13.3-13.3s13.3 6 13.3 13.3c0 7.3-5.9 13.3-13.3 13.3z"/><path class="st3" d="M120.5 39.2c6.8 0 12.3 5.5 12.3 12.3 0 6.8-5.5 12.3-12.3 12.3-6.8 0-12.3-5.5-12.3-12.3.1-6.8 5.6-12.3 12.3-12.3m0-2c-7.9 0-14.3 6.4-14.3 14.3s6.4 14.3 14.3 14.3 14.3-6.4 14.3-14.3-6.4-14.3-14.3-14.3z"/><g><path class="st7" d="M120.5 61.1c-5.3 0-9.6-4.3-9.6-9.6s4.3-9.6 9.6-9.6 9.6 4.3 9.6 9.6-4.3 9.6-9.6 9.6z"/><path class="st3" d="M120.5 42.4c5 0 9.1 4.1 9.1 9.1s-4.1 9.1-9.1 9.1-9.1-4.1-9.1-9.1 4.1-9.1 9.1-9.1m0-1c-5.6 0-10.1 4.5-10.1 10.1s4.5 10.1 10.1 10.1 10.1-4.5 10.1-10.1-4.5-10.1-10.1-10.1z"/></g><g><path class="st8" d="M120.5 44.7c1.9 0 3.6.8 4.8 2M118.2 45.1c.1 0 .2-.1.3-.1M126.8 48.8c.3.8.5 1.7.5 2.7"/></g></g></g><g><path class="st9" d="M27.1 55.5S16.6 72 0 51.5c16.6-20.5 27.1-4 27.1-4v8z"/><path class="st9" d="M27.1 54.2s-7.2 11.3-18.5-2.7c11.3-14 18.5-2.7 18.5-2.7v5.4z"/><path d="M27.1 54.2s-7.2 11.3-18.5-2.7c11.3-14 18.5-2.7 18.5-2.7v5.4z" fill="#f4c166"/></g></svg>