<svg version="1.1" id="OBJECTS" xmlns="http://www.w3.org/2000/svg" xmlns:xlink="http://www.w3.org/1999/xlink" x="0" y="0" viewBox="0 0 400 253" xml:space="preserve"><style>.st3{fill:#b37a34}.st5{fill:#b77227}.st6{fill:#73724e}.st7{fill:#56563b}.st8{fill:#efa245}.st9{fill:#484432}.st12{fill:#363326}.st13{fill:#785123}.st15{fill:#e89b79}</style><defs><path id="SVGID_1_" d="M390.1 253H9.9c-5.5 0-9.9-4.4-9.9-9.9V9.9C0 4.4 4.4 0 9.9 0H390c5.5 0 9.9 4.4 9.9 9.9v233.2c.1 5.5-4.3 9.9-9.8 9.9z"/></defs><clipPath id="SVGID_2_"><use xlink:href="#SVGID_1_" overflow="visible"/></clipPath><g clip-path="url(#SVGID_2_)"><path d="M390.1 253H9.9c-5.5 0-9.9-4.4-9.9-9.9V8.5C0 3 4.4-1.4 9.9-1.4H390c5.5 0 9.9 4.4 9.9 9.9v234.6c.1 5.5-4.3 9.9-9.8 9.9z" fill="#ffdbb3"/><path d="M-12.2 197.6c3.4-4.8 62.1-31.2 212.2-33.3 150.1-2 206.5 33.3 206.5 33.3l4.1 59L150 270.9-8.2 256.7l-4-59.1z" fill="#ffc380"/><path class="st3" d="M24.1 199.7c-.5 0-1-.3-1.2-.8-.3-.7 0-1.5.6-1.8 7.4-3.5 8.1-3.5 8.4-3.5.8 0 1.4.6 1.4 1.4 0 .8-.6 1.4-1.4 1.4-.5.1-4.1 1.8-7.2 3.3-.2-.1-.4 0-.6 0zM10.5 219c-.5 0-1-.3-1.2-.7-.4-.7-.1-1.5.6-1.8.2-.1 5.9-3.1 8-3.8.7-.2 1.5.1 1.7.9.2.7-.1 1.5-.9 1.7-1.6.5-6 2.8-7.6 3.6-.2 0-.4.1-.6.1zM36.6 225.8c-.5 0-1-.3-1.2-.8-.3-.7 0-1.5.6-1.8.3-.1 6.5-3.1 8.6-3.8.7-.2 1.5.1 1.7.9.2.7-.1 1.5-.9 1.7-1.9.6-8.3 3.6-8.3 3.7-.1 0-.3.1-.5.1zM113.6 230.5h-13.2c-.8 0-1.4-.6-1.4-1.4 0-.8.6-1.4 1.4-1.4h13.2c.8 0 1.4.6 1.4 1.4 0 .8-.6 1.4-1.4 1.4zM259.5 224.8c-.6 0-1.2-.5-1.3-1.1-.1-.7.4-1.4 1.1-1.6.2 0 6.1-1.1 9.4-.3.7.2 1.2.9 1 1.6-.2.7-.9 1.2-1.6 1-2.3-.5-6.8.1-8.3.3-.1.1-.2.1-.3.1zM354.9 225.8c-.1 0-.3 0-.4-.1-3.9-1.3-10.5-2-10.6-2-.7-.1-1.3-.7-1.2-1.5.1-.7.8-1.3 1.5-1.2.3 0 7 .7 11.2 2.1.7.2 1.1 1 .9 1.7-.3.6-.9 1-1.4 1zM370.8 208.8c-.4 0-.8-.2-1-.5-1.1-1.3-5.4-3.4-7.9-4.4-.7-.3-1-1.1-.8-1.8.3-.7 1.1-1 1.8-.8.7.3 7.2 2.9 9 5.1.5.6.4 1.4-.2 1.9-.3.4-.6.5-.9.5z"/><path d="M194.4 202h-.1l-25.4-3.1-3.8-4.5c-12.2-4.5-40-15.1-39.6-18.6.3-3.4 17.1-3.7 26.3-3.7-3-2.6-9.1-8.4-8.1-12.3.4-1.7 2.1-2.8 4.8-3.2 11.5-1.9 28.1 10.8 31 13 2.7-1.9 17.1-12 23.6-10.3 1.5.4 2.1 1.3 2.3 2 1.1 3.9-6.1 11.8-8.2 14.1 2.3 1.9 10.3 9 11.5 15.6 1.5 8-13.5 10.9-14.1 11h-.2zm-24.8-4.3l24.7 3c1.3-.2 14.1-3 12.9-9.4-1.3-7.1-11.5-15.2-11.6-15.3l-.6-.5.5-.5c2.6-2.7 9.3-10.3 8.4-13.3-.1-.3-.3-.8-1.3-1.1-6.4-1.6-22.7 10.3-22.8 10.4l-.4.3-.4-.3c-.2-.1-18.6-15-30.3-13.1-2.2.4-3.4 1.1-3.7 2.2-.9 3.4 6.3 9.9 9.1 12.2l1.6 1.2h-2c-14.1-.2-26.4.9-26.8 2.4.6 2.1 20.3 10.4 38.9 17.3l.2.1 3.6 4.4z" fill="#333"/><path class="st5" d="M188.3 204.4s2.4-1.7 16.6 5.8c14.2 7.5 17.3 11.8 19 7.4 1.7-4.4-2.4-11-2.4-11s14.3 1.5 20 0c5.8-1.5-11.9-11.2-11.9-11.2s23.4-2.6 26.8-10.2c3.4-7.6-34.1-11-34.1-11s-29.3 5.3-37.5 11c-8.1 5.6-2.5 18.2 3.5 19.2z"/><path class="st6" d="M89.2 179.2S76 160.3 78.3 157.1c2.4-3.2 19.7 3.2 19.7 3.2s2.4-21.4 7.8-20.7c5.4.7 8.8 19.8 8.8 19.8s17.3-15.7 23.1-13.7-6.1 26.1-6.1 26.1 17.3 5.9 18.3 7.4-18.7 6.5-18.7 6.5 17.6 9.2 13.9 12.9c-3.7 3.7-29.5-1.4-42.8 0s-13.1-19.4-13.1-19.4z"/><path class="st7" d="M100.7 191.5c-.2 0-.4-.1-.6-.2-.5-.3-.6-.9-.3-1.4 2.7-4.1 23-25.4 23.9-26.3.4-.4 1-.4 1.4 0 .4.4.4 1 0 1.4-.2.2-21 22.1-23.6 26.1-.1.3-.4.4-.8.4z"/><g><path class="st8" d="M108.9 203.7s6.8-14.6 3.7-15.9c-3.1-1.4-11.9 0-11.9 0s7.5-13.6 2.7-13.9c-4.8-.3-19.3 8.5-19.3 8.5s-21.5-13.1-29.9-8.5c-8.4 4.6 10.5 16.6 10.5 16.6s-17.6 7.8-17 13.2c.7 5.4 23.8 1.7 23.8 1.7s-5.4 9.8-1.4 12.2c4.1 2.4 19.3-9.8 33.6-10.1l5.2-3.8z"/><path class="st9" d="M95.3 205.4s10.2 7.5 11.5 7.5c1.4 0 6.2-4.4 7.2-6.1 1-1.7-10.3-5.3-12.7-6.1-2.4-.8-10.3-1-6 4.7z"/><path class="st3" d="M91.4 200c-.2 0-.5-.1-.7-.2-2-1.6-19.6-13.6-19.8-13.7-.5-.3-.6-.9-.3-1.4.3-.5.9-.6 1.4-.3.7.5 17.9 12.1 20 13.9.4.4.5 1 .1 1.4-.2.2-.5.3-.7.3z"/></g><g><path d="M134 196.8s-12.2 12.4-9.5 16.1c2.7 3.7 20.4 0 20.4 0s2.4 16.6 6.8 15.9 9.2-15.9 9.2-15.9 14.9 19.4 20 16c5.1-3.4-5.7-18.8-5.7-22.3 0 0 17.3 5.2 18.3 0s-10.9-14.5-10.9-14.5 13.2-7.9 1.7-12.9-44.8-9.7-46.5-9.4c-1.7.3-11.5 6.1-11.5 6.1l7.7 20.9z" fill="#e58010"/><path d="M164.5 209.5c-.3 0-.6-.2-.8-.4-3.9-5.7-10.7-15-12.6-16.1-.5-.3-.7-.9-.4-1.4.3-.5.9-.7 1.4-.4 2.8 1.6 12.2 15.2 13.2 16.7.3.5.2 1.1-.3 1.4-.1.1-.3.2-.5.2z" fill="#ac600c"/></g><path class="st8" d="M294.1 158.9s18.3-22.4 23.4-19.4c5.1 3.1-2.4 34.6-2.4 34.6s-19.7.7-23.8-1.3c-3.9-2 .6-11.2 2.8-13.9z"/><path class="st5" d="M306 192.1s13.6 2.1 23.1 6.9c9.5 4.8 17.3 4.8 13.6.5s-7.5-9-7.5-9 22.7-2.7 21-7.1c-1.6-4.4-18.7-6-18.7-6s13.6-19.5 7.8-20.3c-5.8-.8-24.1 11-24.1 11s2.2-16.3-2-15.9c-4.2.3-13.3 14.6-13.3 14.6s-12.1-8.1-16.2-6.4c-4.1 1.7 5.4 23.8 8.8 26.5s7.5 5.2 7.5 5.2z"/><g><path class="st6" d="M265 185.2s-3.3 10.1-8.3 14.3c-5 4.2-1.6 4.4 10 3.1l11.5-1.3s2.7 14.9 7.5 13.6 6.4-14.9 6.4-14.9 19.3 13.5 22.4 10.8c3.1-2.7-13.2-15.5-13.2-15.5s11.5-7 9.8-10.2c-1.7-3.2-11.2 0-11.2 0s10-8.3 4.7-11c-5.3-2.7-19.6-4.7-22.3-4.4-2.7.3-14.9 5-16.3 7.6-1.4 2.7-1 7.9-1 7.9z"/><path class="st7" d="M295.5 196.4c-.2 0-.5-.1-.7-.2-.2-.2-18.7-16.2-21-18-.4-.3-.5-1-.2-1.4.3-.4 1-.5 1.4-.2 2.4 1.8 20.3 17.4 21.1 18 .4.4.5 1 .1 1.4-.1.3-.4.4-.7.4z"/></g><g><path class="st12" d="M140.1 164.3s-.1.1-.3.4c-1.6 2.4-9.8 14.6-11.4 16-1.9 1.5-1.5 4.4 6.1 2.9 0 0-1.7 7.1 0 7.6s7.1-5.1 7.1-5.1 1.9 8.5 4.8 8 7.8-24.8 7.8-24.8l-14.1-5zM196.3 178.2s6.6 15.4 6.8 18.3c.2 2.9 4.8-3.8 4.8-3.8s3.4 6.8 5.9 5c2.5-1.8 2.3-7.2 2.3-7.2s5.9 4.8 7.2 2.7-8.1-14.7-8.1-14.7l-18.9-.3zM255.4 180.4s-.5 11.1-1.4 13.3c-.9 2.3 3.6 1.1 4.8-.5 1.1-1.6 2.5-3.2 2.5-3.2s3.6 6.1 5.4 5.4c1.8-.7 2.5-6.3 2.5-6.3s4.3 4.3 6.1 4.1c1.8-.2-2.9-12.9-6.1-15.6l-13.8 2.8zM280.2 174.8s15.8 10 16.7 8.8c.9-1.1-1.4-6.6-1.4-6.6s7 1.6 6.6-.5c-.5-2-3.4-3.6-3.4-3.6s7.5 0 4.8-2.7-14-5-14-5l-9.3 9.6z"/><path class="st13" d="M157.2 177.7s-17.4-10.2-23.1-14.5c-5.7-4.3-10.6-10.9-13.3-26.7-2.7-15.8 1.4-17.2 6.3-15.4 0 0-.7-12.4 4.1-22.8s9.5-10.6 11.3-4.5c0 0 7.9-13.8 12-15.8s10 7 10 7 3.2-13.8 7.5-14c4.3-.2 12.9 10 12.9 10s1.6-14.5 5.7-13.1 14.7 10 14.7 10 6.3-11.5 10.2-9c3.8 2.5 7 9 7 9s9-9.5 13.1-7 15.8 7.2 15.8 7.2h4.1s11.1-8.8 13.6-7.2c2.5 1.6 5 18.5 5 18.5s14.5-8.8 16.3-5.2c1.8 3.6-.5 17.4-.5 17.4s3.2-9.3 6.6-6.1c3.4 3.2 7 25.8 7 27.4 0 0 .9-7.7 3.6-4.1 2.7 3.6.7 26.2-1.8 32.3-2.5 6.1-6.1 31.2-52.5 31-46.4-.2-68.3-1.4-75.3-2.5-7.2-1.2-20.3-1.9-20.3-1.9z"/><path d="M160.3 185.4s-10.4-15.2-14.5-18.5c-4.1-3.4-11.3-16.3-11.8-26.2-.5-10 .9-19 8.4-10.9 0 0 2.9-21.3 8.1-20.1 5.2 1.1 10 13.8 10 13.8s6.6-15.6 10.6-14.5c4.1 1.1 7.5 14.7 7.5 14.7s7.2-14 10.2-12.9c2.9 1.1 5.9 18.1 5.9 18.1s10.4-10.2 12.4-8.1-1.4 15.8-1.4 15.8 4.8-3.2 6.8 0-3.2 26.7-13.8 35.1c-10.6 8.4-26.5 15.6-26.5 15.6l-11.9-1.9z" fill="#efcc9e"/><path class="st12" d="M160.1 181.6s-.2 12.2 5.4 13.8c5.7 1.6 8.8-11.1 8.8-12 .1-.9-7.8-5.7-14.2-1.8zM185.5 152.2s3.6-.5 5.9 1.1c2.3 1.6 6.1 0 5-2-1.1-2-5-3.8-8.4-3.2s-4.4 2.7-2.5 4.1zM156.5 148.9s-3.4-1.2-6-.2-6-1.3-4.4-3.1c1.6-1.7 5.7-2.7 8.9-1.2 3.1 1.4 3.5 3.6 1.5 4.5z"/><path class="st15" d="M189.5 159.8s-5.9-1.6-7.5 1.1c-1.6 2.7 3.7 4.2 5.4 7.2 2 3.4 10.2 4.1 9.3-1.8-.8-5.8-6-6-7.2-6.5zM151.4 153.4s6.1.4 6.7 3.5c.6 3.1-4.9 2.7-7.5 5-3 2.6-11 .5-8.2-4.8s7.8-3.7 9-3.7z"/><path class="st5" d="M136 118.9c-.5 0-1-.4-1-.9l-.7-7.5c-.1-.6.4-1.1.9-1.1.6 0 1.1.4 1.1.9l.7 7.5c.1.6-.3 1-1 1.1.1 0 .1 0 0 0zM126.9 139.3c-.4 0-.7-.2-.9-.6-.7-1.4-1.6-6.7-1.8-7.8-.1-.6.3-1.1.8-1.2.5-.1 1.1.3 1.2.8.4 2.3 1.2 6.3 1.6 7.2.3.5 0 1.1-.5 1.4-.1.1-.3.2-.4.2zM145.9 105.3c-.4 0-.8-.3-1-.7l-2-6.1c-.2-.5.1-1.1.6-1.3.5-.2 1.1.1 1.3.6l2 6.1c.2.5-.1 1.1-.6 1.3-.1.1-.2.1-.3.1zM159.1 97.2h-.2c-.5-.1-.9-.7-.7-1.2.2-.9.3-4.1.3-5.9 0-.6.5-1 1-1s1 .5 1 1 0 4.9-.4 6.4c-.1.4-.5.7-1 .7zM160.5 111.4h-.1c-.6-.1-.9-.6-.9-1.1l.7-5.1c.1-.6.6-1 1.1-.9.6.1.9.6.9 1.1l-.7 5.1c-.1.6-.5.9-1 .9zM173.7 95.5c-.6 0-1-.5-1-1.1l.3-10.2c0-.6.4-1 1.1-1 .6 0 1 .5 1 1.1l-.3 10.2c-.1.6-.6 1-1.1 1zM177.8 108h-.1c-.6-.1-1-.6-.9-1.1l.7-6.4c.1-.6.6-1 1.1-.9.6.1 1 .6.9 1.1l-.7 6.4c-.1.6-.5.9-1 .9zM187.9 95.8h-.2c-.5-.1-.9-.7-.7-1.2.3-1.3 1-6 1-6 .1-.6.6-1 1.2-.9.6.1.9.6.9 1.2 0 .2-.7 4.8-1 6.2-.3.4-.7.7-1.2.7zM197.8 109.7h-.2c-.6-.1-.9-.6-.8-1.2l1.4-7.8c.1-.6.6-.9 1.2-.8.6.1.9.6.8 1.2l-1.4 7.8c-.1.5-.5.8-1 .8zM199.8 89.7h-.2c-.5-.1-.9-.7-.7-1.2.2-.9.1-3.8 0-5.4 0-.6.4-1 .9-1.1.6 0 1 .4 1.1.9 0 .5.3 4.6 0 6.1-.2.4-.6.7-1.1.7zM215.4 90.1h-.2c-.5-.1-.9-.7-.7-1.2.2-.7 0-4.5-.4-7.8-.1-.6.4-1.1.9-1.1.6-.1 1.1.4 1.1.9.1 1.2.7 7 .3 8.5-.1.4-.5.7-1 .7zM212 106.4h-.2c-.6-.1-.9-.6-.8-1.2.3-1.6.7-6.3.7-6.3 0-.6.5-1 1.1-.9.6 0 1 .5.9 1.1 0 .2-.3 4.8-.7 6.6-.1.3-.5.7-1 .7zM215.1 123.7h-.3c-.5-.1-.9-.7-.7-1.2.8-3.1 1.7-6.6 1.7-7.2 0-.6.5-1 1-1 .6-.1 1 .4 1 1 0 1.1-1.3 6.2-1.7 7.7-.1.4-.6.7-1 .7zM221.9 133.5c-.2 0-.3 0-.5-.1-.5-.3-.7-.9-.5-1.4.6-1.3 2.7-6.6 2.7-6.7.2-.5.8-.8 1.3-.6.5.2.8.8.6 1.3-.1.2-2.1 5.5-2.8 6.9-.1.4-.5.6-.8.6zM228 111.4c-.5 0-1-.4-1-1l-.3-9.2c0-.6.4-1 1-1.1.5-.1 1 .4 1.1 1l.3 9.2c-.1.6-.5 1.1-1.1 1.1zM231.7 92.8h-.2c-.6-.1-.9-.6-.8-1.2.2-1-.5-5.3-1-8.1-.1-.6.2-1.1.8-1.2.5-.1 1.1.2 1.2.8.2 1.2 1.4 7.1 1 8.9-.1.4-.5.8-1 .8zM242.6 97.9c-.2 0-.3 0-.5-.1-.5-.3-.7-.9-.5-1.4.3-.8-.2-5.2-.8-8.9-.1-.6.3-1.1.8-1.2.6-.1 1.1.3 1.2.8.4 2.5 1.3 8.6.6 10.1-.1.5-.5.7-.8.7zM255.1 93.1c-.6 0-1-.5-1-1v-5.8c0-.6.5-1 1-1s1 .5 1 1v5.8c0 .6-.4 1-1 1zM242.2 116.5c-.1 0-.3 0-.4-.1-.5-.2-.8-.8-.6-1.3.7-1.7 2.3-6.7 2.4-6.7.2-.5.8-.8 1.3-.6.5.2.8.8.6 1.3-.1.2-1.7 5.1-2.4 6.8-.1.4-.5.6-.9.6zM255.1 112.8c-.2 0-.4-.1-.6-.2-.5-.3-.5-1-.2-1.4.6-.8 1.7-4.4 2.2-6.7.1-.5.7-.9 1.2-.8.5.1.9.7.8 1.2-.2 1-1.5 6-2.6 7.5-.2.3-.5.4-.8.4zM230.4 143.7c-.2 0-.3 0-.5-.1-.5-.3-.7-.9-.5-1.4.5-.9 1.4-4.9 2-7.2.1-.5.7-.9 1.2-.8.5.1.9.7.8 1.2-.1.6-1.4 6.3-2.1 7.7-.2.4-.6.6-.9.6zM224.6 163.4c-.2 0-.4-.1-.6-.2-.5-.3-.5-1-.2-1.4.6-.8 1.2-4.4 1.5-6.6.1-.6.6-.9 1.1-.9.6.1 1 .6.9 1.1-.1 1-.8 6.1-1.9 7.6-.2.2-.5.4-.8.4zM218.8 155.2c-.2 0-.4-.1-.6-.2-.5-.3-.6-.9-.3-1.4.4-.6 1.4-3.9 2.2-6.8.2-.5.7-.9 1.3-.7.5.2.9.7.7 1.3-.4 1.5-1.8 6.3-2.5 7.4-.1.3-.4.4-.8.4zM213.1 173.5c-.2 0-.4-.1-.6-.2-.5-.3-.5-1-.2-1.4 1-1.3 3-4.4 3-4.4l1.7 1.1s-2.1 3.1-3.1 4.5c-.2.3-.5.4-.8.4zM227.6 176.6c-.3 0-.6-.1-.8-.4-.3-.5-.2-1.1.2-1.4.6-.4 1.4-2.4 2.5-5.9l.2-.7c.2-.5.8-.8 1.3-.6.5.2.8.8.6 1.3l-.2.7c-1.1 3.5-2 6.1-3.2 7-.1-.1-.3 0-.6 0zM238.2 157.6c-.2 0-.4-.1-.6-.2-.4-.4-.5-1-.2-1.4.8-1 .9-4.1.8-6.1 0-.6.4-1 .9-1.1.6 0 1 .4 1.1.9.1.9.3 5.6-1.2 7.5-.2.3-.5.4-.8.4zM245.6 137.2c-.1 0-.3 0-.4-.1-.5-.2-.8-.8-.6-1.3.6-1.6 1.3-5.5 1.3-5.6.1-.6.6-.9 1.2-.8.6.1.9.6.8 1.2 0 .2-.7 4.2-1.4 6-.1.4-.5.6-.9.6zM257.8 126.7h-.2c-.6-.1-.9-.6-.8-1.2l1.4-6.8c.1-.6.7-.9 1.2-.8.6.1.9.6.8 1.2l-1.4 6.8c-.1.5-.5.8-1 .8zM259.2 148.4c-.2 0-.3 0-.5-.1-.5-.3-.7-.9-.5-1.4.8-1.6 1.7-5.5 1.9-6.9.1-.6.7-.9 1.2-.8.6.1.9.6.8 1.2 0 .2-1.1 5.2-2.1 7.4-.1.4-.4.6-.8.6zM250 164.4c-.2 0-.4-.1-.6-.2-.5-.3-.5-1-.2-1.4.8-1 2.4-4.8 2.9-6.2.2-.5.8-.8 1.3-.6.5.2.8.8.6 1.3-.2.5-2.1 5.3-3.2 6.7-.1.2-.5.4-.8.4zM258.2 172.2c-.2 0-.4-.1-.6-.2-.4-.4-.5-1-.2-1.4 1.4-1.7 4.3-5.7 5-6.9.2-.5.9-.7 1.4-.5.5.3.7.9.5 1.4-.8 1.5-4 5.8-5.2 7.3-.3.1-.6.3-.9.3zM240.9 179c-.2 0-.4-.1-.6-.2-.5-.3-.6-1-.2-1.4l3.4-4.8c.3-.5 1-.6 1.4-.2.5.3.6 1 .2 1.4l-3.4 4.8c-.2.2-.5.4-.8.4zM271.1 172.9c-.2 0-.4-.1-.6-.2-.4-.3-.5-1-.2-1.4l3.4-4.4c.3-.4 1-.5 1.4-.2.4.3.5 1 .2 1.4l-3.4 4.4c-.2.2-.5.4-.8.4zM284 167.8c-.2 0-.4-.1-.6-.2-.5-.3-.6-.9-.3-1.4.5-.7 2.5-4.6 3.7-7 .2-.5.9-.7 1.4-.5.5.3.7.9.5 1.4-.3.6-3.1 6.2-3.8 7.2-.3.3-.6.5-.9.5zM272.8 158.6c-.2 0-.4-.1-.6-.2-.5-.3-.5-1-.2-1.4.7-.9 2.1-4.9 2.9-7.2.2-.5.8-.8 1.3-.6.5.2.8.8.6 1.3-.2.6-2.1 6.3-3.2 7.8-.2.2-.5.3-.8.3zM287 151.5h-.3c-.5-.1-.9-.7-.7-1.2l2-7.8c.1-.5.7-.9 1.2-.7.5.1.9.7.7 1.2l-2 7.8c0 .4-.4.7-.9.7zM299.9 154.2c-.2 0-.4 0-.5-.1-.5-.3-.6-.9-.3-1.4.6-1 .7-4.2.5-6.2 0-.6.4-1 .9-1.1.6 0 1 .4 1.1.9.1.9.3 5.5-.8 7.4-.2.3-.5.5-.9.5zM296.2 138.6h-.2c-.6-.1-.9-.6-.8-1.2.3-1.3.1-5.6 0-7.2 0-.6.4-1 1-1.1.6 0 1 .4 1.1 1 0 .6.3 5.9 0 7.7-.2.5-.6.8-1.1.8zM276.2 141h-.2c-.5-.1-.9-.7-.8-1.2l1.7-7.1c.1-.5.7-.9 1.2-.8.5.1.9.7.8 1.2l-1.7 7.1c-.2.4-.6.8-1 .8zM271.8 126c-.2 0-.3 0-.5-.1-.5-.3-.7-.9-.4-1.4 1-1.7 1-6.8.9-8.6 0-.6.4-1 1-1.1.6-.1 1 .4 1.1 1 0 .7.3 7.2-1.2 9.7-.2.3-.6.5-.9.5zM287 125c-.1 0-.3 0-.4-.1-.5-.2-.8-.8-.6-1.3.4-1 .4-5.1.3-7.7 0-.6.4-1 1-1.1.7 0 1 .4 1.1 1 .1 1.1.3 6.8-.4 8.6-.2.4-.6.6-1 .6zM295.5 115.2h-.2c-.6-.1-.9-.6-.8-1.2.2-1-.7-4.3-1.3-6.3-.2-.5.1-1.1.6-1.3.5-.2 1.1.1 1.3.6.3.9 1.8 5.4 1.4 7.3-.1.5-.5.9-1 .9zM279.9 111.1c-.6 0-1-.5-1-1 0-2.3-.7-6.9-.7-7-.1-.6.3-1.1.9-1.2.5-.1 1.1.3 1.2.9 0 .2.7 4.8.7 7.3-.1.5-.5 1-1.1 1zM269 105.3h-.2c-.6-.1-.9-.6-.8-1.2.2-1.1-.1-5-.3-7.1-.1-.6.3-1.1.9-1.1.6-.1 1.1.3 1.1.9.1.6.7 6 .3 7.8-.1.4-.5.7-1 .7zM265.6 86.7c-.5 0-.9-.4-1-.9L264 80c-.1-.6.3-1.1.9-1.1.6-.1 1.1.3 1.1.9l.7 5.8c.1.6-.3 1.1-.9 1.1h-.2zM284 97.2c-.6 0-1-.5-1-1s-.8-2.4-1.6-4c-.3-.5 0-1.1.5-1.4.5-.3 1.1-.1 1.4.5.5 1.1 1.8 3.7 1.8 4.9-.1.5-.6 1-1.1 1zM239.2 80.6c-.5 0-.9-.3-1-.8l-1-4.1c-.1-.5.2-1.1.7-1.2.5-.1 1.1.2 1.2.7l1 4.1c.1.5-.2 1.1-.7 1.2-.1.1-.1.1-.2.1z"/></g><g><path class="st8" d="M188.6 61.4s12.4-9.5 22.8-12.2c10.4-2.7 19.2-5.2 19.2-2s-5 12.2-5 12.2 23.3-.5 25.1 2.5c1.8 2.9-8.1 8.8-8.1 8.8s13.3 3.6 13.8 7.9c.5 4.3-22.4.9-22.4.9s10 11.1 4.8 12.9c-5.2 1.8-25.3-11.3-25.3-11.3s3.2 9.5-1.6 10c-4.8.5-21.5-20.6-24.2-21.5-2.7-.9.9-8.2.9-8.2z"/><path class="st9" d="M194.3 60.3s-22.4 1.1-25.1 4.3c-2.7 3.2 6.3 2.5 12.4 3.4 6.1.9 11.3 5.2 14.7 2.5 3.4-2.7 1.1-10.2-2-10.2z"/><path class="st3" d="M235.2 72.6c-.2 0-.3 0-.5-.1-3.2-1.8-22.9-4.4-30.2-5.3-.6-.1-1-.6-.9-1.1.1-.6.5-1 1.1-.9 2.7.3 26.8 3.3 30.9 5.6.5.3.7.9.4 1.4-.1.3-.4.4-.8.4z"/></g><g><path class="st8" d="M96.3-13.3s14.5 14.5 10.9 18.1c-3.6 3.6-7.7 5.3-7.7 5.3s22.6-3.9 27.1 3.3c4.5 7.2-17.6 10.4-17.6 10.4s26.2 2.5 23.1 9.4c-3.2 6.9-24.9 0-24.9 0s14.9 19 3.2 17.9C98.6 50 74.2 37.8 74.2 37.8l-48.4 1.4-30.3-6L0-3.4l96.3-9.9z"/><path class="st5" d="M72 24.7c-.5 0-1-.1-1.5-.3-2.9-1.3-4.8-6.4-5.7-9.5l-6.1 9c-.3.5-.9.6-1.4.3-.5-.3-.6-.9-.3-1.4l7.4-10.9c.2-.3.6-.5 1-.4.4.1.7.4.8.8.8 3.4 2.8 9.3 5.1 10.3.5.2.9.2 1.4-.1 2.7-1.5 3.8-7.1 4.7-11.3.7-3.5 1.1-5.1 2-5.8.4-.3 1.1-.2 1.4.2.3.5.2 1.1-.2 1.4-.4.4-.9 2.8-1.2 4.6-1 4.8-2.1 10.7-5.7 12.7-.5.2-1.1.4-1.7.4zM-3.4 218.8s26.5-51.5 40-62.6l-4.8-9.4-17.5 18.6S12.1 107.5 24 64.5L0 60.9l-7.5 71.3 4.1 86.6z"/><path class="st6" d="M30.5 153.2S22 125.3 27.8 126s7.5 13.5 7.5 13.5S44.4 123 48.5 126s3.1 8.4 3.1 8.4 7 4.4.1 8.9c0 0 10.1-1.5 9 3.5-1 5-14.3 2.5-14.3 2.5s11.9 15.4 2.7 16.4c-9.1 1-18-10.5-18.6-12.5z"/><path class="st7" d="M35.6 150c-.3 0-.6-.1-.8-.4-.3-.5-.2-1.1.2-1.4 1.8-1.4 9.7-8.6 9.8-8.6.4-.4 1.1-.4 1.4.1.4.4.4 1.1-.1 1.4-.3.3-8 7.3-9.9 8.8-.2 0-.4.1-.6.1z"/><path class="st13" d="M-.4 64.5S11 64 14.5 68.1s19 20.9 26 16.1c7-4.8-3.9-16.1-3.9-16.1s43.9 8.6 47.5 0c3.6-8.6-28.5-20.4-28.5-20.4s32.6-6.5 32.6-14.6-39.8 0-39.8 0 3.2-17.1-2.9-17.6-13.8 13.6-13.8 13.6S21 7.9 14.6 10.2C8.1 12.5 7.7 22 7.7 22S0 12.5-4.1 15.2s-9 22.6-9 24c0 1.3 12.7 25.3 12.7 25.3z"/><path class="st5" d="M35.8 59.6c-6.5 0-14.5-7.4-14.8-7.7-.4-.4-.4-1 0-1.4.4-.4 1-.4 1.4 0 .1.1 8.2 7.6 13.9 7.2 1.4-.1 2.5-.7 3.4-1.8 4.1-5.3-5.3-15.8-9.3-19.4-.4-.4-.4-1-.1-1.4.4-.4 1-.5 1.4-.1.6.6 15.6 14.3 9.5 22.2-1.2 1.6-2.9 2.5-4.9 2.6 0-.2-.3-.2-.5-.2z"/></g></g></svg>