<svg xmlns="http://www.w3.org/2000/svg" width="350" height="290.5" viewBox="0 0 350 290.5"><defs><style>.a{fill:#f5f5f5;}.b{fill:#ebebeb;}.c{fill:#e6e6e6;}.d{fill:#e0e0e0;}.e{fill:#407bff;}.f,.g,.i,.j,.m,.q,.r{fill:#fff;}.f{opacity:0.8;}.f,.g,.i,.j,.k,.l,.m,.n,.r{isolation:isolate;}.g,.k,.n,.p{opacity:0.2;}.h{fill:#263238;}.i{opacity:0.4;}.j{opacity:0.6;}.l{opacity:0.3;}.m{opacity:0.1;}.o{fill:#e4897b;}.r{opacity:0.5;}.s{fill:none;stroke:#263238;stroke-miterlimit:10;stroke-width:3px;}</style></defs><g transform="translate(-43.176 -73.592)"><g transform="translate(43.176 73.592)"><circle class="a" cx="38.967" cy="38.967" r="38.967" transform="translate(198.954 31.093)"/><path class="b" d="M405.792,138.32a6.342,6.342,0,0,0-8.17-6.079,13.437,13.437,0,0,0-15.774-15.159,11.747,11.747,0,0,0-21.784,5.939c-.066,0-.129-.009-.2-.009a10.827,10.827,0,1,0,0,21.655H399.63l-.007-.009A6.343,6.343,0,0,0,405.792,138.32Z" transform="translate(-111.609 -75.941)"/><path class="b" d="M298.858,175.561a6.344,6.344,0,0,0-8.169-6.079,13.433,13.433,0,0,0-15.774-15.158,11.747,11.747,0,0,0-21.784,5.938c-.066,0-.13-.009-.2-.009a10.828,10.828,0,1,0,0,21.655H292.7l-.008-.009A6.342,6.342,0,0,0,298.858,175.561Z" transform="translate(-82.446 -89.636)"/><path class="b" d="M112.2,188.367a6.342,6.342,0,0,0-8.17-6.079A13.437,13.437,0,0,0,88.254,167.13a11.747,11.747,0,0,0-21.784,5.939c-.066,0-.129-.009-.2-.009a10.828,10.828,0,1,0,0,21.655h39.764l-.008-.009A6.343,6.343,0,0,0,112.2,188.367Z" transform="translate(-43.938 -92.373)"/><path class="b" d="M403.366,221.361a3.834,3.834,0,0,0-4.938-3.674,8.12,8.12,0,0,0-9.534-9.162,7.1,7.1,0,0,0-13.166,3.589c-.04,0-.079-.006-.119-.006a6.544,6.544,0,1,0,0,13.088h24.034l0-.006A3.833,3.833,0,0,0,403.366,221.361Z" transform="translate(-112.852 -100.724)"/><path class="b" d="M156.16,89.84a3.831,3.831,0,0,0-4.937-3.674A8.116,8.116,0,0,0,141.689,77a7.1,7.1,0,0,0-13.167,3.589c-.039,0-.078-.007-.118-.007a6.544,6.544,0,0,0,0,13.089h24.034l-.006-.006A3.833,3.833,0,0,0,156.16,89.84Z" transform="translate(-58.054 -73.592)"/><path class="b" d="M89.857,243.621l25.4,115.368,4.616-2.165L93.2,242.969Z" transform="translate(-46.073 -125.604)"/><g transform="translate(252.071 0.417)"><g transform="translate(11.996 7.613)"><path class="c" d="M399.33,351.2s-15.7-108.4,19.646-220.523L413.43,126.4s-41.423,84.79-35.392,227.843Z" transform="translate(-377.438 -126.4)"/></g><path class="d" d="M431.1,99.409c12.959-8.492,32.144,5.024,34.774,26.141a40.037,40.037,0,0,0-5.949-2.827c-1-5.312-1.972-10.015-1.972-10.015l.689,9.536c-1.139-.408-2.384-.808-3.731-1.173l-.9-5.133-.423,4.792a46.055,46.055,0,0,0-5.572-.987L445.6,104.766l-1.256,14.715a39.423,39.423,0,0,0-5.751.255l-1.482-10.191-.013,10.392a37.175,37.175,0,0,0-4.859,1.121l-1.775-15.2s.053,8.546-.044,15.793a39.884,39.884,0,0,0-12.515,7.363l-.135-1.871S419.273,107.16,431.1,99.409Z" transform="translate(-367.946 -75.452)"/><path class="d" d="M410.218,91.988c-10.288-11.585-32.339-3.557-40.4,16.138a40.1,40.1,0,0,1,6.481-1.172c2.358-4.864,4.523-9.151,4.523-9.151l-3.159,9.025c1.206-.1,2.513-.157,3.908-.158l2.207-4.72-.844,4.735a46.391,46.391,0,0,1,5.636.506l6.25-13.822-2.637,14.53a39.685,39.685,0,0,1,5.485,1.75l4.1-9.448-2.705,10.034a37.19,37.19,0,0,1,4.4,2.352l5.687-14.206s-2.286,8.235-4.087,15.255a39.891,39.891,0,0,1,10.154,10.379l.62-1.771S419.607,102.563,410.218,91.988Z" transform="translate(-364.97 -74.818)"/><path class="d" d="M401.837,121.313c10.314-10.07,18.065-1.306,18.065-1.306a22.513,22.513,0,0,0-10.341,6.647l-1.4-1.817.224,3.1c-.719.827-1.409,1.69-2.072,2.577l-2.364-5.375,1.008,7.277c-.949,1.395-1.834,2.822-2.649,4.246l-1.041-5.334.079,7.068c-.858,1.594-1.631,3.157-2.313,4.631l-1.124-9.78-.147,12.648c-1.651,3.9-2.508,6.643-2.508,6.643S391.523,131.382,401.837,121.313Z" transform="translate(-366.508 -76.67)"/><path class="d" d="M431.3,145.6l-2.131,1.227c-.312-1.638-.671-3.361-1.081-5.105l1.452-2.652-1.822,1.126q-.218-.869-.454-1.734l1.856-5.2-2.779,2.07c-1.5-4.683-3.417-8.8-5.811-10.772,0,0,23.661,7.559,10.29,33.063,0,0-.428-4.038-1.38-9.338Z" transform="translate(-368.117 -77.173)"/><path class="d" d="M404.563,123.933l-3.784-7.125,1.556,7.422q-.563.093-1.143.207l-4.9-6.105,1.208,7.03a43.823,43.823,0,0,0-4.925,1.815,55.53,55.53,0,0,0-5.113,2.58l-2.39-6.236,1.112,6.979c-1.624.969-3.2,2-4.72,3.063l-1.189-5.5.112,6.264c-1.858,1.343-3.614,2.716-5.23,4.055l.147-9.959-1.448,11.055c-1.657,1.415-3.14,2.764-4.408,3.963l-.184-6.908-1.746,8.773c-1.824,1.807-2.866,2.965-2.866,2.965.952-24.191,10.318-33.8,25.835-36.392S417.179,125.4,417.179,125.4,412.415,123.146,404.563,123.933Z" transform="translate(-364.649 -76.368)"/><path class="d" d="M453.291,153.84l-1.419,7.211c-.68-1.79-1.61-4.089-2.781-6.647l1.27-10.553-2.325,8.319a81.394,81.394,0,0,0-6.3-10.878l2.208-7.316-3.582,5.43c-.716-.943-1.458-1.859-2.229-2.736l1.257-4.606-1.937,3.849q-.795-.861-1.625-1.661l1.523-6.144-2.42,5.312a27,27,0,0,0-4.968-3.587l2.467-7.513-3.867,6.809a17.076,17.076,0,0,0-7.771-1.624s4.661-7.493,13.307-10.081,27.2,13.029,19.134,47.461c0,0-.247-.784-.726-2.122Z" transform="translate(-368.133 -76.712)"/><path class="d" d="M439.031,84.267l1.472,4.37a9.533,9.533,0,0,0-1.614.23l-1.776-5.689,1.185,5.841a12.6,12.6,0,0,0-3.185,1.454l-2.444-7.685,1.436,8.375c-.389.288-.785.606-1.187.96l-2.758-7.213,2.082,7.836a30.4,30.4,0,0,0-5.166,6.882l-.764-10.574-1.216,14.433a85.977,85.977,0,0,0-4.877,13.981s-1.5-38.417,7.756-42.766,14.763,14.147,14.763,14.147a5.409,5.409,0,0,0-1.266-.206Z" transform="translate(-368.092 -74.037)"/><path class="d" d="M425.31,129.811l-.826,7.29-2.778-7.029-3.774,5.5-1.473-5.123-4.338,3.639s.53-9.295,3.3-13.544S426.484,119.282,425.31,129.811Z" transform="translate(-367.595 -76.808)"/></g><g transform="translate(139.386 78.291)"><path class="b" d="M300.835,252.124V201.31s-10.309,10.944-17.146,9.46-15.743,3.69-15.743,3.69,8.944-1.3,12.264,2.326,18.139,4.018,18.139,4.018v33.184Z" transform="translate(-229.929 -201.31)"/><path class="d" d="M345.089,238.879h-2.341v3.2h-7.732v-3.2h-7.591v3.2h-7.732v-3.2H312.1v3.2H304.37v-3.2h-7.591v3.2h-7.732v-3.2h-7.591v3.2h-7.732v-3.2h-7.591v3.2H258.4v-3.2h-2.6l-7.533,60.215,104.614-.435Z" transform="translate(-228.708 -203.642)"/><path class="b" d="M360.441,285.48h-3.216v4.391H346.6V285.48h-10.43v4.391H325.548V285.48H315.119v4.391H304.495V285.48H294.065v4.391H283.441V285.48H273.012v4.391H262.388V285.48H251.959v4.391H241.335V285.48h-3.571l-10.35,82.732,143.734-.6Z" transform="translate(-227.413 -206.534)"/></g><path class="a" d="M356.622,361.378c-1.927-2.505-3.745-5.065-5.761-7.477a2.529,2.529,0,0,1-.292-.4,16.377,16.377,0,0,0-2.075-1.318c-.127-.051-.549-.246-.987-.431-.81-.342-1.614-.709-2.414-1.08-5.063-2.346-9.609-5.063-13.428-9.69-2.092-2.535-3.763-5.493-5.933-7.942-.052.081-.478-.176-.68-.373-.645-.084-1.519-.234-1.635-.235-.875-.017-1.752.017-2.626.062-1.25.064-2.5.182-3.741.308-4.853,8.182-10.993,19.348-13.7,20.826-4.192,2.286-42.858,14.04-45.705,13.346s-17.777.694-21.524.534-10.532-2.075-20.353-7.274-15.2-5.238-27.03-9.577-19.768-5.993-26.693.685-25.945-7.421-31.873-9.43-17.275-13.575-25.014-8.179S90.98,341.7,81.312,351.345,52.459,379.62,52.459,379.62H379.082l-3.749-7.552C368.107,371.613,361.509,367.734,356.622,361.378Z" transform="translate(-43.752 -131.15)"/><path class="d" d="M43.176,262.563S54.122,242.9,83.787,225.875c0,0,24.138-2.058,51.392,9.823,0,0,5.525,9.179-.753,12.8s-11.493-3.657-11.493-3.657-1.158,11.085-9.351,11.406-10.6-7.749-10.6-7.749-.8,10.173-10.583,12.744c-8.49,2.233-13.764-4.995-13.764-4.995s-1.689,8.361-9.3,10.772c-6.114,1.939-10.3-3.322-10.3-3.322s-1.755,9.074-8.248,9.074C45.217,272.767,43.176,262.563,43.176,262.563Z" transform="translate(-43.176 -107.412)"/></g><g transform="translate(55.308 342.851)"><ellipse class="a" cx="157.131" cy="10.621" rx="157.131" ry="10.621"/></g><g transform="translate(236.992 291.177)"><g transform="translate(70.838)"><path class="e" d="M383.989,365.847s4.082-5.973,7.792-7.643,4.322-8.014,6.335-8.366,4.24,5.51,7.765,7.216,8.863,8.757,8.863,8.757Z" transform="translate(-378.433 -349.822)"/><path class="f" d="M383.989,365.847s4.082-5.973,7.792-7.643,4.322-8.014,6.335-8.366,4.24,5.51,7.765,7.216,8.863,8.757,8.863,8.757Z" transform="translate(-378.433 -349.822)"/><path class="e" d="M413.41,409.925h-29.68l-3.752-43.057h37.183Z" transform="translate(-378.184 -350.88)"/><rect class="e" width="40.774" height="4.526" transform="translate(0 13.762)"/><rect class="g" width="40.774" height="4.526" transform="translate(0 13.762)"/><path class="h" d="M397.916,367.784c2.706,4.239,14.266,21.737,21.435,23.011l.886-2.12s-6.423.768-20.6-21.961a1.019,1.019,0,0,0-1.342-.364h0A1.009,1.009,0,0,0,397.916,367.784Z" transform="translate(-379.287 -350.84)"/></g><g transform="translate(45.412 3.254)"><path class="e" d="M352.79,353.4h0a2.392,2.392,0,0,1,3.015,1.624l5.071,17.719,6.591-2.638s3.968,14.774-3.525,17.106c-7.328,2.281-12.987-11.355-12.987-11.355l6.7-1.853-6.395-17.5A2.393,2.393,0,0,1,352.79,353.4Z" transform="translate(-350.956 -353.291)"/><path class="i" d="M363.941,388.328c-7.325,2.279-12.981-11.358-12.981-11.358l6.7-1.848s1.154,1.97,2.448,1.482.769-2.748.769-2.748l6.594-2.636S371.435,385.992,363.941,388.328Z" transform="translate(-350.956 -354.404)"/></g><g transform="translate(0 28.912)"><path class="e" d="M417.087,414.416c-3.688-1.829-7.453-3.557-8.659-3.636-2.6-.172-4.082-1.326-5.937-3.532s-2.6-4.754-5.936-8.3.371-4.966-6.679-5.88-4.329-.333-8.658-3.454-3.457-3.12-8.531-5.346-2.107-3.077-8.044-3.58c-4.1-.346-10.586,1.814-13.948,4.214-1.492,1.065-2.257,2.832-3.727,3.767-1.656,1.053-4.238-.9-3.967,2.63a9.046,9.046,0,0,1,.122,2.765c-.478,2.005-8.742,2-10.839,2.63a2,2,0,0,0-1.261.766c-.477.854.241,2.365-.687,2.678-.29.1-.612-.014-.914.043-1.119.215-.824,2.221-1.867,2.683-1,.441-2.259-.476-3.423-.039-.9.336-1.192,1.542-1.971,2.017-1.356.828-2.77,1.439-4.108,2.316-2.329,1.526-4.344,3.394-6.841,4.738l-6.679,1.825-1.995.7Z" transform="translate(-302.539 -380.647)"/><path class="f" d="M417.087,414.416c-3.688-1.829-7.453-3.557-8.659-3.636-2.6-.172-4.082-1.326-5.937-3.532s-2.6-4.754-5.936-8.3.371-4.966-6.679-5.88-4.329-.333-8.658-3.454-3.457-3.12-8.531-5.346-2.107-3.077-8.044-3.58c-4.1-.346-10.586,1.814-13.948,4.214-1.492,1.065-2.257,2.832-3.727,3.767-1.656,1.053-4.238-.9-3.967,2.63a9.046,9.046,0,0,1,.122,2.765c-.478,2.005-8.742,2-10.839,2.63a2,2,0,0,0-1.261.766c-.477.854.241,2.365-.687,2.678-.29.1-.612-.014-.914.043-1.119.215-.824,2.221-1.867,2.683-1,.441-2.259-.476-3.423-.039-.9.336-1.192,1.542-1.971,2.017-1.356.828-2.77,1.439-4.108,2.316-2.329,1.526-4.344,3.394-6.841,4.738l-6.679,1.825-1.995.7Z" transform="translate(-302.539 -380.647)"/></g><g transform="translate(1.689 28.531)"><path class="e" d="M338.49,397.321a1.522,1.522,0,0,1-.009.206v.009a16.9,16.9,0,0,1-2.664,8.957c-.141.216-.281.431-.441.647a17.083,17.083,0,0,1-3.527,3.686,11.146,11.146,0,0,1-.957.685h-.009a1.64,1.64,0,0,1-.234.15c-.1.075-.206.131-.31.2a5.359,5.359,0,0,1-.5.3c-.263.15-.535.3-.807.431h-.009a17.017,17.017,0,0,1-19.95-3.489,16.585,16.585,0,0,1-2.861-4,16.963,16.963,0,0,1-1.876-7.775v-.056c0-.478.019-.957.066-1.426a16.787,16.787,0,0,1,1.81-6.3,15.379,15.379,0,0,1,.825-1.435,17.385,17.385,0,0,1,3.6-4.033,14.712,14.712,0,0,1,1.4-1.013,6.241,6.241,0,0,1,.525-.338,16.7,16.7,0,0,1,4.314-1.867c.131-.037.263-.075.394-.1a17.188,17.188,0,0,1,4.146-.507q.661,0,1.294.056c.113,0,.216.009.328.019h.009a16.807,16.807,0,0,1,5.478,1.482c.066.028.141.066.216.1a17.032,17.032,0,0,1,9.6,13.159v.028A15.934,15.934,0,0,1,338.49,397.321Z" transform="translate(-304.34 -380.241)"/><path class="j" d="M340.062,397.606a17.034,17.034,0,0,1-9.454,15.27c-.009.009-.009,0-.009,0a3.581,3.581,0,0,1-.938-1.154c3.151-9.192,0-14.116,0-14.116l.009-.094.225-1.473.047-.272c.488-2.729,1.716-7.841,4.38-10.936A17.045,17.045,0,0,1,340.062,397.606Z" transform="translate(-305.911 -380.526)"/><path class="j" d="M308.326,394.62s-2.992,2.992-2.11,10.73a17.074,17.074,0,0,1,4.427-21.028A20.559,20.559,0,0,0,308.326,394.62Z" transform="translate(-304.34 -380.494)"/><path class="g" d="M333.012,384.546c-3.752,4.352-4.662,12.775-4.662,12.775-10.3,2.523-19.762-2.954-19.762-2.954a20.659,20.659,0,0,1,2.317-10.3,17.075,17.075,0,0,1,22.107.478Z" transform="translate(-304.602 -380.241)"/><path class="g" d="M329.34,414.5a17.017,17.017,0,0,1-19.95-3.489c3.2,1.9,9.736,4.568,19.012,2.336A3.58,3.58,0,0,0,329.34,414.5Z" transform="translate(-304.653 -382.151)"/><g class="k" transform="translate(0 0.056)"><path d="M330.009,382a20.065,20.065,0,0,0-1.229,1.951,30.111,30.111,0,0,0-1.791,4.014c-.525,1.379-.929,2.8-1.313,4.211-.366,1.426-.694,2.87-.966,4.324a30.273,30.273,0,0,1,.619-4.4,36.108,36.108,0,0,1,1.219-4.3,26.451,26.451,0,0,1,1.913-4.033,20.492,20.492,0,0,1,1.332-1.876C329.859,381.929,329.934,381.967,330.009,382Z" transform="translate(-305.604 -380.4)"/><path d="M323.981,380.32c-.234.422-.45.853-.657,1.285a29.321,29.321,0,0,0-1.7,4.511c-.5,1.538-.872,3.114-1.229,4.69s-.657,3.17-.929,4.765a40.082,40.082,0,0,1,.582-4.84,41.054,41.054,0,0,1,1.126-4.746,26.5,26.5,0,0,1,1.829-4.549c.206-.385.422-.769.647-1.135C323.766,380.3,323.869,380.31,323.981,380.32Z" transform="translate(-305.279 -380.301)"/><path d="M317.919,380.781c-.094.253-.2.507-.291.76a33.318,33.318,0,0,0-1.266,4.268c-.366,1.444-.647,2.908-.919,4.38s-.5,2.945-.713,4.427a37.841,37.841,0,0,1,.366-4.483,44.286,44.286,0,0,1,.816-4.427,28.044,28.044,0,0,1,1.379-4.305c.075-.169.15-.347.234-.516C317.656,380.847,317.788,380.809,317.919,380.781Z" transform="translate(-304.985 -380.331)"/><path d="M312.98,382.881c-.319,1.051-.619,2.1-.835,3.17-.272,1.191-.469,2.4-.657,3.611s-.319,2.429-.431,3.658a25.594,25.594,0,0,1,.075-3.7,34.591,34.591,0,0,1,.553-3.667,27.572,27.572,0,0,1,.769-2.739C312.624,383.1,312.8,382.984,312.98,382.881Z" transform="translate(-304.755 -380.461)"/><path d="M334.56,403.869a16.711,16.711,0,0,1-.685,5.224,17.66,17.66,0,0,1-.91,2.467c-.122.272-.263.544-.4.807h-.009a1.642,1.642,0,0,1-.234.15,19.731,19.731,0,0,0,1.21-3.517,17.493,17.493,0,0,0,.563-5.121,18.727,18.727,0,0,0-.788-5.093,20.878,20.878,0,0,0-2.063-4.774,16.405,16.405,0,0,1,2.4,4.662A17.492,17.492,0,0,1,334.56,403.869Z" transform="translate(-306.01 -381.152)"/><path d="M338.057,403.151l-.047,1.416-.2,1.407a9.264,9.264,0,0,1-.2,1.135c-.141.216-.281.431-.441.647a12.141,12.141,0,0,0,.281-1.829l.141-1.388.028-1.388a9.944,9.944,0,0,0-.037-1.4c-.047-.46-.047-.919-.131-1.379A20.508,20.508,0,0,0,336.078,395a19.059,19.059,0,0,0-2.758-4.84,15.947,15.947,0,0,1,3.086,4.7,19.7,19.7,0,0,1,1.519,5.459c.075.469.066.938.1,1.416A10.2,10.2,0,0,1,338.057,403.151Z" transform="translate(-306.139 -380.913)"/><path d="M340.406,397.74a1.522,1.522,0,0,1-.009.206c-.019-.1-.038-.216-.056-.319a24.906,24.906,0,0,0-1.885-5.637,20.336,20.336,0,0,0-3.245-5,17.436,17.436,0,0,1,3.564,4.84,23.229,23.229,0,0,1,1.482,3.649v.028A15.934,15.934,0,0,1,340.406,397.74Z" transform="translate(-306.256 -380.716)"/><path d="M307.491,392.421a13.983,13.983,0,0,0-1.923,2.776,18.367,18.367,0,0,0-1.229,2.823c0-.478.019-.957.066-1.426a14.165,14.165,0,0,1,.854-1.576A9.9,9.9,0,0,1,307.491,392.421Z" transform="translate(-304.34 -381.053)"/><path d="M308.422,387.581c-.713.807-1.407,1.6-2.082,2.411a15.372,15.372,0,0,1,.825-1.435A14.047,14.047,0,0,1,308.422,387.581Z" transform="translate(-304.464 -380.753)"/><path d="M308.559,399.159q2.337.9,4.732,1.592a42.5,42.5,0,0,0,4.838,1.153,22.023,22.023,0,0,0,9.85-.122,14.864,14.864,0,0,1-4.914.984,25.853,25.853,0,0,1-5.019-.4,35.916,35.916,0,0,1-4.863-1.272A32.738,32.738,0,0,1,308.559,399.159Z" transform="translate(-304.602 -381.471)"/><path d="M308.559,403.507a40.417,40.417,0,0,0,4.807,1.577,36.387,36.387,0,0,0,4.949.95,28.662,28.662,0,0,0,5.025.237l1.26-.059,1.253-.151c.845-.053,1.655-.3,2.5-.42a20.866,20.866,0,0,1-4.99.99,25.791,25.791,0,0,1-5.1-.133,31.706,31.706,0,0,1-4.989-1.069A26.086,26.086,0,0,1,308.559,403.507Z" transform="translate(-304.602 -381.741)"/><path d="M308.989,407.266a30.006,30.006,0,0,0,4.573,1.708,28.048,28.048,0,0,0,4.764.959c.8.128,1.612.15,2.421.21.809-.009,1.621.022,2.429-.046a29.116,29.116,0,0,0,4.829-.7,20.434,20.434,0,0,1-4.8,1.058,22.03,22.03,0,0,1-4.934-.058,25.183,25.183,0,0,1-4.813-1.081A20.972,20.972,0,0,1,308.989,407.266Z" transform="translate(-304.629 -381.975)"/><path d="M309.747,410.1a30.765,30.765,0,0,0,4.308,1.607,27.234,27.234,0,0,0,4.479.923,21.684,21.684,0,0,0,4.56.146l1.142-.089,1.132-.184c.765-.081,1.49-.342,2.251-.486a17.12,17.12,0,0,1-4.493,1.118,19.836,19.836,0,0,1-4.651-.04,24.123,24.123,0,0,1-4.529-1.046A20.489,20.489,0,0,1,309.747,410.1Z" transform="translate(-304.676 -382.151)"/></g></g></g><g transform="translate(59.031 304.555)"><path class="h" d="M113.791,369.478s3.34-5.009,9.276-5.38,10.947,7.2,10.947,7.2H132.13s-4.795-5.159-8.228-5.159-6.771,4.267-6.771,4.267Z" transform="translate(-63.414 -364.085)"/><g transform="translate(0 41.754)"><path class="h" d="M60.08,411.844c2.059-3.425,25.063-1.2,30.259-3.242l2.783,4.826s-3.965,2.2-10.554,1.424-16.533-.987-19.131,1.3Z" transform="translate(-60.08 -408.602)"/><path class="l" d="M60.08,411.844c2.059-3.425,25.063-1.2,30.259-3.242l2.783,4.826s-3.965,2.2-10.554,1.424-16.533-.987-19.131,1.3Z" transform="translate(-60.08 -408.602)"/></g><path class="h" d="M158.284,398.936c-.188.816-.394,1.613-.628,2.392-1.848,6.387-4.765,11.555-6.866,12.353H91.147A5.373,5.373,0,0,1,86.9,411.6c-.009-.019-.028-.037-.047-.066a4.713,4.713,0,0,1-.553-.91c-4.118-8.6-8.273-25.8-2.429-33.644a13.033,13.033,0,0,1,2.1-2.214,2.049,2.049,0,0,1,.169-.131,17.57,17.57,0,0,1,4.071-2.486c.009,0,.009-.009.019-.009s.019-.009.028-.009c4.108-1.857,9.154-2.711,14.107-3.076,1.435-.113,2.861-.178,4.258-.206,3.658-.1,7.072-.009,9.792.066,9.586.244,17.127,3.1,22.267,2.6a15.425,15.425,0,0,1,5.665.45,15.982,15.982,0,0,1,1.557.525,25.14,25.14,0,0,1,6.453,3.967C160.151,381.106,160.235,390.663,158.284,398.936Z" transform="translate(-61.377 -364.378)"/><path class="m" d="M158.284,398.936c-.188.816-.394,1.613-.628,2.392-1.848,6.387-4.765,11.555-6.866,12.353H91.147A5.373,5.373,0,0,1,86.9,411.6c-.009-.019-.028-.037-.047-.066a4.713,4.713,0,0,1-.553-.91c-4.118-8.6-8.273-25.8-2.429-33.644a13.033,13.033,0,0,1,2.1-2.214,2.049,2.049,0,0,1,.169-.131,17.57,17.57,0,0,1,4.071-2.486c.009,0,.009-.009.019-.009s.019-.009.028-.009c4.108-1.857,9.154-2.711,14.107-3.076,1.435-.113,2.861-.178,4.258-.206,3.658-.1,7.072-.009,9.792.066,9.586.244,17.127,3.1,22.267,2.6a15.425,15.425,0,0,1,5.665.45,15.982,15.982,0,0,1,1.557.525,25.14,25.14,0,0,1,6.453,3.967C160.151,381.106,160.235,390.663,158.284,398.936Z" transform="translate(-61.377 -364.378)"/><g transform="translate(19.6 4.469)"><path class="n" d="M149.149,398.53c-4.268,0-12.8,2.035-25.418-.741a40.1,40.1,0,0,0-17.908-.136c-.135-1.9-.293-3.965-.457-6.233-1.116-15.241-9.811-21.638-15.11-19.106-.009,0-.019.009-.028.009s-.009.009-.019.009a23.462,23.462,0,0,0-4.071,2.486,2.05,2.05,0,0,0-.169.131,13.034,13.034,0,0,0-2.1,2.214C78.025,385,82.18,402.206,86.3,410.807a4.713,4.713,0,0,0,.553.91c.019.028.038.047.047.066a5.4,5.4,0,0,0,4.052,1.829h10.7c4.36,0,4.877-3.993,4.391-12.578.737-.425,1.644-.971,2.662-1.632,2.654-1.726,12.981-.872,17.436.8s16.142,2.411,21.8,1.491a37.779,37.779,0,0,1,9.717-.178c.234-.779.441-1.576.628-2.392C156.333,398.914,152.272,398.53,149.149,398.53Z" transform="translate(-80.977 -369.032)"/><path class="n" d="M111.922,376.822c2.6,9.464,4.38,12.8,5.065,13.731s19.575,3.17,23.12,3.161a68.641,68.641,0,0,0,12.231-1.2c2.41-.61,3.189-12.747-2.889-20.025a15.988,15.988,0,0,0-1.557-.525c3.311,7.428,3.386,16.526,2.992,17.793-.563,1.8-6.125,1.538-8.723,1.482s-18.74-1.06-20.409-1.716a8.563,8.563,0,0,1-3.892-3.236c-1.3-1.67-1.482-7.419-3.836-12.381a19.47,19.47,0,0,0-3.855-5.055c-1.4.028-2.823.094-4.258.206A12.371,12.371,0,0,1,111.922,376.822Z" transform="translate(-82.524 -368.85)"/></g><path class="h" d="M90.339,386.644l-5.2,1.3s-3.689,10.575-1.484,15.028-15.045,10.588-23.58,7.507l3.357,4.307s20.409-1.286,24.3-9.055-1.67-8.963-2.04-11.148S90.339,386.644,90.339,386.644Z" transform="translate(-60.08 -365.485)"/><path class="m" d="M90.339,386.644l-5.2,1.3s-3.689,10.575-1.484,15.028-15.045,10.588-23.58,7.507l3.357,4.307s20.409-1.286,24.3-9.055-1.67-8.963-2.04-11.148S90.339,386.644,90.339,386.644Z" transform="translate(-60.08 -365.485)"/></g><g transform="translate(68.745 97.218)"><g transform="translate(0)"><path class="o" d="M136.871,150.73S116.8,139.5,112.647,136.59s-26.38-24.718-27.627-25.341c0,0,.831-2.493-1.038-3.947s-9.14-6.232-10.178-6.232-3.74,10.178-3.323,12.671,10.593,3.116,10.593,3.116,21.188,24.67,24.511,28.122,25.965,18.2,25.965,18.2Z" transform="translate(-70.437 -98.923)"/><g transform="translate(44.836 42.514)"><path class="e" d="M148.076,155.458s4.4,8.888-6.284,22.988l-23.549-17.313,9.4-17.024Z" transform="translate(-118.24 -144.108)"/><path class="j" d="M141.792,178.448l-11.124-8.179-1.454-1.069-6.275-4.605-4.7-3.461,3.461-6.256,1.96-3.555,3.986-7.213,3.846,2.138,3.32,1.838,13.262,7.372a10.55,10.55,0,0,1,.8,3.236C149.295,162.475,148.657,169.378,141.792,178.448Z" transform="translate(-118.24 -144.108)"/><path class="n" d="M142.614,179.413l-11.124-8.179c3.817-7.9,13.694-10.683,18.205-11.574C150.117,163.44,149.48,170.343,142.614,179.413Z" transform="translate(-119.062 -145.073)"/><g class="p" transform="translate(3.461 2.14)"><path class="q" d="M135.69,148.228l-3.32,1.932V146.39Z" transform="translate(-122.578 -146.39)"/><path class="q" d="M127.82,152.963l-4.164,5.843-1.726-3.452,1.96-3.555Z" transform="translate(-121.93 -146.726)"/><path class="q" d="M130.979,162.41l-1.454,7.926-6.275-4.605Z" transform="translate(-122.012 -147.384)"/><path class="q" d="M134.56,157.553l2.319,5.934,4.814-6.542Z" transform="translate(-122.714 -147.045)"/></g></g><path class="o" d="M196.723,148.44s20.07-11.231,24.225-14.139,26.38-24.718,27.626-25.342c0,0-.831-2.492,1.039-3.946s9.139-6.232,10.178-6.232,3.739,10.178,3.323,12.671-10.594,3.116-10.594,3.116-21.187,24.67-24.511,28.122-25.965,18.2-25.965,18.2Z" transform="translate(-78.275 -98.781)"/><path class="o" d="M169.552,278.45s-.431,7.1-1.116,16.555c-.431,5.89-.966,12.69-1.548,19.265-.788,8.835-1.679,17.258-2.57,22.492-.816,4.812-11.649,64.567-11.649,64.567h-7.26c2.289-55.723,5.834-77.333,5.965-80.578.047-1.06.084-2.532.131-4.286.141-6.359.263-16.4.338-23.711.056-5.271.084-9.107.084-9.107Z" transform="translate(-75.09 -151.432)"/><path class="o" d="M199.784,323.661c-.253,4.868-3.151,77.548-3.151,77.548H188.65c-4.08-57.889-2.532-77.989-3.264-82,0-.019-.009-.028-.009-.047-1.247-6.828-2.42-15.8-3.227-22.464-.647-5.356-1.05-9.211-1.05-9.211l16.273-7.034s.985,8.4,1.726,18.552c.366,5.065.685,10.571.778,15.692C199.943,317.9,199.924,320.959,199.784,323.661Z" transform="translate(-77.305 -151.556)"/><path class="n" d="M152.248,293.7l16.592,2.251c-.431,5.89-.966,12.69-1.548,19.265l-15.382,2.195C152.051,311.052,152.173,301.007,152.248,293.7Z" transform="translate(-75.494 -138.525)"/><path class="n" d="M199.947,315.769l-14.5,4.465c-1.247-6.828-2.42-15.8-3.226-22.464l16.948,2.307C199.534,305.142,199.853,310.648,199.947,315.769Z" transform="translate(-77.375 -139.228)"/><path class="e" d="M154.2,407.083h-9.575a.69.69,0,0,0-.672.541l-1.554,7.019a1.164,1.164,0,0,0,1.153,1.4c3.1-.05,5.355-.241,9.244-.241,2.4,0,9.626.251,12.935.251s3.74-3.269,2.386-3.57c-6.076-1.323-10.648-3.158-12.594-4.9A1.9,1.9,0,0,0,154.2,407.083Z" transform="translate(-74.902 -159.416)"/><path class="e" d="M197.492,406.816h-9.575a.691.691,0,0,0-.672.541l-1.554,7.019a1.163,1.163,0,0,0,.9,1.379,1.183,1.183,0,0,0,.256.025c3.1-.051,5.355-.241,9.245-.241,2.4,0,9.625.25,12.934.25s3.74-3.269,2.386-3.569c-6.076-1.323-10.648-3.159-12.594-4.9A1.9,1.9,0,0,0,197.492,406.816Z" transform="translate(-77.589 -159.399)"/><path class="h" d="M170.356,307.336c.076-.64.153-1.311.23-2.056.973-9.606,1.965-21.135,2.848-32.243,3.241,8.711,4.638,20.951,6.323,34.3h19.7a577.893,577.893,0,0,0-8.169-74.632H149.459c-.051,4.294-.529,45.959-1.6,74.632Z" transform="translate(-75.242 -130.416)"/><path class="g" d="M170.356,307.336c.076-.64.153-1.311.23-2.056.973-9.606,1.965-21.135,2.848-32.243,3.241,8.711,4.638,20.951,6.323,34.3h19.7a577.893,577.893,0,0,0-8.169-74.632H149.459c-.051,4.294-.529,45.959-1.6,74.632Z" transform="translate(-75.242 -130.416)"/><g transform="translate(75.253 14.766)"><path class="o" d="M176.528,140a11.249,11.249,0,0,1-.34,1.115,10.934,10.934,0,0,1-3.9,5.2,11.06,11.06,0,0,1-1.427.882,9.878,9.878,0,0,1-11.8-1.877c-3.95-3.989-3.845-8.593-4.289-16.389a10.69,10.69,0,0,1,14.751-10.662C177.17,121.383,178.219,132.983,176.528,140Z" transform="translate(-150.923 -114.706)"/><path class="n" d="M172.79,148.122a11.058,11.058,0,0,1-1.427.882,9.936,9.936,0,0,1-8.54.378,11.656,11.656,0,0,1,1.393-2.646A15.392,15.392,0,0,1,172.79,148.122Z" transform="translate(-151.424 -116.516)"/><path class="o" d="M156.723,157.661c3.84,3.489,13.248,2.2,13.248,2.2s5.872-1.608,4.639-3.443c-3.459-.571-5.134-2.185-5.826-4.251a10.042,10.042,0,0,1-.351-3.951,20.653,20.653,0,0,1,.291-2.206L157.093,137.4C158.618,143.083,160.482,153.54,156.723,157.661Z" transform="translate(-151.046 -115.944)"/><path class="h" d="M172.035,132.721l1.682.636-.841-3.438s2.465-3.7,0-7.007c0,0,6.793-2.063,2.956-5.649-1.428-1.335-3.2,0-7.883-2.044-2.543-1.109-10.5-1.195-10.892,2.044,0,0-5.728-.037-6.346,9.748a19.518,19.518,0,0,0,6.067,15.418s6.916,1.639,10.275-1.138S172.035,132.721,172.035,132.721Z" transform="translate(-150.67 -114.524)"/><path class="o" d="M168.715,134.183a5.052,5.052,0,0,0,2.594,3.464c1.588.673,2.63-1.564,2.4-3.907-.218-2.077-1.293-5-2.992-4.615S168.162,132.087,168.715,134.183Z" transform="translate(-151.78 -115.428)"/></g><path class="n" d="M174.19,274.3c-.883,11.11-1.875,22.66-2.848,32.266-1.424-13.866-3.168-23.753-3.168-23.753s-1.635-1.343-6.127-8.513,0-20.554,0-20.554C161.907,266.175,174.19,274.3,174.19,274.3Z" transform="translate(-75.999 -132.986)"/><path class="e" d="M202.94,310.537l-.866,3.259H181.1v-3.008Z" transform="translate(-77.305 -139.875)"/><path class="e" d="M171.226,311.02l-.627,3.008h-23.75l-1.436-3.008Z" transform="translate(-75.09 -139.945)"/><g transform="translate(77.787 48.421)"><path class="e" d="M174.641,156.208s-3.411-5.4-12.017-5.783-9.253,5.538-9.253,5.538Z" transform="translate(-153.371 -150.407)"/><path class="r" d="M174.641,156.208s-3.411-5.4-12.017-5.783-9.253,5.538-9.253,5.538Z" transform="translate(-153.371 -150.407)"/></g><path class="e" d="M143.062,153.038a442.3,442.3,0,0,1-.9,87.729l50.4-3.074c-.571-51.436-7.458-83.826-7.458-83.826s-13,2.725-23.562,2.331A75.807,75.807,0,0,1,143.062,153.038Z" transform="translate(-74.889 -112.186)"/><g transform="translate(30.088 41.621)"><path class="e" d="M182.642,153.867s6.73,15.735,7.458,31.667-27.357,37.772-27.357,37.772-21.637-14.893-38.334-13.544-21.892,7.288-21.892,7.288,12.988-27.768,35.593-37.45c0,0-4.692-15.992,2.492-26.562C140.6,153.038,156.226,158.12,182.642,153.867Z" transform="translate(-102.516 -153.038)"/><path class="j" d="M190.1,185.53a13.016,13.016,0,0,1-.009,1.351,15.827,15.827,0,0,1-.253,2.073,22.448,22.448,0,0,1-1.435,4.727v.009a51.664,51.664,0,0,1-7.766,12.2c-1.594,1.951-3.283,3.827-4.952,5.571a131.84,131.84,0,0,1-12.934,11.846,103.1,103.1,0,0,0-18.036-9.52c-1.923-.769-3.921-1.491-5.956-2.1h-.009a39.734,39.734,0,0,0-14.332-1.923A54.824,54.824,0,0,0,110.8,212.43c-.76.263-1.463.544-2.11.816-.2.084-.394.169-.582.253a23,23,0,0,0-4.014,2.242c-.141.094-.272.2-.394.291-.244.178-.441.338-.61.488a2.414,2.414,0,0,0-.225.2,1.244,1.244,0,0,0-.159.15l-.113.113-.066.066c.019-.047.113-.244.281-.582.075-.141.159-.319.263-.516.263-.525.628-1.229,1.107-2.082.066-.122.131-.244.206-.375q.169-.31.366-.647c.122-.225.253-.46.394-.694.544-.957,1.182-2.026,1.9-3.18a95.184,95.184,0,0,1,13.6-17.2l.009-.009a65.98,65.98,0,0,1,5.853-5.168,52.292,52.292,0,0,1,11.593-6.988,45.253,45.253,0,0,1-1.482-12.54,32.762,32.762,0,0,1,.328-4.005A23.627,23.627,0,0,1,140.6,153.04a48.629,48.629,0,0,0,7.035,1.491,91.225,91.225,0,0,0,9.408.91,118.636,118.636,0,0,0,18.927-.666q3.208-.352,6.669-.91s.075.178.216.525a110.7,110.7,0,0,1,3.855,11.452c.413,1.491.825,3.086,1.219,4.755.356,1.548.694,3.161.994,4.821v.009A78.462,78.462,0,0,1,190.1,185.53Z" transform="translate(-102.517 -153.038)"/><g class="k" transform="translate(0.004 0.827)"><path class="q" d="M188.037,201.31l-2.964,7.579c-1.594,1.951-3.283,3.827-4.952,5.571l-6.031-11.293Z" transform="translate(-106.962 -156.861)"/><path class="q" d="M133.772,193.293l-11.912.685a65.98,65.98,0,0,1,5.853-5.168Z" transform="translate(-103.72 -156.085)"/><path class="q" d="M148.569,161.6l-1.276,12.381-8.413-6.387a32.762,32.762,0,0,1,.328-4Z" transform="translate(-104.777 -154.397)"/><path class="q" d="M153.113,195.444l-3.9-11.886,11.859-2.2Z" transform="translate(-105.418 -155.623)"/><path class="q" d="M175.126,184.3V193.2l8.519-3.061Z" transform="translate(-107.026 -155.805)"/><path class="q" d="M150.91,211.569l-4.005,5.646c-1.923-.769-3.921-1.491-5.956-2.1h-.009l-3.02-6.884Z" transform="translate(-104.717 -157.291)"/><path class="q" d="M119.33,202.692l6.122,2.6-6.122,4.174Z" transform="translate(-103.563 -156.947)"/><path class="q" d="M110.8,216.131c-6.1,2.129-8.282,4.624-8.282,4.624a84.535,84.535,0,0,1,4.53-8.085Z" transform="translate(-102.52 -157.566)"/><path class="q" d="M164.361,204.077l-5.273,5.473,7.973,1.391Z" transform="translate(-106.031 -157.033)"/><path class="q" d="M164.71,167.41l6.2,8.349,4.438-9.462Z" transform="translate(-106.38 -154.688)"/><path class="q" d="M194.116,176.266l-7.926-5.215,5.712-4.361C192.709,169.579,193.5,172.833,194.116,176.266Z" transform="translate(-107.713 -154.713)"/><path class="q" d="M195.549,189.029a20.607,20.607,0,0,1-1.688,6.8l-3.32-8.169Z" transform="translate(-107.983 -156.014)"/><path class="q" d="M187.714,154.445l-5.018,5.149-1.867-4.765q3.208-.352,6.669-.91S187.574,154.1,187.714,154.445Z" transform="translate(-107.38 -153.92)"/><path class="q" d="M160.027,155.54l-3.686,7.8-5.721-8.713A91.221,91.221,0,0,0,160.027,155.54Z" transform="translate(-105.505 -153.964)"/></g><path class="n" d="M195.531,186.594a13.008,13.008,0,0,1-.009,1.351,15.825,15.825,0,0,1-.253,2.073c-6.547-10.411-5.009-19.828-5.009-19.828l3.1,1.473c.356,1.548.694,3.161.994,4.821v.009A78.455,78.455,0,0,1,195.531,186.594Z" transform="translate(-107.952 -154.103)"/></g><g transform="translate(68.55 9.523)"><path class="e" d="M166.038,109.684c11.131-3.834,13.927,10.994,2.87,21.019s-23.754,11.224-25.2,6.173S149.048,115.537,166.038,109.684Z" transform="translate(-143.523 -108.942)"/><path class="e" d="M155.055,108.934c5.712-.023,13.829,5.813,13.829,5.813s1.159,6.184-4.529,11.627-10.813,6.308-14,4.2-4.055-10.3-4.055-10.3a6.3,6.3,0,0,1,4.055-4.176S151.29,108.949,155.055,108.934Z" transform="translate(-143.695 -108.934)"/><path class="n" d="M164.355,126.394c-5.693,5.44-10.814,6.3-14,4.2a5.08,5.08,0,0,1-1.388-1.463c-2.063-3.1-2.664-8.835-2.664-8.835,5.44,6.528,11.743-.216,12.615-4.793a7.243,7.243,0,0,0-1.454-6.275c3.742.807,7.86,3.208,9.98,4.568.9.572,1.444.966,1.444.966S170.048,120.954,164.355,126.394Z" transform="translate(-143.695 -108.952)"/><path class="j" d="M164.531,126.7c-5.693,5.44-10.814,6.3-14,4.2a5.08,5.08,0,0,1-1.388-1.463c5.7,1.7,12.493-1.126,16.142-6.2a12.564,12.564,0,0,0,2.335-9.135c.9.572,1.444.966,1.444.966S170.225,121.256,164.531,126.7Z" transform="translate(-143.871 -109.255)"/></g><g transform="translate(109.309 40.367)"><path class="e" d="M187.881,153.169s-4.4,8.888,6.284,22.988l23.549-17.313-9.4-17.024Z" transform="translate(-186.98 -141.819)"/><path class="j" d="M217.716,158.843l-6.143,4.511-9.089,6.687-8.319,6.115c-.544-.713-1.041-1.416-1.51-2.1a40.624,40.624,0,0,1-2.589-4.352,25.253,25.253,0,0,1-3.086-11.33,12.451,12.451,0,0,1,.9-5.206l5.234-2.908,9.014-5,3.958-2.2,2.232-1.238Z" transform="translate(-186.98 -141.819)"/><g class="p" transform="translate(0 1.239)"><path class="q" d="M212.334,164.633l-9.089,6.687-4-8.91Z" transform="translate(-187.741 -144.336)"/><path class="q" d="M211.731,149.105l-8.385,3.32-.216-7.081,3.958-2.2Z" transform="translate(-187.982 -143.14)"/><path class="q" d="M196.115,156.56l-9.135,2.373a12.451,12.451,0,0,1,.9-5.206l5.234-2.908Z" transform="translate(-186.98 -143.617)"/><path class="q" d="M194.369,169.07l-1.51,6.678a40.62,40.62,0,0,1-2.589-4.352Z" transform="translate(-187.184 -144.749)"/></g></g></g></g><g transform="translate(193.625 203.531)"><g transform="translate(0 0)"><rect class="s" width="11.756" height="58.443" transform="translate(23.177 62.482) rotate(-175.521)"/><g transform="translate(10.369 142.573)"><path class="h" d="M245.5,408.541l1.863.146a3.736,3.736,0,1,1-.583,7.447l-1.863-.146a3.736,3.736,0,1,1,.583-7.447Z" transform="translate(-241.402 -408.392)"/><path class="m" d="M241.42,411.89a3.8,3.8,0,1,0,4.089-3.495A3.8,3.8,0,0,0,241.42,411.89Z" transform="translate(-241.403 -408.383)"/></g><g transform="translate(0.13 141.771)"><path class="h" d="M234.581,407.686l1.863.145a3.736,3.736,0,1,1-.583,7.447L234,415.133a3.736,3.736,0,1,1,.583-7.447Z" transform="translate(-230.485 -407.537)"/><path class="g" d="M230.5,411.035a3.8,3.8,0,1,0,4.089-3.495A3.8,3.8,0,0,0,230.5,411.035Z" transform="translate(-230.486 -407.528)"/></g><rect class="h" width="19.604" height="93.521" rx="2.694" transform="matrix(-0.997, -0.078, 0.078, -0.997, 19.544, 144.378)"/><rect class="g" width="12.345" height="93.521" rx="2.694" transform="translate(19.544 144.379) rotate(-175.521)"/><rect class="h" width="15.991" height="4.902" rx="2" transform="matrix(-0.997, -0.078, 0.078, -0.997, 29.815, 6.136)"/><rect class="g" width="15.991" height="4.902" rx="2" transform="matrix(-0.997, -0.078, 0.078, -0.997, 29.815, 6.136)"/><rect class="n" width="4.778" height="4.902" rx="2" transform="translate(18.637 5.26) rotate(-175.526)"/><path class="e" d="M284.594,320.111l-6.243,79.69a5.33,5.33,0,0,1-5.723,4.892l-29.115-2.28a3.744,3.744,0,0,1-3.428-4.023l6.49-82.843a3.736,3.736,0,0,1,4.013-3.44l29.115,2.281A5.331,5.331,0,0,1,284.594,320.111Z" transform="translate(-230.951 -259.834)"/><path class="g" d="M284.594,320.111l-6.243,79.69a5.33,5.33,0,0,1-5.723,4.892l-29.115-2.28a3.744,3.744,0,0,1-3.428-4.023l6.49-82.843a3.736,3.736,0,0,1,4.013-3.44l29.115,2.281A5.331,5.331,0,0,1,284.594,320.111Z" transform="translate(-230.951 -259.834)"/><path class="n" d="M264.6,313.207l-.009.113-1.041-.084a3.745,3.745,0,0,0-4.014,3.442l-6.491,82.857a3.741,3.741,0,0,0,2.561,3.827l-12.09-.947a3.75,3.75,0,0,1-3.433-4.014l6.491-82.848a3.738,3.738,0,0,1,4.014-3.442Z" transform="translate(-230.95 -259.834)"/><rect class="n" width="2.475" height="83.523" rx="1.088" transform="translate(31.954 56.165) rotate(4.48)"/><rect class="n" width="2.475" height="83.523" rx="1.088" transform="translate(37.772 57.028) rotate(4.48)"/><rect class="n" width="2.475" height="83.523" rx="1.088" transform="translate(43.592 57.368) rotate(4.481)"/><rect class="n" width="2.475" height="83.523" rx="1.088" transform="translate(49.41 57.708) rotate(4.48)"/></g></g></g></svg>