<svg version="1.1" id="Layer_2" xmlns="http://www.w3.org/2000/svg" xmlns:xlink="http://www.w3.org/1999/xlink" x="0" y="0" viewBox="0 0 1000 500" xml:space="preserve"><style>.st1{fill:#d9ccc5}.st2{fill:#cfb897}.st3{fill:#f4e9e3}.st4{fill:#eba3a3}.st6{fill:#fff}.st8{fill:#593524}.st9{fill:#ccc5a9}.st10{fill:#c26e40}.st12{fill:#d9cfca}.st15{fill:#fcd228}.st17{fill:#fff2bf}</style><path transform="rotate(-90 500 250)" fill="#5d5d5d" d="M250-250h500V750H250z"/><path class="st1" d="M92.1 195.1c-1.1 1-2.9 7.4-2.7 9.8 5-1.9 7.8-6.5 7.8-6.5-2.5-2.7-5.1-3.3-5.1-3.3zM138.5 198c.6 1.4 5.8 5.4 8.2 6.1 0-5.3-3.2-9.6-3.2-9.6-3.5 1.3-5 3.5-5 3.5zM160.5 167c1.3.8 7.9 1.1 10.2.2-3.1-4.3-8.2-6-8.2-6-2 3.1-2 5.8-2 5.8zM74.3 162.4c-2.9 1.9-6.6 7.9-6.6 7.9 6.1-.4 10.4-3.1 10.4-3.1-2.2-5.2-3.8-4.8-3.8-4.8z"/><path class="st2" d="M153.3 144.4c6 2.5 10.2 8.5 10.2 15.4 0 8.8-6.9 16.1-15.6 16.6.9 2 1.3 4.2 1.3 6.6 0 9.3-7.5 16.8-16.8 16.8-5.8 0-10.9-2.9-14-7.4-3.2 4.7-8.7 7.8-14.8 7.8-9.9 0-18-8.1-18-18 0-2.8.6-5.4 1.7-7.7-7.9-.8-14.1-7.5-14.1-15.6 0-6.7 4.2-12.4 10.1-14.7 4.9-3.9 4-6 1.9-21.5-3.5-26-10.7-86.1-12-122.6h80.4c-2.8 71.3-12.8 134.8-12.2 139.5.5 3.4 5.3 1.5 11.9 4.8z"/><path class="st3" d="M153.3 144.4c6 2.5 10.2 8.5 10.2 15.4 0 8.8-6.9 16.1-15.6 16.6.9 2 1.3 4.2 1.3 6.6 0 9.3-7.5 16.8-16.8 16.8-5.8 0-10.9-2.9-14-7.4-3.2 4.7-8.7 7.8-14.8 7.8-9.9 0-18-8.1-18-18 0-2.8.6-5.4 1.7-7.7-7.9-.8-14.1-7.5-14.1-15.6 0-6.7 4.2-12.4 10.1-14.7 4.9-3.9 4-6 1.9-21.5-1-7.2-2.2-16.9-3.6-28 22.9-10.8 50.7-5.7 64.8-1.8-2.9 26.5-5.3 44.3-5 46.7.5 3.4 5.3 1.5 11.9 4.8z"/><path class="st4" d="M115.3 168.5c9.7 0 18.1-15.1 14.2-18.7-5.8-5.4-8 .4-13.5.4s-9.4-5.3-14.3-1.4c-5.1 4.1 4.3 19.7 13.6 19.7zM91.1 160.2c0-1.8-1.5-3.2-3.2-3.2-1.8 0-3.2 1.5-3.2 3.2s1.5 3.2 3.2 3.2c1.7 0 3.2-1.5 3.2-3.2zM108.1 180.1c0-1.8-1.5-3.2-3.2-3.2-1.8 0-3.2 1.5-3.2 3.2 0 1.8 1.5 3.2 3.2 3.2 1.7 0 3.2-1.4 3.2-3.2zM135.1 179.5c0-1.8-1.5-3.2-3.2-3.2-1.8 0-3.2 1.5-3.2 3.2 0 1.8 1.5 3.2 3.2 3.2 1.7 0 3.2-1.4 3.2-3.2zM149.5 157.9c0-1.8-1.5-3.2-3.2-3.2s-3.2 1.5-3.2 3.2 1.5 3.2 3.2 3.2 3.2-1.4 3.2-3.2z"/><path d="M114.7 130.9c-2.9 0-5.8.4-8.4 1.3-.6.2-.9.8-.7 1.4.2.6.8.9 1.4.7 4.6-1.5 10.7-1.5 15.4 0 .6.2 1.2-.1 1.4-.7.2-.6-.1-1.2-.7-1.4-2.6-.9-5.5-1.3-8.4-1.3z" fill="#e6debe"/><g><path class="st3" d="M532.8 500c-5-6.4-.8-10.8 1.5-23.2 2.3-12.4-3.6-14.8 1.5-25.3 6.4-13.2-2.9-19.7 2-27.9 5.3-8.9-2.3-7.1 2.3-16.6 4.6-9.6-3.4-12.5-1.6-20.5 1.8-8-6.1-13-3-19 3-6.1-7.2-10.6-4.4-19 2.8-8.3-3.8-17.6.8-19.9 7.4-3.9 3.4-12.5 6.6-12.2 5.2.6 10.1 3 9.8-.9-.3-3.9-.8-3.7 3.4-5.7s-2.2-8 3.6-6.5c5.8 1.4 4.5-4.3 7.9-.9 3.4 3.4.3-3.2 5 1.5 7.9 8 4.5-3.3 8.6-3.2 5 .1 4.7-5 7.7-2.1 2.6 2.5 5.7-2.1 6.9 1.4 1.2 3.5 3.2.5 4.1 5.8.9 5.3 1.7 1.5 1.9 6.7.1 4.1 3.8-4.8 7.9-.2 4.1 4.6 9.8-.8 9.3 5.5s8.8 10.3 5.8 16.5 3.8 8.9.5 13.6c-3.3 4.6 4 8.6-1.1 13.2-5 4.6 2.9 6.9-1.9 11.9-4.9 5 1 9.8-3.3 13.8-4.3 3.9 1.5 10.6-2.6 13.6s4.7 6 .5 12 2 14-.9 16.8c-2.9 2.8 3.5 8.7.6 13.6s4.5 9.5 1.1 13.1c-3.3 3.6 3.3 6.9 1 10.6-2.3 3.7 2.9 8.7.9 12.4-1.9 3.7-1.1 7.1.7 8.8 1.8 1.8-2 4.8-.2 8s-1.3 4.3-1.3 4.3h-81.6z"/><path class="st4" d="M575.6 346.8c-6.3 0-5.8 4.5-11 8.6-4.9 3.9-4 8.8-.6 10.7 4.8 2.7 8.9-1.6 11.8-1.6 2.8 0 7.9 5.3 12.5 1 4.7-4.4 0-8.9-2.7-11.3-3.1-2.7-3.9-7.4-10-7.4zM544.4 331.8c-4.5 1.8.9 14.5 4.6 13.1 3.7-1.4 3-16.1-4.6-13.1zM564.2 319.7c-5.7.9-2.1 14.4 2.4 13.9 4.4-.5 4-15-2.4-13.9zM586.9 318.2c-4.7-.7-5.6 12.6-1.5 13.8s6.3-13.1 1.5-13.8zM606.3 330.5c-4.5-2.6-8.4 7.4-5.6 9.9 2.5 2.1 9.4-7.7 5.6-9.9z"/></g><g><path class="st6" d="M765.9 304.9c1.1-1 2.9-7.4 2.7-9.8-5 1.9-7.8 6.5-7.8 6.5 2.5 2.7 5.1 3.3 5.1 3.3zM719.5 302c-.6-1.4-5.8-5.4-8.2-6.1 0 5.3 3.2 9.6 3.2 9.6 3.5-1.3 5-3.5 5-3.5zM697.5 333c-1.3-.8-7.9-1.1-10.2-.2 3.1 4.3 8.2 6 8.2 6 2-3.1 2-5.8 2-5.8zM783.7 337.6c2.9-1.9 6.6-7.9 6.6-7.9-6.1.4-10.4 3.1-10.4 3.1 2.2 5.2 3.8 4.8 3.8 4.8z"/><defs><path id="SVGID_1_" d="M704.7 355.6c-6-2.5-10.2-8.5-10.2-15.4 0-8.8 6.9-16.1 15.6-16.6-.9-2-1.3-4.2-1.3-6.6 0-9.3 7.5-16.8 16.8-16.8 5.8 0 10.9 2.9 14 7.4 3.2-4.7 8.7-7.8 14.8-7.8 9.9 0 18 8.1 18 18 0 2.8-.6 5.4-1.7 7.7 7.9.8 14.1 7.5 14.1 15.6 0 6.7-4.2 12.4-10.1 14.7-.9.7-1.6 1.4-2.2 2.1-5.7 6.6-3.3 13.5-2.3 10 2.3 6.2-.8 20.4 2.7 12.6.8 2.4 2 9 1.2 16.8-1 9.4.9 10.2 2.2 7 3.8 9.6 1.2 14.4 2.3 19.5 0 0 .8-.8 1.2-2.3.7 5.9-1.5 15.1-.8 21.1 0 0 1.6-.4 1.8-3.7 2.9 11.1-.8 18.1.8 22.4 0 0 1.1-.2 1.4-3.4 2.5 6.9-1.3 11.5-.2 21.1 0 0 .9-.5 1.9-4.7.7 8.9-2.2 13.5-2 25.4h-78.3s-3.9-8.7-1.8-18.4c0 0-.2 3.4 1.4 5.2 0 0 .2-4.4-.2-8.4s-2.4-10.1.1-16.4c0 0-.1 3.3.9 4.9 0 0 .7-2.4.4-6.1s-1.6-8.8-.1-12.7c0 0 .4 2.7 1.1 3.1 0 0 .7-1.5.5-5.4-.3-3.9-1.4-8.5-.6-11.2 0 0 .6 1.7 1.4 1.1.8-.6-1.6-7.8 0-12.1-.1 1 .7 3 1.3 3 .3-.1.5-5.2.1-8.1s-.8-7 .3-11.1c0 0 .1 3.2 1.2 2.4.7-3.1-1.4-11.7 0-15.8 0 0 .7 2.3 1.5 2.2 0-.5-1.1-6.2 0-10.7 1.2 2.7 3.3-2.1 1.2-9 2.5.7.9-3.5-.8-10.9 4.2-1.3-1-6.4-7.6-9.7z"/></defs><use xlink:href="#SVGID_1_" overflow="visible" fill="#fcd228"/><clipPath id="SVGID_2_"><use xlink:href="#SVGID_1_" overflow="visible"/></clipPath><g clip-path="url(#SVGID_2_)"><path class="st8" d="M763.7 418.9c.2.3.4.6.7.9.5-.6 1.2-.9 2.1-.9.8-1.2 2.4-2 3.8-1 2.7 2 3.2 5.3 1 7.9-.4.5-1 .8-1.7.8-.6 1.4-2.2 2.1-3.6 1.5-.1.1-.3.2-.4.3-1.4.8-3 .2-3.8-1-1.4-2-2.4-4.1-3-6.4-1.2-3.1 3.2-4.7 4.9-2.1zM759 386.3c.5.4 1 .7 1.5 1.2 1.1.2 2.1.9 2.2 2 .1.5.1.8.3 1.1.1.1.2.3.2.4.9 1.8-.1 3.4-1.5 4 .6 2.1-.2 4.2-1.5 5.8-2.3 2.8-6.3-1.2-4-4 .1-.1.1-.6-.1-.7-1-.7-1.9-1.4-2.4-2.5-1.1-2.5.3-4.9 1.9-6.9.7-.9 2.4-1.1 3.4-.4zM739.7 407.1s-.1.1-.1.2c-.2.3-.3.7-.5 1-.5 1.1-1.5 1.8-2.6 2.2-3.1 1-5-2.6-6.3-4.7-2-3.1 2.9-5.9 4.8-2.8.1.2.2.4.4.6.3-.4.7-.8 1.2-1.1 1.3-.8 3.1-.3 3.8 1 .7 1.2.3 2.7-.7 3.6zM727.6 434c.1.1.1.2.2.4 1.2.6 2.2 1.5 3 2.7.7 1.1 1.3 2.3 1 3.6-.3 1.5-1.6 2.6-3.1 2.7-1.9 0-3.1-1.2-3.9-2.7-1 1.5-3.5 1.9-4.7-.1-.7-1.1-1.4-2.2-2.2-3.3-.4-.5-1.4-2.3-2.1-3-1 .2-2.2.2-2.9-.7-1-1.2-1.4-2.6-1.4-4.2-.1-1.9.2-3 1.8-4 .2-.6.3-1.2.5-1.9.3-1.4 1.9-2.3 3.3-2 1.2-1.4 2.9-2.3 4.7-2.4.5 0 .9.1 1.3.3.5-.3 1-.5 1.6-.5 1.2-.2 2.6.1 3.2 1.3 1.3 2.9 2.6 5.7 3.9 8.6.9 2.6-1.4 5.6-4.2 5.2zM778.9 455c-1.5 1.3-3.3.7-4.3-.5-1 .5-2.1.4-3-.6-.4-.5-.9-1.1-1.3-1.6-1.1 0-2.2-.6-2.7-1.9-.4-1.1-.8-2.2-1.3-3.3-.9-2.3 2.2-4.4 4.1-3.2 0-.2-.1-.3-.1-.5-.2-1.5.4-3 2-3.5 1.3-.4 3.2.4 3.5 2 0 .2.1.4.1.7.5.1 1 .3 1.5.7.5.4 1.3.5 1.9.6 1.1.3 2.1.7 3 1.3 1.2.8 2.1 2 2.9 3.3 2 .4 3.3 3.2 1.5 4.8-.3.3-.6.5-.9.8 0 0-.1 0-.1.1-.1.2-.2.3-.4.5-.7.7-1.6 1.3-2.6 1.3-1.3 0-2.5-.5-3.6-1.1 0-.1-.1 0-.2.1zM769.8 488.1c.5-.3 1.1-.5 1.8-.7.1-.4.2-.7.3-1.1.6-2.1 3.1-2.6 4.7-1.2 1.8 1.5 2.9 3.5 3.5 5.8.4 1.7-.7 3-2 3.4 0 .2 0 .4-.1.5.1 0 .2.1.3.2.3-.1.6-.1.9-.1 2.8 0 3.4 3.4 1.9 4.9-.5 1.1-1.8 2-3.1 1.7l-.3.9c-1.7 3-5 4.3-8.3 3.8-.9-.1-1.7-1.1-2-2-.4-1.3.3-2.4 1.3-3.2-.3.2 0-.1.2-.2 0 0 .1-.2.2-.3-1 .4-2.1.5-3.2.6-1.5.1-2.9-1.4-2.8-2.8.3-4.4 2.8-8.3 6.7-10.2zM717.1 494c.3-.3.7-.6 1.2-.7.4-.1.9-.2 1.3-.3.2-1.2 1.1-2.2 2.6-2.1h.2c.6-.8 1.3-1.7 1.9-2.5 2.2-2.8 6.2-.6 4.9 2.7 1.4.1 2.6 1.1 2.7 2.6.3.1.6.4.9.6 1.6.1 3.1.6 3.9 2.1 1.4 2.5-.1 5.3-2.2 6.8-1.2.9-3 1-4.4 1-.9 0-2.5-.3-3.2.4-2 1.8-4.8 0-4.9-2-.4-.1-.7-.2-1-.3-.1 0-.1-.1-.2-.1-.3 0-.5-.1-.8-.3-1.9-1-3.8-1.9-5.7-2.9-3-1.6-.3-6.3 2.8-5zM764.6 462.6c.7-.6 1.5-.9 2.6-.6 2.2.6 6 1 6.8 3.7.5 1.7-.6 3.3-2.1 3.9-1.6.6-2.8-.5-3.9-1.4-.8 1.1-2.2 1.5-3.6.8-1.1-.5-1.8-1.2-2.4-2.2-.9-1.2-.2-3.1 1-3.8.4-.4 1-.5 1.6-.4zM749 441.3c0 .1 0 .1-.1.2V441.8c.4 1.5-.5 3-2 3.5-1.5.4-3.1-.5-3.5-2-.5-1.7-.2-3.8.9-5.2.9-1.2 2.4-1.8 3.8-1 1.2.7 1.9 2.6 1 3.8 0 .1-.1.2-.1.4zM722.9 389c-1.5 0-2.8-1.3-2.8-2.8v-.7c0-1.5 1.3-2.8 2.8-2.8s2.8 1.3 2.8 2.8v.7c0 1.6-1.2 2.8-2.8 2.8zM715.5 455.2c-1.9 1.1-4 .5-5.5-.9-.7-.6-1-1.5-1.4-2.3-.7.2-1.4.1-2.1-.3-1.2-.7-1.9-2.6-1-3.8.5-.8 1.2-1.3 1.9-1.6-.1-.8.2-1.5.8-2.2 1-1 3-1.2 4 0 1.4 1.6 2.9 3.2 4.1 4.9 1.3 1.9 1.4 4.9-.8 6.2zM735.6 481.2c-.3-.9-.7-1.8-1-2.7-.1-.3-.2-.5-.2-.8-.8-.2-1.4-.8-1.6-1.9-.3-2.2-.5-4.2.7-6.2.2-.3.4-.6.7-.9-.2-1.5-.3-2.9-.3-4.4.1-2.9 3.7-3.5 5.1-1.7.6-.3 1.3-.4 2-.2 1.4.4 2.4 2 2 3.5-.1.3-.2.7-.4 1 2.1-.3 4.4.8 5.3 3.2.1.4.2.8.1 1.2 1.5 1.3 2.6 3.1 3 5.1.2 1.2-.3 2.3-1.1 3 .6 2.1.7 4.4-1.3 5.8-2.2 1.5-5.4.8-7.7-.1-.9-.3-1.5-1-1.8-1.8-1.5.1-2.9-.7-3.5-2.1zM699.6 484.3c0-.8.4-1.7 1.4-2.2.8-.4.6-1.8.6-2.6 0-.5 0-1 .1-1.5-.5-2.4-.8-4.8-1-7.3-.1-1.8 1.2-2.7 2.6-2.7.3-3.2 5.4-3 5.6.5.1 1.8.7 3.4 1.6 5 .4.6.5 1.3.3 2 1.1-.5 2.3-.5 3.2.5 1 1 1.2 3 0 4-.2.2-.5.4-.7.5.2 1.7.1 3.4-.5 5.1-.5 1.4-1.7 2.1-2.9 2l-.1.1c-2.5 2.9-6.3 2.6-9.6 1.7-2.4-.8-2.3-3.9-.6-5.1z"/></g><path class="st8" d="M742.7 331.5c-9.7 0-18.1 15.1-14.2 18.7 5.8 5.4 8-.4 13.5-.4s9.4 5.3 14.3 1.4c5.1-4.1-4.3-19.7-13.6-19.7zM766.9 339.8c0 1.8 1.5 3.2 3.2 3.2 1.8 0 3.2-1.5 3.2-3.2s-1.5-3.2-3.2-3.2c-1.7 0-3.2 1.5-3.2 3.2zM749.9 319.9c0 1.8 1.5 3.2 3.2 3.2s3.2-1.5 3.2-3.2c0-1.8-1.5-3.2-3.2-3.2s-3.2 1.4-3.2 3.2zM722.9 320.5c0 1.8 1.5 3.2 3.2 3.2 1.8 0 3.2-1.5 3.2-3.2 0-1.8-1.5-3.2-3.2-3.2-1.7 0-3.2 1.4-3.2 3.2zM708.5 342.1c0 1.8 1.5 3.2 3.2 3.2s3.2-1.5 3.2-3.2c0-1.8-1.5-3.2-3.2-3.2s-3.2 1.4-3.2 3.2z"/><g><path class="st9" d="M743.3 369.1c2.9 0 5.8-.4 8.4-1.3.6-.2.9-.8.7-1.4-.2-.6-.8-.9-1.4-.7-4.6 1.5-10.7 1.5-15.4 0-.6-.2-1.2.1-1.4.7-.2.6.1 1.2.7 1.4 2.6.9 5.5 1.3 8.4 1.3z"/></g></g><g><path class="st6" d="M549.5 195.1c-1.1 1-2.9 7.4-2.7 9.8 5-1.9 7.8-6.5 7.8-6.5-2.4-2.7-5.1-3.3-5.1-3.3zM595.9 198c.6 1.4 5.8 5.4 8.2 6.1 0-5.3-3.2-9.6-3.2-9.6-3.5 1.3-5 3.5-5 3.5zM618 167c1.3.8 7.9 1.1 10.2.2-3.1-4.3-8.2-6-8.2-6-2.1 3.1-2 5.8-2 5.8zM531.7 162.4c-2.9 1.9-6.6 7.9-6.6 7.9 6.1-.4 10.4-3.1 10.4-3.1-2.2-5.2-3.8-4.8-3.8-4.8z"/><path class="st10" d="M610.7 144.4c6 2.5 10.2 8.5 10.2 15.4 0 8.8-6.9 16.1-15.6 16.6.9 2 1.3 4.2 1.3 6.6 0 9.3-7.5 16.8-16.8 16.8-5.8 0-10.9-2.9-14-7.4-3.2 4.7-8.7 7.8-14.8 7.8-9.9 0-18-8.1-18-18 0-2.8.6-5.4 1.7-7.7-8.6-.8-14.1-6.6-14.1-15.6 0-6.6 4.9-12.8 10.1-14.7 8.7-4.1 10.2-2.7 7.7-21.3C545 96.8 536.8 36.5 535.6 0H611c-2.8 71.3-12.8 134.8-12.2 139.5.5 3.5 5.3 1.6 11.9 4.9z"/><path d="M548.5 122.8c0 .3.1.7.1 1v.2c0 .3.1.5.1.8v.2c.1.7.2 1.3.2 1.9 1.7-16 4.8-23.9 2.1-34.6-2-8.2-1.3-12.8-.4-17.4 8.2-25.2 12.6-8.7 15.1-29.4 2.5-20.6 9.6-29.2 15.4-18 5.8 11.2-1.2 15.7 7.2 21 7.8 4.9 9.6 13.6 8.4 23.9-1.1 3.4-1.8 6.4-.8 9.9 4.1 14.7-4.1 23.8-.4 31.1 3.8 7.4 3.3 13.2 3.8 17.4 2.2-20.4 9.2-73.1 11.5-130.8h-75.4c1.4 36.5 9.6 96.8 13.1 122.8z" fill="#a6562a"/><path class="st4" d="M572.7 168.5c9.7 0 18.1-15.1 14.2-18.7-5.8-5.4-8 .4-13.5.4s-9.4-5.3-14.3-1.4c-5.1 4.1 4.4 19.7 13.6 19.7zM548.5 160.2c0-1.8-1.5-3.2-3.2-3.2-1.8 0-3.2 1.5-3.2 3.2s1.5 3.2 3.2 3.2c1.7 0 3.2-1.5 3.2-3.2zM565.5 180.1c0-1.8-1.5-3.2-3.2-3.2s-3.2 1.5-3.2 3.2c0 1.8 1.5 3.2 3.2 3.2s3.2-1.4 3.2-3.2zM592.5 179.5c0-1.8-1.5-3.2-3.2-3.2-1.8 0-3.2 1.5-3.2 3.2 0 1.8 1.5 3.2 3.2 3.2 1.7 0 3.2-1.4 3.2-3.2zM607 157.9c0-1.8-1.5-3.2-3.2-3.2-1.8 0-3.2 1.5-3.2 3.2s1.5 3.2 3.2 3.2c1.7.1 3.2-1.4 3.2-3.2z"/><path class="st9" d="M572.1 130.9c-2.9 0-5.8.4-8.4 1.3-.6.2-.9.8-.7 1.4.2.6.8.9 1.4.7 4.6-1.5 10.7-1.5 15.4 0 .6.2 1.2-.1 1.4-.7.2-.6-.1-1.2-.7-1.4-2.6-.9-5.5-1.3-8.4-1.3z"/></g><g><path class="st12" d="M371.9 321.3c-2.1-1.3-3.8-4.8-5.1-8.1 3.3 1.2 6.9 2.6 8.3 4.9-.4.9-3.2 3.2-3.2 3.2zM396.7 302.4c-1.3-2.1-1.3-6.2-1.1-9.5 2 1.7 5.1 5 5.4 7.8-.7.6-4.3 1.7-4.3 1.7zM428.3 301.3c0-2.5 2-5.9 4-8.7.8 3.4 1.6 7.2.4 9.7-1 .1-4.4-1-4.4-1zM452.1 315.7c.9-2.2 4.2-4 7.9-5.4-1.2 3.6-2.3 7-4.6 8.5-.9-.4-3.3-3.1-3.3-3.1z"/><path class="st6" d="M376.5 499.8c-1.9-3 0-4.1-1.2-5.9 2.1-2.2.7-5.4.3-5.9 2.3-1.2 1.3-4.1 1-4.8 1.8-1.6 1.3-3.6 1-4.6 1.1-1.2 1.5-3.2.7-4.3.9-1.8.4-3.4-.2-4.5 2.7-3.2.7-5.7.7-5.7 1.4-1.6.7-4.7.7-4.7 1.2-2.7-.6-4.8-.6-4.8 1.6-2.4 1.8-4.1 1-4.3 1.6-2.1 1.3-3.6.5-4.9 1.4-1 .5-4.6-.2-5.3 1.6-1 1.4-3.9 1.1-5 1.4-.3 1-3.7.2-4.6.7-1.1 2-3.3.7-4.2 1.9-2.6 1.9-5 0-4.4 1.8-3.8.8-5.1-.1-4.4 2.4-5 1.7-6.6.1-7.3 4.1-3.6-.7-5.7-1.1-5.7 4.3-3.6 4.4-7 2.8-6.6.3-2.7 3.4-8.3-.5-8 2-2 3.1-4.8-.3-5.9 3.1-4.3 2.2-5.4.9-7.9 1.8-3 3.8-7.6.7-9.2 2-3.2-1.4-5.9-2-5.8.3-4.4-2-4.7-3.3-4.7 2.7-2.5 1.1-7.3-1.3-6.9 1.4-2.5-1.6-3.8-3.5-4 1.1-1.9 1.6-5.7-2.3-5.7 2-2.6 0-7.3-3.2-7.2 2.2-2.5-.2-6.6-1.8-6.7 1.7-2.5.7-4.8 0-6 4-.8 5.2-2.3 6-6.2 2 1.4 3.6.5 3.9-.8 2 1.8 4.2.6 4.9-.5.8 2.8 4 3.5 4.9 1.9 1.9 1.9 4.4.7 1.9-1.9 2.3-2.4 1.2-3.6-.1-5.1 2.2-.1 3.8-2.3 2.8-5.2 3.3.7 3.2-2.4 3.2-2.8 2.4 1.1 3.4-.3 3.8-2.2 2.7 2.5 3.5 1.3 4.9.1 1 3.3 3.6 2.2 4.3 1.4.3 2.9 2.8 4 4.1 3.4-.1 2.2.8 5 2.2 4.1.6 2.6 3.1.2 2.2-1.9 3.1.4 3.3-1.1 3.3-2.5 2.3.7 3.1-.7 3.1-1.6 2.7.7 3.7-.7 3.8-.9 2 .7 2.5-.8 2.5-.8 1.9 1.5 3.7.6 3.7.6 1 2.2 2.7 2.1 3 1.9.4 2.4 2.3 2.6 2.3 2.6 0 2.2 1.7 3.3 1.7 3.3-.4 2.4.7 2.9.7 2.9-.9 1.7-.5 3.5.3 3.2-1.3 1.6-1 3.6-.4 2.7.1 1.7 1.9-.1 1.9-1.4 2.1 1.1 3-.9 3-1.1 1.7 1.7 3.2-.8 3.2-.8 1.8 1.9 3.8-.3 3.8-.1.9 2.2 1.8 2.3 3.5 1.7-.6 1.7 1.1 2.5 2 2.2-.2 1.9.1 2.4 1.1 2.6-.6 1.2 0 2.4.9 2.7-1.3.6-.2 2.8.5 2.7-.5 1.5-1.3 2.5-.2 3.2-1.4.2-1.4 2-.9 2.6-1.3 1 .3 1.1-1.1 2.7-1.3 1.7-1.8 1.8-1.5 2.5-.7 1.1-1.7 1.9-1.3 2.6-1 1.4-1.6 2.2-1.2 3.4-1.1 1.5-2.5 1-1.8 2.6-1.2 1.6-2.4 1.2-1.5 2.8-1.7.3-2.2 1.5-2 1.9-1.7.5-2.9 1.5-2.1 2.7-1.9.7-2.4 2-1.5 3.1-2.3.9-2.4 2-1.8 3-2.8.5-3.1 2.1-2.4 2.9-1.6 1.5-3.1 1.4-1.3 2.7-.2 1.3-1.5 1.5-.1 3-1.3 3-.7 4.6.4 5.2-1.2 1.1.5.7-.4 2.7s-.4 3.7.7 4.2c-.9 1.8-.3 3.4.4 3.5-2.1 1.5-.2 3.4.5 3.6-1.7 1.5-.8 5.1-.1 5.2-2 1.5-1 3.1-.3 3.5-1.8 2.6 0 5.1 1.2 5.7-1.5 1.1-2.2 1.8-.9 2.8-.4 1.8.4 3.9 1.3 4.2-1.8 1.5-1.1 3 .1 3.2-1.4 2-.7 3 .1 3.3-1.3.7-1.6 2.7-.4 3-.7 1.6-.1 3.2 1.1 3.3-1.3 1.1-.5 3.4.3 3.5-.9.9-1.2 3.8.1 4.1-1 2.2-1.3 5.1.6 5.6-.9 2.1-2.2 4.1-.1 5.1-.6 2.3-1.7 4.1.1 5-.6 1.9 0 5.4 2 5.8-2.5 2.2-2.8 6.2-.6 6.9-1.7 1.4-1.3 4.3.5 4.6-2.2 1.9-1.5 7.3 1.4 7.5-2.3 2.5-1.7 5.9-.1 6.3-.7 2-1 4.2.7 4.9-2.9.8-1.4 5.6.4 5.9-1.7 1 .8 2.3 0 5.1s-1.5 4 .4 4.4c-1.6.8 0 5.2.7 5.9-3.9.2-73.1 0-73.1 0z"/><path d="M384.6 382.4c0-.2 0-.3-.1-.4-.3.6-.8 1.3-1.4 2.2 3.4 1.1 2.2 3.9.3 5.9 3.9-.4.8 5.2.5 8 1.7-.4 1.5 3.1-2.8 6.6.5 0 5.2 2.2 1.1 5.7 1.6.7 2.3 2.3-.1 7.3.9-.7 1.9.6.1 4.4 1.9-.6 1.9 1.8 0 4.4 1.3.9-.1 3.1-.7 4.2.8.8 1.2 4.3-.2 4.6.3 1 .5 3.9-1.1 5 .7.7 1.7 4.3.2 5.3.9 1.3 1.1 2.8-.5 4.9.8.2.6 1.9-1 4.3 0 0 1.7 2.1.6 4.8 0 0 .6 3.1-.7 4.7 0 0 2.1 2.5-.7 5.7.6 1.1 1.1 2.7.2 4.5.7 1.1.4 3.1-.7 4.3.3 1 .7 3-1 4.6.3.7 1.3 3.6-1 4.8.4.5 1.8 3.6-.3 5.9 1.3 1.8-.7 2.9 1.2 5.9 0 0 69.2.2 73.3.2-.7-.7-2.3-5.1-.7-5.9-1.9-.4-1.2-1.7-.4-4.4.8-2.8-1.7-4.1 0-5.1-1.8-.4-3.3-5.1-.4-5.9-1.7-.7-1.4-2.9-.7-4.9-1.5-.4-2.2-3.8.1-6.3-2.9-.2-3.6-5.6-1.4-7.5-1.8-.3-2.2-3.2-.5-4.6-2.2-.7-1.9-4.6.6-6.9-2-.4-2.6-3.9-2-5.8-1.8-.8-.7-2.7-.1-5-2.1-1.1-.8-3 .1-5.1-1.9-.5-1.6-3.4-.6-5.6-1.3-.3-1-3.2-.1-4.1-.8 0-1.6-2.3-.3-3.5-1.3-.1-1.8-1.7-1.1-3.3-1.2-.3-.9-2.3.4-3-.8-.3-1.5-1.4-.1-3.3-1.2-.2-1.9-1.7-.1-3.2-.9-.3-1.7-2.3-1.3-4.2-1.4-1-.6-1.7.9-2.8-1.2-.6-3-3.1-1.2-5.7-.7-.3-1.7-2 .3-3.5-.7-.1-1.6-3.7.1-5.2-.4-.1-1-.6-1.3-1.3-.4 1-1.5 1.2-4.3-.6 0 0-3 3.1-4.1 0 0 0-1.9 3.4-5.2 1.5-2.5 1.9-6.4-2.2-8.3-1.7-1.1 1.9-3.3 0-6.9-.3-1.4 3.6-3 2.2-7-.2-.9 1.7-2.1 3-6.6 0-3-1-5.8 2.4-8 0-2.2-2.5-4.5 3.7-5-.4z" fill="#b5bdcc"/><path d="M412.6 370c-2.4 0-4.8-.4-6.9-1.1-.6-.2-.9-.8-.7-1.4.2-.6.8-.9 1.4-.7 3.7 1.2 8.6 1.2 12.4 0 .6-.2 1.2.1 1.4.7.2.6-.1 1.2-.7 1.4-2.2.8-4.6 1.1-6.9 1.1z" fill="#b7c4de"/><path class="st8" d="M413.6 337c12.9 0 16.3 13.3 11.7 16.8-4.7 3.6-6.2-2.4-11.4-2.4s-6.9 6-11.6 1.9c-4.7-4.2-.4-16.3 11.3-16.3zM386.6 331.3c-3.6 2.9 4.1 8.6 6.7 6.7 2.7-1.8-3.2-9.5-6.7-6.7zM403.1 319c-2.8.9-.5 9.8 2.6 9.3 5.2-.7 1.7-10.8-2.6-9.3zM426.5 319.2c-3.9-1.3-6.8 7.8-3.3 9 3.5 1.2 7.9-7.6 3.3-9zM442.8 331c-2.9-2.3-8.7 4.9-5.9 7.1 2.9 2.3 9.4-4.3 5.9-7.1z"/></g><g><path class="st15" d="M243.1 117.4c-.4 23-24.1 47.1-14.3 63.3 3.4 5.3 9.7 5.2 14 5.2 7-.1 3.3 9.8 11.2 13.1 4.4 1.8 9.6 2.1 16.7-2.9 3.2-1.7 6.4 6.4 14.7 5.7 9.9-.8 10-12.6 12-13 3.1-.6 10.7 3.2 15.8-4.3 9.6-14.1-5.2-34.2-9.3-47.6C294.2 109.3 308.6 0 308.6 0h-74.7s10.3 98 9.2 117.4z"/><path class="st8" d="M273 162.1c-6.9 0-6.4-4.5-12-8.5-5.3-3.8-4.4-8.7-.7-10.6 5.3-2.7 9.8 1.5 12.8 1.5 3.1 0 8.6-5.3 13.7-1s0 8.9-2.9 11.2c-3.4 2.8-4.3 7.4-10.9 7.4zM236.2 176.2c-4.6-3.1 4.8-14.6 8.5-12.1s-.9 17.3-8.5 12.1zM258.6 188.9c-6.6-1-2.4-15.2 2.7-14.7s4.8 15.8-2.7 14.7zM285.2 188.8c-7.4.9-8.2-13.6-3.5-14.4 6.5-1.1 10.4 13.5 3.5 14.4zM308.3 180.4c-5.5 3.6-11.6-9.1-8.3-12.3 3-2.8 12.9 9.3 8.3 12.3z"/><path d="M273.5 122.2c-5.1 0-10.3 1.2-15.4 3.6-.9.4-1.1 1.3-.6 1.9.5.6 1.7.8 2.6.4 9-4.3 18-4.3 25.9 0 .8.4 2 .3 2.6-.3.6-.6.4-1.5-.4-1.9-4.6-2.5-9.6-3.7-14.7-3.7z" fill="#ded6b8"/><path class="st17" d="M250.2 85.5c12.3 3 15.2 6.5 11.8 7.7-7.1-1.2-13.5 1.6-19.2 9.2-.3-5.1-.6-11.1-1.1-17.4 2.3-.4 5.1-.3 8.5.5zM257.3 34.5c7.2-1 13 10.2 6.6 10-6.3-.2-4.6 8.5-12.4 8.5-6.6 0-8.3.6-12 5.8-.7-8.5-1.5-16.9-2.3-24.6 6.1-2.7 14.4 1.1 20.1.3zM301 82.9c-4.4-3.1-6.4-7-10-9.2-4.7-3-6.2-2-8.7 0-2.5 2-7.5-1.2-7.5-3.2s4.2-9 7.7-9.5 9.5-1.5 12.5-2.5c1.5-.5 4.4.2 7.4.8-.5 7.8-1 15.8-1.4 23.6zM305 31.4c-12.7-9.2-19.5-10.4-24.7-8.8-5.7 1.7-13-2-13.6-5.5-.6-3.5 18.1-11.2 28.8-9.2 4.8.9 8.6 2.6 11.6 4-.6 5.1-1.3 11.9-2.1 19.5z"/></g><g><path class="st2" d="M692.8.2c-1.9 3 0 4.1-1.2 5.9 2.1 2.2.7 5.4.3 5.9 2.3 1.2 1.3 4.1 1 4.8 1.8 1.6 1.3 3.6 1 4.6 1.1 1.2 1.5 3.2.7 4.3.9 1.8.4 3.4-.2 4.5 2.7 3.2.7 5.7.7 5.7 1.4 1.6.7 4.7.7 4.7 1.2 2.7-.6 4.8-.6 4.8 1.6 2.4 1.8 4.1 1 4.3 1.6 2.1 1.3 3.6.5 4.9 1.4 1 .5 4.6-.2 5.3 1.6 1 1.4 3.9 1.1 5 1.4.3 1 3.7.2 4.6.7 1.1 2 3.3.7 4.2 1.9 2.6 1.9 5 0 4.4 1.8 3.8.8 5.1-.1 4.4 2.4 5 1.7 6.6.1 7.3 4.1 3.6-.7 5.7-1.1 5.7 4.3 3.6 4.4 7 2.8 6.6.3 2.7 3.4 8.3-.5 8 2 2 3.1 4.8-.3 5.9 1.7 3.7 2.2 5.4.9 7.9 1.8 3 3.8 7.6.7 9.2 2 3.2-1.4 5.9-2 5.8.3 4.4-2 4.7-3.3 4.7 2.7 2.5 1.1 7.3-1.3 6.9 1.4 2.5-1.6 3.8-3.5 4 1.1 1.9 1.6 5.7-2.3 5.7 2 2.6 0 7.3-3.2 7.2 2.2 2.5-.2 6.6-1.8 6.7 1.7 2.5.7 4.8 0 6 4 .8 5.2 2.3 6 6.2 2-1.4 3.6-.5 3.9.8 2-1.8 4.2-.6 4.9.5.4-1.4 3.9-1.1 4.1.9 2.9-.5 3.2 3.4 2.5 4.1 2.2.1 4 3.2 3.1 6 3.3-.7 3.9 1.4 3.9 1.9 1.9-.7 2.3 1.4 2.9 2.7 2.7-1.5 3.4-1.7 4.8-.5 1-3.3 3.6-2.2 4.3-1.4.1-1 1.5-3.1 3.6-2.5.5-1.5 2.4-2.3 3.3-.8 2.7-2.1 4.9-.4 4.9.2 2.3-.7 3.1.7 3.1 1.6 2.7-.7 3.7.7 3.8.9 2-.7 2.8.4 2.8.4 1.9-1.5 3.4-.2 3.4-.2 1-2.2 2.7-2.1 3-1.9.4-2.4 2.3-2.6 2.3-2.6 0-2.2 1.7-3.3 1.7-3.3-.4-2.4.7-2.9.7-2.9.7-4 3.8-2.7 3.8-2.5 1.7-1.7 4.1 0 4.1 0 1.8-1.9 3.8.3 3.8.1.9-2.2 1.8-2.3 3.5-1.7-.6-1.7 1.1-2.5 2-2.2-.2-1.9.1-2.4 1.1-2.6-.6-1.2 0-2.4.9-2.7-1.3-.6-.2-2.8.5-2.7-.5-1.5-1.3-2.5-.2-3.2-1.4-.2-1.4-2-.9-2.6-1.3-1 .3-1.1-1.1-2.7-1.3-1.7-1.8-1.8-1.5-2.5-.7-1.1-1.7-1.9-1.3-2.6-1-1.4-1.6-2.2-1.2-3.4-1.1-1.5-2.5-1-1.8-2.6-1.2-1.6-2.4-1.2-1.5-2.8-1.7-.3-2.2-1.5-2-1.9-1.7-.5-2.9-1.5-2.1-2.7-1.9-.7-2.4-2-1.5-3.1-2.3-.9-2.4-2-1.8-3-2.8-.5-3.1-2.1-2.4-2.9-1.6-1.5-3.1-1.4-1.3-2.7-.2-1.3-1.5-1.5-.1-3-1.3-3-.7-4.6.4-5.2-1.2-1.1.5-.7-.4-2.7s-.4-3.7.7-4.2c-.9-1.8-.3-3.4.4-3.5-2.1-1.5-.2-3.4.5-3.6-1.7-1.5-.8-5.1-.1-5.2-2-1.5-1-3.1-.3-3.5-1.8-2.6 0-5.1 1.2-5.7-1.5-1.1-2.2-1.8-.9-2.8-.4-1.8.4-3.9 1.3-4.2-1.8-1.5-1.1-3 .1-3.2-1.4-2-.7-3 .1-3.3-1.3-.7-1.6-2.7-.4-3-.7-1.6-.1-3.2 1.1-3.3-1.3-1.1-.5-3.4.3-3.5-.9-.9-1.2-3.8.1-4.1-1-2.2-1.3-5.1.6-5.6-.9-2.1-2.2-4.1-.1-5.1-.6-2.3-1.7-4.1.1-5-.6-1.9 0-5.4 2-5.8-2.5-2.2-2.8-6.2-.6-6.9-1.7-1.4-1.3-4.3.5-4.6-2.2-1.9-1.5-7.3 1.4-7.5-2.3-2.5-1.7-5.9-.1-6.3-.7-2-1-4.2.7-4.9-2.9-.8-1.4-5.6.4-5.9-1.7-1 .8-2.3 0-5.1s-1.5-4 .4-4.4c-1.6-.8 0-5.2.7-5.9-3.7-.2-72.9 0-72.9 0z"/><path class="st3" d="M757 12.6c2.5.3-.5-5.2 4-5 3.4.2.3-7.6 3.7-7.6-5.5 0-24.3.1-41.4.1-2.9 2.4 3 4.2 1.9 8.4-1.8 5.5 3.5.4 2.7 6.4-.6 4.6 5.8 1.6 5.8 8.1s4.4-2.2 7.4 3.1c3.5 2.1 3.4-7.8 5.9-5.5s1.1-7.1 4.7-4.8c5.5 3.3 2.5-3.5 5.3-3.2z"/><path class="st8" d="M729.2 168.2c12.9 0 16.4-13.3 11.7-16.8-4.7-3.6-6.2 2.4-11.4 2.4s-6.9-6-11.6-1.9c-4.7 4.1-.4 16.3 11.3 16.3zM699.5 173.2c-3.5-3.1 4.4-9.4 7-7.5 2.6 1.8-3.2 10.8-7 7.5zM717.2 186.9c-4.3-1.7-.9-10.8 3.1-9.9 4.7 1.1 1.1 11.6-3.1 9.9zM743.7 186.4c-4 1.1-6.8-8.2-3.3-9.3 3.6-1.1 8 8 3.3 9.3zM759.7 170.3c-2.9 2.3-8.7-4.9-5.9-7.1 2.9-2.2 9.4 4.4 5.9 7.1z"/><path class="st3" d="M698.8 73.9c-.1-.1-.2-.2-.2-.4 1.3-.9-.1-3.1-.7-4.2.8-.8 1.2-4.3-.2-4.6.3-1 .5-3.9-1.1-5 .7-.7 1.7-4.3.2-5.3.9-1.3 1.1-2.8-.5-4.9.8-.2.6-1.9-1-4.3 0 0 1.7-2.1.6-4.8 0 0 .6-3.1-.7-4.7 0 0 .6-.7.7-1.9 1.8-.3 3.7-.6 5.6.2 3.5 1.5 2.7-.2 3.2 3.7.5 4 3 .2 3.5 6.7s5 2.5 2.2 5.2c-2.7 2.7 3 4.5 1.2 5-1.7.5 6.7 7.7 3.5 8.7-3.2 1 1.2 4.2-1.5 3.5-2.7-.7-3.2 5.7-5.2 5.7s-3 3.7-5.5 1.5c-2-1.6-1.7.8-4.1-.1zM758.8 93.4c-.3.1-.6.4-.8.8-4.3 3.7-8.7 3.2-6.4-4.2 2.5-8-9.5-6-4-9.7 5.5-3.7-1-3.5 1.5-6.5s-5.4-5-3-6.2c2.5-1.2 2-2.5 2-2.5s-.7 0-.5-2.7c.2-2.7-.5-4.5.5-6.7s2.7-1.7 2.7-3c0-1.2 2.5.5 2.7-1.7.2-2.2 5-1 5.2-2.2.3-1.2-.5-6.7 0-6.5.4.2 0-2.4 2.6-1-.5 1-.3 2.6.8 3.6-2.2.7-1.9 4.6.6 6.9-2 .4-2.6 3.9-2 5.8-1.8.8-.7 2.7-.1 5-2.1 1.1-.8 3 .1 5.1-1.9.5-1.6 3.4-.6 5.6-1.3.3-1 3.2-.1 4.1-.8 0-1.6 2.3-.3 3.5-1.3.1-1.8 1.7-1.1 3.3-1.2.3-.9 2.3.4 3-.8.3-1.5 1.4-.1 3.3-1.2-.1-1.9 1.4-.1 2.9zM699.5 138.5c1-.6 3.3-2.9 1.6-5.7 3.2-1.6 1.1-6.2-.7-9.2 1.2-2.4.7-4.1-.9-7.9 3.4-1.1 2.2-3.9.3-5.9 3.6.3 1.3-4.4.6-7.3 2.8-.1 4.2 4.2 5.6 3.6 1.7-.7-2.7 5.2 0 5 2.7-.2 2.5 4.2 5.7 3.7s0 5.2 4.2 4.5c4.2-.7-2.7 2-1.2 5.2s-9.5.5-8.2 4.7c1.2 4.2-.7 2.7-2 6.7-.7 2.2-2.8 2.8-5 2.6z"/></g><g><path d="M399.2 139.5c-4.9 18.5-21.5 27.2-14.3 38.8 6.4 10.2 16.7 2.9 18.5 3.6 1.8.7-1.7 12.9 7.9 16.1 10.4 3.5 14-6.7 16.5-7.1 2.5-.4 6.8 11.4 17.7 7.6 7.4-2.6 7.8-10 6.7-16-.2-2 1.8 1.4 7.7 2.9 7.9 2 15.9-5.8 10.5-17.7-5.4-12-17.5-25.4-18.2-30.7-.6-5.4 6.7-103.6 9-136.9h-71.8s12.7 128.8 9.8 139.4z" fill="#262521"/><path class="st3" d="M427.1 159.8c12.9 0 16.3-13.3 11.7-16.8-4.7-3.6-6.2 2.4-11.4 2.4s-6.9-6-11.6-1.9c-4.8 4.2-.5 16.3 11.3 16.3zM394.7 172.9c-3.8-2.8 3.3-9.5 6.7-6.7 2.5 2-2.8 9.6-6.7 6.7zM417.1 185.2c-3.1-.5-2.1-9.8 2.8-10 4.9-.2 2.9 10.8-2.8 10zM441.9 185c-3.9 1.5-6.8-7.5-3.4-8.9 3.5-1.5 8 7.1 3.4 8.9zM461.2 172.4c-2.8 2.4-8.9-4.5-6.1-6.9 2.8-2.3 9.5 4 6.1 6.9zM461.4 0c-1.3 19.8-4.5 62.6-6.7 95.1-19.9-.5-20.4-14.7-13.7-30.8 7.5-18-31.6-15-19.7-35.6 6.3-10.9 1.9-20.6 0-28.8 11.1.1 24.7.1 40.1.1z"/></g><g><path class="st3" d="M231.4 360.5c-5-12.6-19.7-32.2-15-39.7 6.4-10.2 17.4-2 19.2-2.7 1.8-.7-2.1-13.7 7.5-16.9 10.4-3.5 14.4 7.6 16.9 8s6.8-11.4 17.7-7.6c7.4 2.6 7.8 10 6.7 16-.2 2 1.8-1.4 7.7-2.9 7.9-2 15.9 5.8 10.5 17.7-5.4 12-17.5 25.4-18.2 30.7-.6 5.4 6.7 103.6 9 136.9h-71.8s13.9-129.3 9.8-139.5z"/><path class="st4" d="M257.4 338.1c12.9 0 16.3 13.3 11.7 16.8-4.7 3.6-6.2-2.4-11.4-2.4s-6.9 6-11.6 1.9c-4.8-4.1-.5-16.3 11.3-16.3zM230.9 332.2c-3.6 3 3.7 8.7 6.2 6.6 2.5-2.1-2.9-9.3-6.2-6.6zM247.9 321.1c-2.7 1.1.3 9.4 3.3 8.5 2.5-.8.9-10.3-3.3-8.5zM270 321.7c-3.9-1.3-7.2 8.2-3.7 9.4 3.4 1.3 8.3-7.9 3.7-9.4zM285.9 332.2c-2.9-2.3-8.7 4.9-5.9 7.1s9.4-4.4 5.9-7.1z"/><path class="st8" d="M289.1 437.5c-5.9 26.2-15.6 18-16 29.6-.4 11.6-15.3 6.4-16.6 15.7-.7 5.1-5.3 11.2-4.5 17.2h41.5c-.9-13.6-2.6-38-4.4-62.5zM250.2 440.3c-2.2-10.1 6.3-15 11.5-26.1 5.2-11.1-15-10.2-18.2-18.5-2.5-6.6-6.2-2.4-12.1-6.6-.9 16.7-2.7 38.1-4.5 57.7 9.7 5 25.2 2.1 23.3-6.5zM224.4 474.3c-.2 2.2-.4 4.3-.6 6.3-.7 7.4-1.4 14-1.9 19.4 5.8-8.1 7.3-17.4 2.5-25.7z"/></g><g><path class="st10" d="M916.4 360.5c5-12.6 19.7-32.2 15-39.7-6.4-10.2-17.4-2-19.2-2.7-1.8-.7 2.1-13.7-7.5-16.9-10.4-3.5-13.5 10.4-16.8 9.4-2.4-.7-7.9-11.8-16.5-8.9-7.2 1.9-7.4 9.4-7.1 15.7.7 3-2.5.5-8.6 0-8.1-.6-14.3 6.7-9.7 16.8 5.4 12 16.7 23.6 17.3 29 .6 5.4-6.7 103.6-9 136.9h71.8s-13.7-129.4-9.7-139.6z"/><path class="st8" d="M919.1 426.4c-4.3-1.2-8-2.4-8.8-5.9-1.8-7.9-13.4-3.9-16.2-13.5-2.8-9.5-19.1-6.7-27.2-16.9-2-2.5-3.5-4.3-4.6-5.4-.3 4-.5 8.5-.9 13.2 8.9 18.2 24.4 28.1 26.9 39.5 2.7 12.5 18.6 6.6 21.9 22.8 2.7 13.5 5.7 27 15.4 35.3-1.1-10.8-4.1-40.4-6.5-69.1z"/><path class="st3" d="M888.1 333.3c-12.9 0-16.4 13.3-11.7 16.8 4.7 3.6 6.2-2.4 11.4-2.4s6.9 6 11.6 1.9c4.8-4.2.5-16.3-11.3-16.3zM917.6 329.3c3.5 3.1-4.1 8.6-6.7 6.7-2.7-1.8 3.4-9.6 6.7-6.7zM899.3 318.2c3.7 1.3.6 11-3.3 9.6-3.5-1.2-.9-11.1 3.3-9.6zM876.5 317.5c3.9-1.3 6.5 9.2 3 10.5-3.5 1.2-7.6-9-3-10.5zM858.6 329.2c3.1-2.5 9.3 5.2 6.3 7.6-3.1 2.4-10-4.7-6.3-7.6z"/><path class="st8" d="M858.7 437.5c5.9 26.2 15.6 18 16 29.6.4 11.6 15.3 6.4 16.6 15.7.7 5.1 5.3 11.2 4.5 17.2h-41.5c.9-13.6 2.7-38 4.4-62.5z"/></g><g><path d="M79.7 380.4c-1-8.8-17.3-44.2-10.3-55.8 4.5-6.9 11.2-4.4 14.3-3.9 2.2.3.4-7.9 8.2-11.1 3.9-1.6 8.6-1.2 13.4 3.6 3.1 2.6 5.2-7.4 14.8-6.9 8.6.4 10.1 11.3 11.8 11.7 2.7.5 7.7-3.6 12.2-1.6 9.5 4.3 13.8 17.6 3 40.5-13.6 28.9-10.2 27.9-9 72 1.4 34.7 3.3 71.1 3.3 71.1H71.2s7.4-58.4 8.6-89.1c.2-5.8 1.3-18.3-.1-30.5z" fill="#d3d4d6"/><path class="st3" d="M85.2 403.9c-1.6-1.2-3.4-2.1-4.9-2.7-.1 1.4-.1 2.7-.2 4 6.6 3.2 8.8 1.9 14.6 2.4 5.9.6 14.2-1.1 18.2-2.6-.2-2.1-5.9.9-13.1-.9-7.2-1.7-9.7 3.4-14.6-.2z"/><path class="st6" d="M108 342.6c-7.7 0-7.1 5.2-13.4 9.9-6 4.4-4.9 10-.8 12.3 5.9 3.2 10.9-1.8 14.4-1.8s9.6 6.1 15.3 1.1c5.7-5 0-10.2-3.3-12.9-3.8-3.3-4.8-8.6-12.2-8.6zM79.2 331.6c-4.1 1.7.2 14.9 5.8 12.1 4.5-2.3-.4-14.3-5.8-12.1zM96.8 322c-6.6 1-2.1 14.4 3 13.8 5.1-.5 4.4-14.9-3-13.8zM119.3 321.1c-6.3-.7-7.6 12.4-2.1 13.7 5.4 1.2 8.6-13 2.1-13.7zM138.4 329.7c-6.3-2.2-10 9.8-6 12.2 6.7 3.2 10.2-10.8 6-12.2z"/><path class="st3" d="M79.4 418c-.2 3.8-.5 7.9-.9 12.2 2.9.2 5.1-.2 5.4-1 1-1.9 16.1 3.2 24.2 3.9 8.1.6 4.8-3.9 11.6-5.5s11.6-5.5 3-3.9c-6.7 1.2-27.8.7-43.3-5.7zM79.5 457.9c5.1 2.3 13.3 5.2 14 2.4.8-2.8 14.4 3.1 14.1-.4-.3-3.6 11.3 1.9 19.1 0 7.8-1.9-.7-2.9-8.6-5.2-7.9-2.3-12.4 1-19.1-2.3-6.7-3.2-9.9 3.2-17.5-3.2-1.7-1.4-3.1-2.3-4.3-2.9-.4 3.8-.7 7.6-1.1 11.3.8-.3 1.8-.4 3.4.3zM79.9 485.2c5.4 3.7 6.9-.9 12.5 1.3s7.1 1.3 13.4 1.1c6.2-.2 12.1-.9 8-2.4s-8.8.2-15.1-3c-6.2-3.2-9.9-.9-16.4-4.3-3.8-2-5.8-1.9-8.1-2.4-.3 2.8-.6 5.5-.9 8 1.9 0 4 0 6.6 1.7z"/><g><path class="st3" d="M92.1 472.4c3 2.6 8.6 1.3 12.3 1.3 3.7 0 2.2 3.2 9 1.3 6.9-1.9 8.5 3.6 13.8.6 5.3-3 9.2.6 12.9-1.5h.1c-.1-3-.3-6.2-.5-9.5-4 2.7-6.2 1.3-11 2.6-6.5 1.7-9.7-1.7-14 0-4.3 1.7-6.8.3-12.3 1.5-5.5 1.3-13.3 1.1-10.3 3.7zM98 445c6.1 3.2 17.8.6 23.6 0 5.8-.6 11.3 1.3 15.7-1.6.5-.3 1-.7 1.5-1.2-.1-3.3-.3-6.6-.4-9.9-.3.1-.7.3-1.1.5-10.9 4.7-19.2 7.8-17.3 8.4 1.9.6-15.6-1.6-11.8 1.6 3.7 3.1-16.3-1.1-10.2 2.2zM140.8 484.4c-1.9.5-1.7 1.6-2.1 2.9-.6 2.2-11.4 1.8-10.6 3.4.9 1.6-12.6.3-14.1 2.2-1.6 1.9-23.2 2.2-17.6 3.9 5.7 1.7 18.7-.2 25.2 0s11.1-3.2 14.9-1.7c2.1.8 3.1-.1 4.8-.9-.2-2.6-.4-5.9-.5-9.8zM109.8 416.8c2.6 1.3 10-.8 12.9-.6 2.9.2.6 3.1 6.1.9s6.5-1.9 6.7-1.1c.1.3 1 0 2.3-.7-.1-2.8-.2-5.4-.3-7.8-1.5.8-1.9 1.3-1.8 2.2.3 1.5-10.1 1-8.3 2.7 1.7 1.6-8.1 3.1-14.4 2.4-6.4-.5-5.8.8-3.2 2z"/></g></g><g><path d="M859.2 139.5c-4.9 18.5-21.5 27.2-14.3 38.8 6.4 10.2 16.7 2.9 18.5 3.6 1.8.7-1.7 12.9 7.9 16.1 10.4 3.5 14-6.7 16.5-7.1 2.5-.4 6.8 11.4 17.7 7.6 7.4-2.6 7.8-10 6.7-16-.2-2 1.8 1.4 7.7 2.9 7.9 2 15.9-5.8 10.5-17.7-5.4-12-17.5-25.4-18.2-30.7-.6-5.4 6.7-103.6 9-136.9h-71.8s12.6 128.8 9.8 139.4z" fill="#d18925"/><path class="st8" d="M887 165.1c12.9 0 16.4-13.3 11.7-16.8-4.7-3.6-6.2 2.4-11.4 2.4s-6.9-6-11.6-1.9c-4.7 4.1-.4 16.3 11.3 16.3zM857.1 170.6c-3.8-2.8 3.3-9.5 6.7-6.7 2.6 1.9-2.7 9.5-6.7 6.7zM877.1 185.2c-3.1-.5-2.1-9.8 2.8-10 4.9-.2 2.9 10.8-2.8 10zM901.9 185c-3.9 1.5-6.8-7.5-3.4-8.9 3.4-1.5 7.9 7.1 3.4 8.9zM919.9 171.3c-2.8 2.4-8.9-4.5-6.1-6.9 2.8-2.3 9.5 4 6.1 6.9z"/><path class="st15" d="M918.2 44.3c-4.2-.4-8.4-1.8-12.3 3.3-6.7 8.8-15.2-19.5-14.6-3.2.6 16.3-13.5-2.8-16.1 15.8C872.7 78.7 865 46 857.8 64c-.8 2-1.5 3.6-2.1 4.9-2.8-34.6-6.1-68.9-6.1-68.9h71.8c-.7 10.2-1.9 26.5-3.2 44.3z"/></g></svg>