<?xml version="1.0" encoding="utf-8"?>
<!-- Generator: Adobe Illustrator 25.0.0, SVG Export Plug-In . SVG Version: 6.00 Build 0)  -->
<svg version="1.1" id="Layer_2" xmlns="http://www.w3.org/2000/svg" xmlns:xlink="http://www.w3.org/1999/xlink" x="0px" y="0px"
	 viewBox="0 0 1000 500" style="enable-background:new 0 0 1000 500;" xml:space="preserve">
<style type="text/css">
	.st0{fill:#5D5D5D;}
	.st1{fill:#D9CCC5;}
	.st2{fill:#CFB897;}
	.st3{fill:#F4E9E3;}
	.st4{fill:#EBA3A3;}
	.st5{fill:#E6DEBE;}
	.st6{fill:#FFFFFF;}
	.st7{clip-path:url(#SVGID_2_);}
	.st8{fill:#593524;}
	.st9{fill:#CCC5A9;}
	.st10{fill:#C26E40;}
	.st11{fill:#A6562A;}
	.st12{fill:#D9CFCA;}
	.st13{fill:#B5BDCC;}
	.st14{fill:#B7C4DE;}
	.st15{fill:#FCD228;}
	.st16{fill:#DED6B8;}
	.st17{fill:#FFF2BF;}
	.st18{fill:#262521;}
	.st19{fill:#D3D4D6;}
	.st20{fill:#D18925;}
</style>
<g>
	
		<rect x="250" y="-250" transform="matrix(6.123234e-17 -1 1 6.123234e-17 250.0004 750.0005)" class="st0" width="500" height="1000"/>
	<g>
		<g>
			<path class="st1" d="M92.1,195.1c-1.1,1-2.9,7.4-2.7,9.8c5-1.9,7.8-6.5,7.8-6.5C94.7,195.7,92.1,195.1,92.1,195.1z"/>
			<path class="st1" d="M138.5,198c0.6,1.4,5.8,5.4,8.2,6.1c0-5.3-3.2-9.6-3.2-9.6C140,195.8,138.5,198,138.5,198z"/>
			<path class="st1" d="M160.5,167c1.3,0.8,7.9,1.1,10.2,0.2c-3.1-4.3-8.2-6-8.2-6C160.5,164.3,160.5,167,160.5,167z"/>
			<path class="st1" d="M74.3,162.4c-2.9,1.9-6.6,7.9-6.6,7.9c6.1-0.4,10.4-3.1,10.4-3.1C75.9,162,74.3,162.4,74.3,162.4z"/>
			<path class="st2" d="M153.3,144.4c6,2.5,10.2,8.5,10.2,15.4c0,8.8-6.9,16.1-15.6,16.6c0.9,2,1.3,4.2,1.3,6.6
				c0,9.3-7.5,16.8-16.8,16.8c-5.8,0-10.9-2.9-14-7.4c-3.2,4.7-8.7,7.8-14.8,7.8c-9.9,0-18-8.1-18-18c0-2.8,0.6-5.4,1.7-7.7
				c-7.9-0.8-14.1-7.5-14.1-15.6c0-6.7,4.2-12.4,10.1-14.7c4.9-3.9,4-6,1.9-21.5c-3.5-26-10.7-86.1-12-122.6c53.9,0,80.4,0,80.4,0
				c-2.8,71.3-12.8,134.8-12.2,139.5C141.9,143,146.7,141.1,153.3,144.4z"/>
			<path class="st3" d="M153.3,144.4c6,2.5,10.2,8.5,10.2,15.4c0,8.8-6.9,16.1-15.6,16.6c0.9,2,1.3,4.2,1.3,6.6
				c0,9.3-7.5,16.8-16.8,16.8c-5.8,0-10.9-2.9-14-7.4c-3.2,4.7-8.7,7.8-14.8,7.8c-9.9,0-18-8.1-18-18c0-2.8,0.6-5.4,1.7-7.7
				c-7.9-0.8-14.1-7.5-14.1-15.6c0-6.7,4.2-12.4,10.1-14.7c4.9-3.9,4-6,1.9-21.5c-1-7.2-2.2-16.9-3.6-28
				c22.9-10.8,50.7-5.7,64.8-1.8c-2.9,26.5-5.3,44.3-5,46.7C141.9,143,146.7,141.1,153.3,144.4z"/>
			<path class="st4" d="M115.3,168.5c9.7,0,18.1-15.1,14.2-18.7c-5.8-5.4-8,0.4-13.5,0.4c-5.5,0-9.4-5.3-14.3-1.4
				C96.6,152.9,106,168.5,115.3,168.5z"/>
			<path class="st4" d="M91.1,160.2c0-1.8-1.5-3.2-3.2-3.2c-1.8,0-3.2,1.5-3.2,3.2s1.5,3.2,3.2,3.2
				C89.6,163.4,91.1,161.9,91.1,160.2z"/>
			<path class="st4" d="M108.1,180.1c0-1.8-1.5-3.2-3.2-3.2c-1.8,0-3.2,1.5-3.2,3.2c0,1.8,1.5,3.2,3.2,3.2
				C106.6,183.3,108.1,181.9,108.1,180.1z"/>
			<path class="st4" d="M135.1,179.5c0-1.8-1.5-3.2-3.2-3.2c-1.8,0-3.2,1.5-3.2,3.2c0,1.8,1.5,3.2,3.2,3.2
				C133.6,182.7,135.1,181.3,135.1,179.5z"/>
			<path class="st4" d="M149.5,157.9c0-1.8-1.5-3.2-3.2-3.2s-3.2,1.5-3.2,3.2s1.5,3.2,3.2,3.2S149.5,159.7,149.5,157.9z"/>
			<g>
				<path class="st5" d="M114.7,130.9c-2.9,0-5.8,0.4-8.4,1.3c-0.6,0.2-0.9,0.8-0.7,1.4c0.2,0.6,0.8,0.9,1.4,0.7
					c4.6-1.5,10.7-1.5,15.4,0c0.6,0.2,1.2-0.1,1.4-0.7c0.2-0.6-0.1-1.2-0.7-1.4C120.5,131.3,117.6,130.9,114.7,130.9z"/>
			</g>
		</g>
		<g>
			<path class="st3" d="M532.8,500c-5-6.4-0.8-10.8,1.5-23.2c2.3-12.4-3.6-14.8,1.5-25.3c6.4-13.2-2.9-19.7,2-27.9
				c5.3-8.9-2.3-7.1,2.3-16.6c4.6-9.6-3.4-12.5-1.6-20.5c1.8-8-6.1-13-3-19c3-6.1-7.2-10.6-4.4-19c2.8-8.3-3.8-17.6,0.8-19.9
				c7.4-3.9,3.4-12.5,6.6-12.2c5.2,0.6,10.1,3,9.8-0.9c-0.3-3.9-0.8-3.7,3.4-5.7s-2.2-8,3.6-6.5c5.8,1.4,4.5-4.3,7.9-0.9
				c3.4,3.4,0.3-3.2,5,1.5c7.9,8,4.5-3.3,8.6-3.2c5,0.1,4.7-5,7.7-2.1c2.6,2.5,5.7-2.1,6.9,1.4c1.2,3.5,3.2,0.5,4.1,5.8
				c0.9,5.3,1.7,1.5,1.9,6.7c0.1,4.1,3.8-4.8,7.9-0.2c4.1,4.6,9.8-0.8,9.3,5.5c-0.5,6.3,8.8,10.3,5.8,16.5s3.8,8.9,0.5,13.6
				c-3.3,4.6,4,8.6-1.1,13.2c-5,4.6,2.9,6.9-1.9,11.9c-4.9,5,1,9.8-3.3,13.8c-4.3,3.9,1.5,10.6-2.6,13.6c-4.1,3,4.7,6,0.5,12
				c-4.2,6,2,14-0.9,16.8c-2.9,2.8,3.5,8.7,0.6,13.6s4.5,9.5,1.1,13.1c-3.3,3.6,3.3,6.9,1,10.6c-2.3,3.7,2.9,8.7,0.9,12.4
				c-1.9,3.7-1.1,7.1,0.7,8.8c1.8,1.8-2,4.8-0.2,8c1.8,3.2-1.3,4.3-1.3,4.3C584.1,500,532.8,500,532.8,500z"/>
			<path class="st4" d="M575.6,346.8c-6.3,0-5.8,4.5-11,8.6c-4.9,3.9-4,8.8-0.6,10.7c4.8,2.7,8.9-1.6,11.8-1.6c2.8,0,7.9,5.3,12.5,1
				c4.7-4.4,0-8.9-2.7-11.3C582.5,351.5,581.7,346.8,575.6,346.8z"/>
			<path class="st4" d="M544.4,331.8c-4.5,1.8,0.9,14.5,4.6,13.1C552.7,343.5,552,328.8,544.4,331.8z"/>
			<path class="st4" d="M564.2,319.7c-5.7,0.9-2.1,14.4,2.4,13.9C571,333.1,570.6,318.6,564.2,319.7z"/>
			<path class="st4" d="M586.9,318.2c-4.7-0.7-5.6,12.6-1.5,13.8S591.7,318.9,586.9,318.2z"/>
			<path class="st4" d="M606.3,330.5c-4.5-2.6-8.4,7.4-5.6,9.9C603.2,342.5,610.1,332.7,606.3,330.5z"/>
		</g>
		<g>
			<path class="st6" d="M765.9,304.9c1.1-1,2.9-7.4,2.7-9.8c-5,1.9-7.8,6.5-7.8,6.5C763.3,304.3,765.9,304.9,765.9,304.9z"/>
			<path class="st6" d="M719.5,302c-0.6-1.4-5.8-5.4-8.2-6.1c0,5.3,3.2,9.6,3.2,9.6C718,304.2,719.5,302,719.5,302z"/>
			<path class="st6" d="M697.5,333c-1.3-0.8-7.9-1.1-10.2-0.2c3.1,4.3,8.2,6,8.2,6C697.5,335.7,697.5,333,697.5,333z"/>
			<path class="st6" d="M783.7,337.6c2.9-1.9,6.6-7.9,6.6-7.9c-6.1,0.4-10.4,3.1-10.4,3.1C782.1,338,783.7,337.6,783.7,337.6z"/>
			<g>
				<defs>
					<path id="SVGID_1_" d="M704.7,355.6c-6-2.5-10.2-8.5-10.2-15.4c0-8.8,6.9-16.1,15.6-16.6c-0.9-2-1.3-4.2-1.3-6.6
						c0-9.3,7.5-16.8,16.8-16.8c5.8,0,10.9,2.9,14,7.4c3.2-4.7,8.7-7.8,14.8-7.8c9.9,0,18,8.1,18,18c0,2.8-0.6,5.4-1.7,7.7
						c7.9,0.8,14.1,7.5,14.1,15.6c0,6.7-4.2,12.4-10.1,14.7c-0.9,0.7-1.6,1.4-2.2,2.1c-5.7,6.6-3.3,13.5-2.3,10
						c2.3,6.2-0.8,20.4,2.7,12.6c0.8,2.4,2,9,1.2,16.8c-1,9.4,0.9,10.2,2.2,7c3.8,9.6,1.2,14.4,2.3,19.5c0,0,0.8-0.8,1.2-2.3
						c0.7,5.9-1.5,15.1-0.8,21.1c0,0,1.6-0.4,1.8-3.7c2.9,11.1-0.8,18.1,0.8,22.4c0,0,1.1-0.2,1.4-3.4c2.5,6.9-1.3,11.5-0.2,21.1
						c0,0,0.9-0.5,1.9-4.7c0.7,8.9-2.2,13.5-2,25.4c-53.9,0-78.3,0-78.3,0s-3.9-8.7-1.8-18.4c0,0-0.2,3.4,1.4,5.2
						c0,0,0.2-4.4-0.2-8.4c-0.4-4-2.4-10.1,0.1-16.4c0,0-0.1,3.3,0.9,4.9c0,0,0.7-2.4,0.4-6.1s-1.6-8.8-0.1-12.7
						c0,0,0.4,2.7,1.1,3.1c0,0,0.7-1.5,0.5-5.4c-0.3-3.9-1.4-8.5-0.6-11.2c0,0,0.6,1.7,1.4,1.1c0.8-0.6-1.6-7.8,0-12.1
						c-0.1,1,0.7,3,1.3,3c0.3-0.1,0.5-5.2,0.1-8.1s-0.8-7,0.3-11.1c0,0,0.1,3.2,1.2,2.4c0.7-3.1-1.4-11.7,0-15.8
						c0,0,0.7,2.3,1.5,2.2c0-0.5-1.1-6.2,0-10.7c1.2,2.7,3.3-2.1,1.2-9c2.5,0.7,0.9-3.5-0.8-10.9C716.5,364,711.3,358.9,704.7,355.6
						z"/>
				</defs>
				<use xlink:href="#SVGID_1_"  style="overflow:visible;fill:#FCD228;"/>
				<clipPath id="SVGID_2_">
					<use xlink:href="#SVGID_1_"  style="overflow:visible;"/>
				</clipPath>
				<g class="st7">
					<g>
						<g>
							<path class="st8" d="M763.7,418.9c0.2,0.3,0.4,0.6,0.7,0.9c0.5-0.6,1.2-0.9,2.1-0.9c0.8-1.2,2.4-2,3.8-1c2.7,2,3.2,5.3,1,7.9
								c-0.4,0.5-1,0.8-1.7,0.8c-0.6,1.4-2.2,2.1-3.6,1.5c-0.1,0.1-0.3,0.2-0.4,0.3c-1.4,0.8-3,0.2-3.8-1c-1.4-2-2.4-4.1-3-6.4
								C757.6,417.9,762,416.3,763.7,418.9z"/>
						</g>
						<g>
							<path class="st8" d="M759,386.3c0.5,0.4,1,0.7,1.5,1.2c1.1,0.2,2.1,0.9,2.2,2c0.1,0.5,0.1,0.8,0.3,1.1
								c0.1,0.1,0.2,0.3,0.2,0.4c0.9,1.8-0.1,3.4-1.5,4c0.6,2.1-0.2,4.2-1.5,5.8c-2.3,2.8-6.3-1.2-4-4c0.1-0.1,0.1-0.6-0.1-0.7
								c-1-0.7-1.9-1.4-2.4-2.5c-1.1-2.5,0.3-4.9,1.9-6.9C756.3,385.8,758,385.6,759,386.3z"/>
						</g>
						<g>
							<path class="st8" d="M739.7,407.1c0,0-0.1,0.1-0.1,0.2c-0.2,0.3-0.3,0.7-0.5,1c-0.5,1.1-1.5,1.8-2.6,2.2
								c-3.1,1-5-2.6-6.3-4.7c-2-3.1,2.9-5.9,4.8-2.8c0.1,0.2,0.2,0.4,0.4,0.6c0.3-0.4,0.7-0.8,1.2-1.1c1.3-0.8,3.1-0.3,3.8,1
								C741.1,404.7,740.7,406.2,739.7,407.1z"/>
						</g>
						<g>
							<path class="st8" d="M727.6,434c0.1,0.1,0.1,0.2,0.2,0.4c1.2,0.6,2.2,1.5,3,2.7c0.7,1.1,1.3,2.3,1,3.6
								c-0.3,1.5-1.6,2.6-3.1,2.7c-1.9,0-3.1-1.2-3.9-2.7c-1,1.5-3.5,1.9-4.7-0.1c-0.7-1.1-1.4-2.2-2.2-3.3c-0.4-0.5-1.4-2.3-2.1-3
								c-1,0.2-2.2,0.2-2.9-0.7c-1-1.2-1.4-2.6-1.4-4.2c-0.1-1.9,0.2-3,1.8-4c0,0,0,0,0,0c0.2-0.6,0.3-1.2,0.5-1.9
								c0.3-1.4,1.9-2.3,3.3-2c1.2-1.4,2.9-2.3,4.7-2.4c0.5,0,0.9,0.1,1.3,0.3c0.5-0.3,1-0.5,1.6-0.5c1.2-0.2,2.6,0.1,3.2,1.3
								c1.3,2.9,2.6,5.7,3.9,8.6C732.7,431.4,730.4,434.4,727.6,434z"/>
						</g>
						<g>
							<path class="st8" d="M778.9,455c-1.5,1.3-3.3,0.7-4.3-0.5c-1,0.5-2.1,0.4-3-0.6c-0.4-0.5-0.9-1.1-1.3-1.6
								c-1.1,0-2.2-0.6-2.7-1.9c-0.4-1.1-0.8-2.2-1.3-3.3c-0.9-2.3,2.2-4.4,4.1-3.2c0-0.2-0.1-0.3-0.1-0.5c-0.2-1.5,0.4-3,2-3.5
								c1.3-0.4,3.2,0.4,3.5,2c0,0.2,0.1,0.4,0.1,0.7c0.5,0.1,1,0.3,1.5,0.7c0.5,0.4,1.3,0.5,1.9,0.6c1.1,0.3,2.1,0.7,3,1.3
								c1.2,0.8,2.1,2,2.9,3.3c2,0.4,3.3,3.2,1.5,4.8c-0.3,0.3-0.6,0.5-0.9,0.8c0,0-0.1,0-0.1,0.1c-0.1,0.2-0.2,0.3-0.4,0.5
								c-0.7,0.7-1.6,1.3-2.6,1.3c-1.3,0-2.5-0.5-3.6-1.1C779.1,454.8,779,454.9,778.9,455z"/>
						</g>
						<g>
							<path class="st8" d="M769.8,488.1c0.5-0.3,1.1-0.5,1.8-0.7c0.1-0.4,0.2-0.7,0.3-1.1c0.6-2.1,3.1-2.6,4.7-1.2
								c1.8,1.5,2.9,3.5,3.5,5.8c0.4,1.7-0.7,3-2,3.4c0,0,0,0,0,0c0,0.2,0,0.4-0.1,0.5c0.1,0,0.2,0.1,0.3,0.2
								c0.3-0.1,0.6-0.1,0.9-0.1c2.8,0,3.4,3.4,1.9,4.9c-0.5,1.1-1.8,2-3.1,1.7c-0.1,0.3-0.2,0.6-0.3,0.9c-1.7,3-5,4.3-8.3,3.8
								c-0.9-0.1-1.7-1.1-2-2c-0.4-1.3,0.3-2.4,1.3-3.2c-0.3,0.2,0-0.1,0.2-0.2c0,0,0.1-0.2,0.2-0.3c-1,0.4-2.1,0.5-3.2,0.6
								c-1.5,0.1-2.9-1.4-2.8-2.8C763.4,493.9,765.9,490,769.8,488.1z"/>
						</g>
						<g>
							<path class="st8" d="M717.1,494c0.3-0.3,0.7-0.6,1.2-0.7c0.4-0.1,0.9-0.2,1.3-0.3c0.2-1.2,1.1-2.2,2.6-2.1c0.1,0,0.1,0,0.2,0
								c0.6-0.8,1.3-1.7,1.9-2.5c2.2-2.8,6.2-0.6,4.9,2.7c1.4,0.1,2.6,1.1,2.7,2.6c0.3,0.1,0.6,0.4,0.9,0.6c1.6,0.1,3.1,0.6,3.9,2.1
								c1.4,2.5-0.1,5.3-2.2,6.8c-1.2,0.9-3,1-4.4,1c-0.9,0-2.5-0.3-3.2,0.4c-2,1.8-4.8,0-4.9-2c-0.4-0.1-0.7-0.2-1-0.3
								c-0.1,0-0.1-0.1-0.2-0.1c-0.3,0-0.5-0.1-0.8-0.3c-1.9-1-3.8-1.9-5.7-2.9C711.3,497.4,714,492.7,717.1,494z"/>
						</g>
						<g>
							<path class="st8" d="M764.6,462.6c0.7-0.6,1.5-0.9,2.6-0.6c2.2,0.6,6,1,6.8,3.7c0.5,1.7-0.6,3.3-2.1,3.9
								c-1.6,0.6-2.8-0.5-3.9-1.4c-0.8,1.1-2.2,1.5-3.6,0.8c-1.1-0.5-1.8-1.2-2.4-2.2c-0.9-1.2-0.2-3.1,1-3.8
								C763.4,462.6,764,462.5,764.6,462.6z"/>
						</g>
						<g>
							<path class="st8" d="M749,441.3c0,0.1,0,0.1-0.1,0.2c0,0,0,0,0,0.1c0,0,0,0,0,0.1c0,0,0,0.1,0,0.1c0.4,1.5-0.5,3-2,3.5
								c-1.5,0.4-3.1-0.5-3.5-2c-0.5-1.7-0.2-3.8,0.9-5.2c0.9-1.2,2.4-1.8,3.8-1c1.2,0.7,1.9,2.6,1,3.8
								C749.1,441,749,441.1,749,441.3z"/>
						</g>
						<g>
							<path class="st8" d="M722.9,389c-1.5,0-2.8-1.3-2.8-2.8c0-0.2,0-0.5,0-0.7c0-1.5,1.3-2.8,2.8-2.8s2.8,1.3,2.8,2.8
								c0,0.2,0,0.5,0,0.7C725.7,387.8,724.5,389,722.9,389z"/>
						</g>
						<g>
							<path class="st8" d="M715.5,455.2c-1.9,1.1-4,0.5-5.5-0.9c-0.7-0.6-1-1.5-1.4-2.3c-0.7,0.2-1.4,0.1-2.1-0.3
								c-1.2-0.7-1.9-2.6-1-3.8c0.5-0.8,1.2-1.3,1.9-1.6c-0.1-0.8,0.2-1.5,0.8-2.2c1-1,3-1.2,4,0c1.4,1.6,2.9,3.2,4.1,4.9
								C717.6,450.9,717.7,453.9,715.5,455.2z"/>
						</g>
						<g>
							<path class="st8" d="M735.6,481.2c-0.3-0.9-0.7-1.8-1-2.7c-0.1-0.3-0.2-0.5-0.2-0.8c-0.8-0.2-1.4-0.8-1.6-1.9
								c-0.3-2.2-0.5-4.2,0.7-6.2c0.2-0.3,0.4-0.6,0.7-0.9c-0.2-1.5-0.3-2.9-0.3-4.4c0.1-2.9,3.7-3.5,5.1-1.7c0.6-0.3,1.3-0.4,2-0.2
								c1.4,0.4,2.4,2,2,3.5c-0.1,0.3-0.2,0.7-0.4,1c2.1-0.3,4.4,0.8,5.3,3.2c0.1,0.4,0.2,0.8,0.1,1.2c1.5,1.3,2.6,3.1,3,5.1
								c0.2,1.2-0.3,2.3-1.1,3c0.6,2.1,0.7,4.4-1.3,5.8c-2.2,1.5-5.4,0.8-7.7-0.1c-0.9-0.3-1.5-1-1.8-1.8
								C737.6,483.4,736.2,482.6,735.6,481.2z"/>
						</g>
						<g>
							<path class="st8" d="M699.6,484.3c0-0.8,0.4-1.7,1.4-2.2c0.8-0.4,0.6-1.8,0.6-2.6c0-0.5,0-1,0.1-1.5c-0.5-2.4-0.8-4.8-1-7.3
								c-0.1-1.8,1.2-2.7,2.6-2.7c0.3-3.2,5.4-3,5.6,0.5c0.1,1.8,0.7,3.4,1.6,5c0.4,0.6,0.5,1.3,0.3,2c1.1-0.5,2.3-0.5,3.2,0.5
								c1,1,1.2,3,0,4c-0.2,0.2-0.5,0.4-0.7,0.5c0.2,1.7,0.1,3.4-0.5,5.1c-0.5,1.4-1.7,2.1-2.9,2c0,0-0.1,0.1-0.1,0.1
								c-2.5,2.9-6.3,2.6-9.6,1.7C697.8,488.6,697.9,485.5,699.6,484.3z"/>
						</g>
					</g>
				</g>
			</g>
			<path class="st8" d="M742.7,331.5c-9.7,0-18.1,15.1-14.2,18.7c5.8,5.4,8-0.4,13.5-0.4s9.4,5.3,14.3,1.4
				C761.4,347.1,752,331.5,742.7,331.5z"/>
			<path class="st8" d="M766.9,339.8c0,1.8,1.5,3.2,3.2,3.2c1.8,0,3.2-1.5,3.2-3.2s-1.5-3.2-3.2-3.2
				C768.4,336.6,766.9,338.1,766.9,339.8z"/>
			<path class="st8" d="M749.9,319.9c0,1.8,1.5,3.2,3.2,3.2s3.2-1.5,3.2-3.2c0-1.8-1.5-3.2-3.2-3.2S749.9,318.1,749.9,319.9z"/>
			<path class="st8" d="M722.9,320.5c0,1.8,1.5,3.2,3.2,3.2c1.8,0,3.2-1.5,3.2-3.2c0-1.8-1.5-3.2-3.2-3.2
				C724.4,317.3,722.9,318.7,722.9,320.5z"/>
			<path class="st8" d="M708.5,342.1c0,1.8,1.5,3.2,3.2,3.2s3.2-1.5,3.2-3.2c0-1.8-1.5-3.2-3.2-3.2S708.5,340.3,708.5,342.1z"/>
			<g>
				<path class="st9" d="M743.3,369.1c2.9,0,5.8-0.4,8.4-1.3c0.6-0.2,0.9-0.8,0.7-1.4c-0.2-0.6-0.8-0.9-1.4-0.7
					c-4.6,1.5-10.7,1.5-15.4,0c-0.6-0.2-1.2,0.1-1.4,0.7c-0.2,0.6,0.1,1.2,0.7,1.4C737.5,368.7,740.4,369.1,743.3,369.1z"/>
			</g>
		</g>
		<g>
			<path class="st6" d="M549.5,195.1c-1.1,1-2.9,7.4-2.7,9.8c5-1.9,7.8-6.5,7.8-6.5C552.2,195.7,549.5,195.1,549.5,195.1z"/>
			<path class="st6" d="M595.9,198c0.6,1.4,5.8,5.4,8.2,6.1c0-5.3-3.2-9.6-3.2-9.6C597.4,195.8,595.9,198,595.9,198z"/>
			<path class="st6" d="M618,167c1.3,0.8,7.9,1.1,10.2,0.2c-3.1-4.3-8.2-6-8.2-6C617.9,164.3,618,167,618,167z"/>
			<path class="st6" d="M531.7,162.4c-2.9,1.9-6.6,7.9-6.6,7.9c6.1-0.4,10.4-3.1,10.4-3.1C533.3,162,531.7,162.4,531.7,162.4z"/>
			<path class="st10" d="M610.7,144.4c6,2.5,10.2,8.5,10.2,15.4c0,8.8-6.9,16.1-15.6,16.6c0.9,2,1.3,4.2,1.3,6.6
				c0,9.3-7.5,16.8-16.8,16.8c-5.8,0-10.9-2.9-14-7.4c-3.2,4.7-8.7,7.8-14.8,7.8c-9.9,0-18-8.1-18-18c0-2.8,0.6-5.4,1.7-7.7
				c-8.6-0.8-14.1-6.6-14.1-15.6c0-6.6,4.9-12.8,10.1-14.7c8.7-4.1,10.2-2.7,7.7-21.3C545,96.8,536.8,36.5,535.6,0
				C589.5,0,611,0,611,0c-2.8,71.3-12.8,134.8-12.2,139.5C599.3,143,604.1,141.1,610.7,144.4z"/>
			<path class="st11" d="M548.5,122.8c0,0.3,0.1,0.7,0.1,1c0,0.1,0,0.2,0,0.2c0,0.3,0.1,0.5,0.1,0.8c0,0.1,0,0.2,0,0.2
				c0.1,0.7,0.2,1.3,0.2,1.9c0,0,0,0,0,0c1.7-16,4.8-23.9,2.1-34.6c-2-8.2-1.3-12.8-0.4-17.4c0,0,0,0,0,0
				c8.2-25.2,12.6-8.7,15.1-29.4c2.5-20.6,9.6-29.2,15.4-18c5.8,11.2-1.2,15.7,7.2,21c7.8,4.9,9.6,13.6,8.4,23.9
				c-1.1,3.4-1.8,6.4-0.8,9.9c4.1,14.7-4.1,23.8-0.4,31.1c3.8,7.4,3.3,13.2,3.8,17.4c0,0,0,0,0,0c2.2-20.4,9.2-73.1,11.5-130.8
				c0,0-0.5,0-1.5,0c-5.7,0-28.1,0-73.9,0C536.8,36.5,545,96.8,548.5,122.8z"/>
			<path class="st4" d="M572.7,168.5c9.7,0,18.1-15.1,14.2-18.7c-5.8-5.4-8,0.4-13.5,0.4c-5.5,0-9.4-5.3-14.3-1.4
				C554,152.9,563.5,168.5,572.7,168.5z"/>
			<path class="st4" d="M548.5,160.2c0-1.8-1.5-3.2-3.2-3.2c-1.8,0-3.2,1.5-3.2,3.2s1.5,3.2,3.2,3.2
				C547,163.4,548.5,161.9,548.5,160.2z"/>
			<path class="st4" d="M565.5,180.1c0-1.8-1.5-3.2-3.2-3.2s-3.2,1.5-3.2,3.2c0,1.8,1.5,3.2,3.2,3.2S565.5,181.9,565.5,180.1z"/>
			<path class="st4" d="M592.5,179.5c0-1.8-1.5-3.2-3.2-3.2c-1.8,0-3.2,1.5-3.2,3.2c0,1.8,1.5,3.2,3.2,3.2
				C591,182.7,592.5,181.3,592.5,179.5z"/>
			<path class="st4" d="M607,157.9c0-1.8-1.5-3.2-3.2-3.2c-1.8,0-3.2,1.5-3.2,3.2s1.5,3.2,3.2,3.2C605.5,161.2,607,159.7,607,157.9z
				"/>
			<g>
				<path class="st9" d="M572.1,130.9c-2.9,0-5.8,0.4-8.4,1.3c-0.6,0.2-0.9,0.8-0.7,1.4c0.2,0.6,0.8,0.9,1.4,0.7
					c4.6-1.5,10.7-1.5,15.4,0c0.6,0.2,1.2-0.1,1.4-0.7c0.2-0.6-0.1-1.2-0.7-1.4C577.9,131.3,575,130.9,572.1,130.9z"/>
			</g>
		</g>
		<g>
			<path class="st12" d="M371.9,321.3c-2.1-1.3-3.8-4.8-5.1-8.1c3.3,1.2,6.9,2.6,8.3,4.9C374.7,319,371.9,321.3,371.9,321.3z"/>
			<path class="st12" d="M396.7,302.4c-1.3-2.1-1.3-6.2-1.1-9.5c2,1.7,5.1,5,5.4,7.8C400.3,301.3,396.7,302.4,396.7,302.4z"/>
			<path class="st12" d="M428.3,301.3c0-2.5,2-5.9,4-8.7c0.8,3.4,1.6,7.2,0.4,9.7C431.7,302.4,428.3,301.3,428.3,301.3z"/>
			<path class="st12" d="M452.1,315.7c0.9-2.2,4.2-4,7.9-5.4c-1.2,3.6-2.3,7-4.6,8.5C454.5,318.4,452.1,315.7,452.1,315.7z"/>
			<path class="st6" d="M376.5,499.8c-1.9-3,0-4.1-1.2-5.9c2.1-2.2,0.7-5.4,0.3-5.9c2.3-1.2,1.3-4.1,1-4.8c1.8-1.6,1.3-3.6,1-4.6
				c1.1-1.2,1.5-3.2,0.7-4.3c0.9-1.8,0.4-3.4-0.2-4.5c2.7-3.2,0.7-5.7,0.7-5.7c1.4-1.6,0.7-4.7,0.7-4.7c1.2-2.7-0.6-4.8-0.6-4.8
				c1.6-2.4,1.8-4.1,1-4.3c1.6-2.1,1.3-3.6,0.5-4.9c1.4-1,0.5-4.6-0.2-5.3c1.6-1,1.4-3.9,1.1-5c1.4-0.3,1-3.7,0.2-4.6
				c0.7-1.1,2-3.3,0.7-4.2c1.9-2.6,1.9-5,0-4.4c1.8-3.8,0.8-5.1-0.1-4.4c2.4-5,1.7-6.6,0.1-7.3c4.1-3.6-0.7-5.7-1.1-5.7
				c4.3-3.6,4.4-7,2.8-6.6c0.3-2.7,3.4-8.3-0.5-8c2-2,3.1-4.8-0.3-5.9c3.1-4.3,2.2-5.4,0.9-7.9c1.8-3,3.8-7.6,0.7-9.2
				c2-3.2-1.4-5.9-2-5.8c0.3-4.4-2-4.7-3.3-4.7c2.7-2.5,1.1-7.3-1.3-6.9c1.4-2.5-1.6-3.8-3.5-4c1.1-1.9,1.6-5.7-2.3-5.7
				c2-2.6,0-7.3-3.2-7.2c2.2-2.5-0.2-6.6-1.8-6.7c1.7-2.5,0.7-4.8,0-6c4-0.8,5.2-2.3,6-6.2c2,1.4,3.6,0.5,3.9-0.8
				c2,1.8,4.2,0.6,4.9-0.5c0.8,2.8,4,3.5,4.9,1.9c1.9,1.9,4.4,0.7,1.9-1.9c2.3-2.4,1.2-3.6-0.1-5.1c2.2-0.1,3.8-2.3,2.8-5.2
				c3.3,0.7,3.2-2.4,3.2-2.8c2.4,1.1,3.4-0.3,3.8-2.2c2.7,2.5,3.5,1.3,4.9,0.1c1,3.3,3.6,2.2,4.3,1.4c0.3,2.9,2.8,4,4.1,3.4
				c-0.1,2.2,0.8,5,2.2,4.1c0.6,2.6,3.1,0.2,2.2-1.9c3.1,0.4,3.3-1.1,3.3-2.5c2.3,0.7,3.1-0.7,3.1-1.6c2.7,0.7,3.7-0.7,3.8-0.9
				c2,0.7,2.5-0.8,2.5-0.8c1.9,1.5,3.7,0.6,3.7,0.6c1,2.2,2.7,2.1,3,1.9c0.4,2.4,2.3,2.6,2.3,2.6c0,2.2,1.7,3.3,1.7,3.3
				c-0.4,2.4,0.7,2.9,0.7,2.9c-0.9,1.7-0.5,3.5,0.3,3.2c-1.3,1.6-1,3.6-0.4,2.7c0.1,1.7,1.9-0.1,1.9-1.4c2.1,1.1,3-0.9,3-1.1
				c1.7,1.7,3.2-0.8,3.2-0.8c1.8,1.9,3.8-0.3,3.8-0.1c0.9,2.2,1.8,2.3,3.5,1.7c-0.6,1.7,1.1,2.5,2,2.2c-0.2,1.9,0.1,2.4,1.1,2.6
				c-0.6,1.2,0,2.4,0.9,2.7c-1.3,0.6-0.2,2.8,0.5,2.7c-0.5,1.5-1.3,2.5-0.2,3.2c-1.4,0.2-1.4,2-0.9,2.6c-1.3,1,0.3,1.1-1.1,2.7
				c-1.3,1.7-1.8,1.8-1.5,2.5c-0.7,1.1-1.7,1.9-1.3,2.6c-1,1.4-1.6,2.2-1.2,3.4c-1.1,1.5-2.5,1-1.8,2.6c-1.2,1.6-2.4,1.2-1.5,2.8
				c-1.7,0.3-2.2,1.5-2,1.9c-1.7,0.5-2.9,1.5-2.1,2.7c-1.9,0.7-2.4,2-1.5,3.1c-2.3,0.9-2.4,2-1.8,3c-2.8,0.5-3.1,2.1-2.4,2.9
				c-1.6,1.5-3.1,1.4-1.3,2.7c-0.2,1.3-1.5,1.5-0.1,3c-1.3,3-0.7,4.6,0.4,5.2c-1.2,1.1,0.5,0.7-0.4,2.7c-0.9,2-0.4,3.7,0.7,4.2
				c-0.9,1.8-0.3,3.4,0.4,3.5c-2.1,1.5-0.2,3.4,0.5,3.6c-1.7,1.5-0.8,5.1-0.1,5.2c-2,1.5-1,3.1-0.3,3.5c-1.8,2.6,0,5.1,1.2,5.7
				c-1.5,1.1-2.2,1.8-0.9,2.8c-0.4,1.8,0.4,3.9,1.3,4.2c-1.8,1.5-1.1,3,0.1,3.2c-1.4,2-0.7,3,0.1,3.3c-1.3,0.7-1.6,2.7-0.4,3
				c-0.7,1.6-0.1,3.2,1.1,3.3c-1.3,1.1-0.5,3.4,0.3,3.5c-0.9,0.9-1.2,3.8,0.1,4.1c-1,2.2-1.3,5.1,0.6,5.6c-0.9,2.1-2.2,4.1-0.1,5.1
				c-0.6,2.3-1.7,4.1,0.1,5c-0.6,1.9,0,5.4,2,5.8c-2.5,2.2-2.8,6.2-0.6,6.9c-1.7,1.4-1.3,4.3,0.5,4.6c-2.2,1.9-1.5,7.3,1.4,7.5
				c-2.3,2.5-1.7,5.9-0.1,6.3c-0.7,2-1,4.2,0.7,4.9c-2.9,0.8-1.4,5.6,0.4,5.9c-1.7,1,0.8,2.3,0,5.1c-0.8,2.8-1.5,4,0.4,4.4
				c-1.6,0.8,0,5.2,0.7,5.9C445.7,500,376.5,499.8,376.5,499.8z"/>
			<path class="st13" d="M384.6,382.4c0-0.2,0-0.3-0.1-0.4c-0.3,0.6-0.8,1.3-1.4,2.2c3.4,1.1,2.2,3.9,0.3,5.9c3.9-0.4,0.8,5.2,0.5,8
				c1.7-0.4,1.5,3.1-2.8,6.6c0.5,0,5.2,2.2,1.1,5.7c1.6,0.7,2.3,2.3-0.1,7.3c0.9-0.7,1.9,0.6,0.1,4.4c1.9-0.6,1.9,1.8,0,4.4
				c1.3,0.9-0.1,3.1-0.7,4.2c0.8,0.8,1.2,4.3-0.2,4.6c0.3,1,0.5,3.9-1.1,5c0.7,0.7,1.7,4.3,0.2,5.3c0.9,1.3,1.1,2.8-0.5,4.9
				c0.8,0.2,0.6,1.9-1,4.3c0,0,1.7,2.1,0.6,4.8c0,0,0.6,3.1-0.7,4.7c0,0,2.1,2.5-0.7,5.7c0.6,1.1,1.1,2.7,0.2,4.5
				c0.7,1.1,0.4,3.1-0.7,4.3c0.3,1,0.7,3-1,4.6c0.3,0.7,1.3,3.6-1,4.8c0.4,0.5,1.8,3.6-0.3,5.9c1.3,1.8-0.7,2.9,1.2,5.9
				c0,0,69.2,0.2,73.3,0.2c-0.7-0.7-2.3-5.1-0.7-5.9c-1.9-0.4-1.2-1.7-0.4-4.4c0.8-2.8-1.7-4.1,0-5.1c-1.8-0.4-3.3-5.1-0.4-5.9
				c-1.7-0.7-1.4-2.9-0.7-4.9c-1.5-0.4-2.2-3.8,0.1-6.3c-2.9-0.2-3.6-5.6-1.4-7.5c-1.8-0.3-2.2-3.2-0.5-4.6
				c-2.2-0.7-1.9-4.6,0.6-6.9c-2-0.4-2.6-3.9-2-5.8c-1.8-0.8-0.7-2.7-0.1-5c-2.1-1.1-0.8-3,0.1-5.1c-1.9-0.5-1.6-3.4-0.6-5.6
				c-1.3-0.3-1-3.2-0.1-4.1c-0.8,0-1.6-2.3-0.3-3.5c-1.3-0.1-1.8-1.7-1.1-3.3c-1.2-0.3-0.9-2.3,0.4-3c-0.8-0.3-1.5-1.4-0.1-3.3
				c-1.2-0.2-1.9-1.7-0.1-3.2c-0.9-0.3-1.7-2.3-1.3-4.2c-1.4-1-0.6-1.7,0.9-2.8c-1.2-0.6-3-3.1-1.2-5.7c-0.7-0.3-1.7-2,0.3-3.5
				c-0.7-0.1-1.6-3.7,0.1-5.2c-0.4-0.1-1-0.6-1.3-1.3c-0.4,1-1.5,1.2-4.3-0.6c0,0-3,3.1-4.1,0c0,0-1.9,3.4-5.2,1.5
				c-2.5,1.9-6.4-2.2-8.3-1.7c-1.1,1.9-3.3,0-6.9-0.3c-1.4,3.6-3,2.2-7-0.2c-0.9,1.7-2.1,3-6.6,0c-3-1-5.8,2.4-8,0
				C387.4,380.3,385.1,386.5,384.6,382.4z"/>
			<g>
				<path class="st14" d="M412.6,370c-2.4,0-4.8-0.4-6.9-1.1c-0.6-0.2-0.9-0.8-0.7-1.4c0.2-0.6,0.8-0.9,1.4-0.7
					c3.7,1.2,8.6,1.2,12.4,0c0.6-0.2,1.2,0.1,1.4,0.7c0.2,0.6-0.1,1.2-0.7,1.4C417.3,369.7,414.9,370,412.6,370z"/>
			</g>
			<path class="st8" d="M413.6,337c12.9,0,16.3,13.3,11.7,16.8c-4.7,3.6-6.2-2.4-11.4-2.4c-5.2,0-6.9,6-11.6,1.9
				C397.6,349.1,401.9,337,413.6,337z"/>
			<path class="st8" d="M386.6,331.3c-3.6,2.9,4.1,8.6,6.7,6.7C396,336.2,390.1,328.5,386.6,331.3z"/>
			<path class="st8" d="M403.1,319c-2.8,0.9-0.5,9.8,2.6,9.3C410.9,327.6,407.4,317.5,403.1,319z"/>
			<path class="st8" d="M426.5,319.2c-3.9-1.3-6.8,7.8-3.3,9C426.7,329.4,431.1,320.6,426.5,319.2z"/>
			<path class="st8" d="M442.8,331c-2.9-2.3-8.7,4.9-5.9,7.1C439.8,340.4,446.3,333.8,442.8,331z"/>
		</g>
		<g>
			<path class="st15" d="M243.1,117.4c-0.4,23-24.1,47.1-14.3,63.3c3.4,5.3,9.7,5.2,14,5.2c7-0.1,3.3,9.8,11.2,13.1
				c4.4,1.8,9.6,2.1,16.7-2.9c3.2-1.7,6.4,6.4,14.7,5.7c9.9-0.8,10-12.6,12-13c3.1-0.6,10.7,3.2,15.8-4.3
				c9.6-14.1-5.2-34.2-9.3-47.6C294.2,109.3,308.6,0,308.6,0h-74.7C233.9,0,244.2,98,243.1,117.4z"/>
			<path class="st8" d="M273,162.1c-6.9,0-6.4-4.5-12-8.5c-5.3-3.8-4.4-8.7-0.7-10.6c5.3-2.7,9.8,1.5,12.8,1.5c3.1,0,8.6-5.3,13.7-1
				c5.1,4.3,0,8.9-2.9,11.2C280.5,157.5,279.6,162.1,273,162.1z"/>
			<path class="st8" d="M236.2,176.2c-4.6-3.1,4.8-14.6,8.5-12.1C248.4,166.6,243.8,181.4,236.2,176.2z"/>
			<path class="st8" d="M258.6,188.9c-6.6-1-2.4-15.2,2.7-14.7C266.4,174.7,266.1,190,258.6,188.9z"/>
			<path class="st8" d="M285.2,188.8c-7.4,0.9-8.2-13.6-3.5-14.4C288.2,173.3,292.1,187.9,285.2,188.8z"/>
			<path class="st8" d="M308.3,180.4c-5.5,3.6-11.6-9.1-8.3-12.3C303,165.3,312.9,177.4,308.3,180.4z"/>
			<g>
				<path class="st16" d="M273.5,122.2c-5.1,0-10.3,1.2-15.4,3.6c-0.9,0.4-1.1,1.3-0.6,1.9c0.5,0.6,1.7,0.8,2.6,0.4
					c9-4.3,18-4.3,25.9,0c0.8,0.4,2,0.3,2.6-0.3c0.6-0.6,0.4-1.5-0.4-1.9C283.6,123.4,278.6,122.2,273.5,122.2z"/>
			</g>
			<path class="st17" d="M250.2,85.5c12.3,3,15.2,6.5,11.8,7.7c-7.1-1.2-13.5,1.6-19.2,9.2c-0.3-5.1-0.6-11.1-1.1-17.4
				C244,84.6,246.8,84.7,250.2,85.5z"/>
			<path class="st17" d="M257.3,34.5c7.2-1,13,10.2,6.6,10c-6.3-0.2-4.6,8.5-12.4,8.5c-6.6,0-8.3,0.6-12,5.8
				c-0.7-8.5-1.5-16.9-2.3-24.6C243.3,31.5,251.6,35.3,257.3,34.5z"/>
			<path class="st17" d="M301,82.9c-4.4-3.1-6.4-7-10-9.2c-4.7-3-6.2-2-8.7,0c-2.5,2-7.5-1.2-7.5-3.2c0-2,4.2-9,7.7-9.5
				c3.5-0.5,9.5-1.5,12.5-2.5c1.5-0.5,4.4,0.2,7.4,0.8C301.9,67.1,301.4,75.1,301,82.9z"/>
			<path class="st17" d="M305,31.4c-12.7-9.2-19.5-10.4-24.7-8.8c-5.7,1.7-13-2-13.6-5.5c-0.6-3.5,18.1-11.2,28.8-9.2
				c4.8,0.9,8.6,2.6,11.6,4C306.5,17,305.8,23.8,305,31.4z"/>
		</g>
		<g>
			<path class="st2" d="M692.8,0.2c-1.9,3,0,4.1-1.2,5.9c2.1,2.2,0.7,5.4,0.3,5.9c2.3,1.2,1.3,4.1,1,4.8c1.8,1.6,1.3,3.6,1,4.6
				c1.1,1.2,1.5,3.2,0.7,4.3c0.9,1.8,0.4,3.4-0.2,4.5c2.7,3.2,0.7,5.7,0.7,5.7c1.4,1.6,0.7,4.7,0.7,4.7c1.2,2.7-0.6,4.8-0.6,4.8
				c1.6,2.4,1.8,4.1,1,4.3c1.6,2.1,1.3,3.6,0.5,4.9c1.4,1,0.5,4.6-0.2,5.3c1.6,1,1.4,3.9,1.1,5c1.4,0.3,1,3.7,0.2,4.6
				c0.7,1.1,2,3.3,0.7,4.2c1.9,2.6,1.9,5,0,4.4c1.8,3.8,0.8,5.1-0.1,4.4c2.4,5,1.7,6.6,0.1,7.3c4.1,3.6-0.7,5.7-1.1,5.7
				c4.3,3.6,4.4,7,2.8,6.6c0.3,2.7,3.4,8.3-0.5,8c2,2,3.1,4.8-0.3,5.9c1.7,3.7,2.2,5.4,0.9,7.9c1.8,3,3.8,7.6,0.7,9.2
				c2,3.2-1.4,5.9-2,5.8c0.3,4.4-2,4.7-3.3,4.7c2.7,2.5,1.1,7.3-1.3,6.9c1.4,2.5-1.6,3.8-3.5,4c1.1,1.9,1.6,5.7-2.3,5.7
				c2,2.6,0,7.3-3.2,7.2c2.2,2.5-0.2,6.6-1.8,6.7c1.7,2.5,0.7,4.8,0,6c4,0.8,5.2,2.3,6,6.2c2-1.4,3.6-0.5,3.9,0.8
				c2-1.8,4.2-0.6,4.9,0.5c0.4-1.4,3.9-1.1,4.1,0.9c2.9-0.5,3.2,3.4,2.5,4.1c2.2,0.1,4,3.2,3.1,6c3.3-0.7,3.9,1.4,3.9,1.9
				c1.9-0.7,2.3,1.4,2.9,2.7c2.7-1.5,3.4-1.7,4.8-0.5c1-3.3,3.6-2.2,4.3-1.4c0.1-1,1.5-3.1,3.6-2.5c0.5-1.5,2.4-2.3,3.3-0.8
				c2.7-2.1,4.9-0.4,4.9,0.2c2.3-0.7,3.1,0.7,3.1,1.6c2.7-0.7,3.7,0.7,3.8,0.9c2-0.7,2.8,0.4,2.8,0.4c1.9-1.5,3.4-0.2,3.4-0.2
				c1-2.2,2.7-2.1,3-1.9c0.4-2.4,2.3-2.6,2.3-2.6c0-2.2,1.7-3.3,1.7-3.3c-0.4-2.4,0.7-2.9,0.7-2.9c0.7-4,3.8-2.7,3.8-2.5
				c1.7-1.7,4.1,0,4.1,0c1.8-1.9,3.8,0.3,3.8,0.1c0.9-2.2,1.8-2.3,3.5-1.7c-0.6-1.7,1.1-2.5,2-2.2c-0.2-1.9,0.1-2.4,1.1-2.6
				c-0.6-1.2,0-2.4,0.9-2.7c-1.3-0.6-0.2-2.8,0.5-2.7c-0.5-1.5-1.3-2.5-0.2-3.2c-1.4-0.2-1.4-2-0.9-2.6c-1.3-1,0.3-1.1-1.1-2.7
				c-1.3-1.7-1.8-1.8-1.5-2.5c-0.7-1.1-1.7-1.9-1.3-2.6c-1-1.4-1.6-2.2-1.2-3.4c-1.1-1.5-2.5-1-1.8-2.6c-1.2-1.6-2.4-1.2-1.5-2.8
				c-1.7-0.3-2.2-1.5-2-1.9c-1.7-0.5-2.9-1.5-2.1-2.7c-1.9-0.7-2.4-2-1.5-3.1c-2.3-0.9-2.4-2-1.8-3c-2.8-0.5-3.1-2.1-2.4-2.9
				c-1.6-1.5-3.1-1.4-1.3-2.7c-0.2-1.3-1.5-1.5-0.1-3c-1.3-3-0.7-4.6,0.4-5.2c-1.2-1.1,0.5-0.7-0.4-2.7c-0.9-2-0.4-3.7,0.7-4.2
				c-0.9-1.8-0.3-3.4,0.4-3.5c-2.1-1.5-0.2-3.4,0.5-3.6c-1.7-1.5-0.8-5.1-0.1-5.2c-2-1.5-1-3.1-0.3-3.5c-1.8-2.6,0-5.1,1.2-5.7
				c-1.5-1.1-2.2-1.8-0.9-2.8c-0.4-1.8,0.4-3.9,1.3-4.2c-1.8-1.5-1.1-3,0.1-3.2c-1.4-2-0.7-3,0.1-3.3c-1.3-0.7-1.6-2.7-0.4-3
				c-0.7-1.6-0.1-3.2,1.1-3.3c-1.3-1.1-0.5-3.4,0.3-3.5c-0.9-0.9-1.2-3.8,0.1-4.1c-1-2.2-1.3-5.1,0.6-5.6c-0.9-2.1-2.2-4.1-0.1-5.1
				c-0.6-2.3-1.7-4.1,0.1-5c-0.6-1.9,0-5.4,2-5.8c-2.5-2.2-2.8-6.2-0.6-6.9c-1.7-1.4-1.3-4.3,0.5-4.6c-2.2-1.9-1.5-7.3,1.4-7.5
				c-2.3-2.5-1.7-5.9-0.1-6.3c-0.7-2-1-4.2,0.7-4.9c-2.9-0.8-1.4-5.6,0.4-5.9c-1.7-1,0.8-2.3,0-5.1c-0.8-2.8-1.5-4,0.4-4.4
				c-1.6-0.8,0-5.2,0.7-5.9C762,0,692.8,0.2,692.8,0.2z"/>
			<path class="st3" d="M757,12.6c2.5,0.3-0.5-5.2,4-5c3.4,0.2,0.3-7.6,3.7-7.6c-5.5,0-24.3,0.1-41.4,0.1c-2.9,2.4,3,4.2,1.9,8.4
				c-1.8,5.5,3.5,0.4,2.7,6.4c-0.6,4.6,5.8,1.6,5.8,8.1s4.4-2.2,7.4,3.1c3.5,2.1,3.4-7.8,5.9-5.5s1.1-7.1,4.7-4.8
				C757.2,19.1,754.2,12.3,757,12.6z"/>
			<path class="st8" d="M729.2,168.2c12.9,0,16.4-13.3,11.7-16.8c-4.7-3.6-6.2,2.4-11.4,2.4c-5.2,0-6.9-6-11.6-1.9
				C713.2,156,717.5,168.2,729.2,168.2z"/>
			<path class="st8" d="M699.5,173.2c-3.5-3.1,4.4-9.4,7-7.5C709.1,167.5,703.3,176.5,699.5,173.2z"/>
			<path class="st8" d="M717.2,186.9c-4.3-1.7-0.9-10.8,3.1-9.9C725,178.1,721.4,188.6,717.2,186.9z"/>
			<path class="st8" d="M743.7,186.4c-4,1.1-6.8-8.2-3.3-9.3C744,176,748.4,185.1,743.7,186.4z"/>
			<path class="st8" d="M759.7,170.3c-2.9,2.3-8.7-4.9-5.9-7.1C756.7,161,763.2,167.6,759.7,170.3z"/>
			<path class="st3" d="M698.8,73.9c-0.1-0.1-0.2-0.2-0.2-0.4c1.3-0.9-0.1-3.1-0.7-4.2c0.8-0.8,1.2-4.3-0.2-4.6c0.3-1,0.5-3.9-1.1-5
				c0.7-0.7,1.7-4.3,0.2-5.3c0.9-1.3,1.1-2.8-0.5-4.9c0.8-0.2,0.6-1.9-1-4.3c0,0,1.7-2.1,0.6-4.8c0,0,0.6-3.1-0.7-4.7
				c0,0,0.6-0.7,0.7-1.9c1.8-0.3,3.7-0.6,5.6,0.2c3.5,1.5,2.7-0.2,3.2,3.7c0.5,4,3,0.2,3.5,6.7c0.5,6.5,5,2.5,2.2,5.2
				c-2.7,2.7,3,4.5,1.2,5c-1.7,0.5,6.7,7.7,3.5,8.7c-3.2,1,1.2,4.2-1.5,3.5c-2.7-0.7-3.2,5.7-5.2,5.7c-2,0-3,3.7-5.5,1.5
				C700.9,72.4,701.2,74.8,698.8,73.9z"/>
			<path class="st3" d="M758.8,93.4c-0.3,0.1-0.6,0.4-0.8,0.8c-4.3,3.7-8.7,3.2-6.4-4.2c2.5-8-9.5-6-4-9.7c5.5-3.7-1-3.5,1.5-6.5
				c2.5-3-5.4-5-3-6.2c2.5-1.2,2-2.5,2-2.5s-0.7,0-0.5-2.7c0.2-2.7-0.5-4.5,0.5-6.7c1-2.2,2.7-1.7,2.7-3c0-1.2,2.5,0.5,2.7-1.7
				c0.2-2.2,5-1,5.2-2.2c0.3-1.2-0.5-6.7,0-6.5c0.4,0.2,0-2.4,2.6-1c-0.5,1-0.3,2.6,0.8,3.6c-2.2,0.7-1.9,4.6,0.6,6.9
				c-2,0.4-2.6,3.9-2,5.8c-1.8,0.8-0.7,2.7-0.1,5c-2.1,1.1-0.8,3,0.1,5.1c-1.9,0.5-1.6,3.4-0.6,5.6c-1.3,0.3-1,3.2-0.1,4.1
				c-0.8,0-1.6,2.3-0.3,3.5c-1.3,0.1-1.8,1.7-1.1,3.3c-1.2,0.3-0.9,2.3,0.4,3c-0.8,0.3-1.5,1.4-0.1,3.3
				C757.7,90.4,757,91.9,758.8,93.4z"/>
			<path class="st3" d="M699.5,138.5c1-0.6,3.3-2.9,1.6-5.7c3.2-1.6,1.1-6.2-0.7-9.2c1.2-2.4,0.7-4.1-0.9-7.9
				c3.4-1.1,2.2-3.9,0.3-5.9c3.6,0.3,1.3-4.4,0.6-7.3c2.8-0.1,4.2,4.2,5.6,3.6c1.7-0.7-2.7,5.2,0,5c2.7-0.2,2.5,4.2,5.7,3.7
				c3.2-0.5,0,5.2,4.2,4.5c4.2-0.7-2.7,2-1.2,5.2s-9.5,0.5-8.2,4.7c1.2,4.2-0.7,2.7-2,6.7C703.8,138.1,701.7,138.7,699.5,138.5z"/>
		</g>
		<g>
			<path class="st18" d="M399.2,139.5c-4.9,18.5-21.5,27.2-14.3,38.8c6.4,10.2,16.7,2.9,18.5,3.6c1.8,0.7-1.7,12.9,7.9,16.1
				c10.4,3.5,14-6.7,16.5-7.1c2.5-0.4,6.8,11.4,17.7,7.6c7.4-2.6,7.8-10,6.7-16c-0.2-2,1.8,1.4,7.7,2.9c7.9,2,15.9-5.8,10.5-17.7
				c-5.4-12-17.5-25.4-18.2-30.7c-0.6-5.4,6.7-103.6,9-136.9c-42.3,0-71.8,0-71.8,0S402.1,128.9,399.2,139.5z"/>
			<path class="st3" d="M427.1,159.8c12.9,0,16.3-13.3,11.7-16.8c-4.7-3.6-6.2,2.4-11.4,2.4c-5.2,0-6.9-6-11.6-1.9
				C411,147.7,415.3,159.8,427.1,159.8z"/>
			<path class="st3" d="M394.7,172.9c-3.8-2.8,3.3-9.5,6.7-6.7C403.9,168.2,398.6,175.8,394.7,172.9z"/>
			<path class="st3" d="M417.1,185.2c-3.1-0.5-2.1-9.8,2.8-10C424.8,175,422.8,186,417.1,185.2z"/>
			<path class="st3" d="M441.9,185c-3.9,1.5-6.8-7.5-3.4-8.9C442,174.6,446.5,183.2,441.9,185z"/>
			<path class="st3" d="M461.2,172.4c-2.8,2.4-8.9-4.5-6.1-6.9C457.9,163.2,464.6,169.5,461.2,172.4z"/>
			<path class="st3" d="M461.4,0c-1.3,19.8-4.5,62.6-6.7,95.1c-19.9-0.5-20.4-14.7-13.7-30.8c7.5-18-31.6-15-19.7-35.6
				c6.3-10.9,1.9-20.6,0-28.8C432.4,0,446,0,461.4,0z"/>
		</g>
		<g>
			<path class="st3" d="M231.4,360.5c-5-12.6-19.7-32.2-15-39.7c6.4-10.2,17.4-2,19.2-2.7c1.8-0.7-2.1-13.7,7.5-16.9
				c10.4-3.5,14.4,7.6,16.9,8s6.8-11.4,17.7-7.6c7.4,2.6,7.8,10,6.7,16c-0.2,2,1.8-1.4,7.7-2.9c7.9-2,15.9,5.8,10.5,17.7
				c-5.4,12-17.5,25.4-18.2,30.7c-0.6,5.4,6.7,103.6,9,136.9c-42.3,0-71.8,0-71.8,0S235.5,370.7,231.4,360.5z"/>
			<path class="st4" d="M257.4,338.1c12.9,0,16.3,13.3,11.7,16.8c-4.7,3.6-6.2-2.4-11.4-2.4c-5.2,0-6.9,6-11.6,1.9
				C241.3,350.3,245.6,338.1,257.4,338.1z"/>
			<path class="st4" d="M230.9,332.2c-3.6,3,3.7,8.7,6.2,6.6C239.6,336.7,234.2,329.5,230.9,332.2z"/>
			<path class="st4" d="M247.9,321.1c-2.7,1.1,0.3,9.4,3.3,8.5C253.7,328.8,252.1,319.3,247.9,321.1z"/>
			<path class="st4" d="M270,321.7c-3.9-1.3-7.2,8.2-3.7,9.4C269.7,332.4,274.6,323.2,270,321.7z"/>
			<path class="st4" d="M285.9,332.2c-2.9-2.3-8.7,4.9-5.9,7.1S289.4,334.9,285.9,332.2z"/>
			<path class="st8" d="M289.1,437.5c-5.9,26.2-15.6,18-16,29.6c-0.4,11.6-15.3,6.4-16.6,15.7c-0.7,5.1-5.3,11.2-4.5,17.2
				c11.4,0,25.5,0,41.5,0C292.6,486.4,290.9,462,289.1,437.5z"/>
			<g>
				<g>
					<g>
						<path class="st8" d="M250.2,440.3c-2.2-10.1,6.3-15,11.5-26.1c5.2-11.1-15-10.2-18.2-18.5c-2.5-6.6-6.2-2.4-12.1-6.6
							c-0.9,16.7-2.7,38.1-4.5,57.7C236.6,451.8,252.1,448.9,250.2,440.3z"/>
					</g>
					<g>
						<path class="st8" d="M224.4,474.3c-0.2,2.2-0.4,4.3-0.6,6.3c-0.7,7.4-1.4,14-1.9,19.4C227.7,491.9,229.2,482.6,224.4,474.3z"
							/>
					</g>
				</g>
			</g>
		</g>
		<g>
			<path class="st10" d="M916.4,360.5c5-12.6,19.7-32.2,15-39.7c-6.4-10.2-17.4-2-19.2-2.7c-1.8-0.7,2.1-13.7-7.5-16.9
				c-10.4-3.5-13.5,10.4-16.8,9.4c-2.4-0.7-7.9-11.8-16.5-8.9c-7.2,1.9-7.4,9.4-7.1,15.7c0.7,3-2.5,0.5-8.6,0
				c-8.1-0.6-14.3,6.7-9.7,16.8c5.4,12,16.7,23.6,17.3,29c0.6,5.4-6.7,103.6-9,136.9c42.3,0,71.8,0,71.8,0S912.4,370.7,916.4,360.5z
				"/>
			<path class="st8" d="M919.1,426.4c-4.3-1.2-8-2.4-8.8-5.9c-1.8-7.9-13.4-3.9-16.2-13.5c-2.8-9.5-19.1-6.7-27.2-16.9
				c-2-2.5-3.5-4.3-4.6-5.4c-0.3,4-0.5,8.5-0.9,13.2c8.9,18.2,24.4,28.1,26.9,39.5c2.7,12.5,18.6,6.6,21.9,22.8
				c2.7,13.5,5.7,27,15.4,35.3C924.5,484.7,921.5,455.1,919.1,426.4z"/>
			<path class="st3" d="M888.1,333.3c-12.9,0-16.4,13.3-11.7,16.8c4.7,3.6,6.2-2.4,11.4-2.4c5.2,0,6.9,6,11.6,1.9
				C904.2,345.4,899.9,333.3,888.1,333.3z"/>
			<path class="st3" d="M917.6,329.3c3.5,3.1-4.1,8.6-6.7,6.7C908.2,334.2,914.3,326.4,917.6,329.3z"/>
			<path class="st3" d="M899.3,318.2c3.7,1.3,0.6,11-3.3,9.6C892.5,326.6,895.1,316.7,899.3,318.2z"/>
			<path class="st3" d="M876.5,317.5c3.9-1.3,6.5,9.2,3,10.5C876,329.2,871.9,319,876.5,317.5z"/>
			<path class="st3" d="M858.6,329.2c3.1-2.5,9.3,5.2,6.3,7.6C861.8,339.2,854.9,332.1,858.6,329.2z"/>
			<path class="st8" d="M858.7,437.5c5.9,26.2,15.6,18,16,29.6c0.4,11.6,15.3,6.4,16.6,15.7c0.7,5.1,5.3,11.2,4.5,17.2
				c-11.4,0-25.5,0-41.5,0C855.2,486.4,857,462,858.7,437.5z"/>
		</g>
		<g>
			<path class="st19" d="M79.7,380.4c-1-8.8-17.3-44.2-10.3-55.8c4.5-6.9,11.2-4.4,14.3-3.9c2.2,0.3,0.4-7.9,8.2-11.1
				c3.9-1.6,8.6-1.2,13.4,3.6c3.1,2.6,5.2-7.4,14.8-6.9c8.6,0.4,10.1,11.3,11.8,11.7c2.7,0.5,7.7-3.6,12.2-1.6
				c9.5,4.3,13.8,17.6,3,40.5c-13.6,28.9-10.2,27.9-9,72c1.4,34.7,3.3,71.1,3.3,71.1H71.2c0,0,7.4-58.4,8.6-89.1
				C80,405.1,81.1,392.6,79.7,380.4z"/>
			<path class="st3" d="M85.2,403.9c-1.6-1.2-3.4-2.1-4.9-2.7c-0.1,1.4-0.1,2.7-0.2,4c6.6,3.2,8.8,1.9,14.6,2.4
				c5.9,0.6,14.2-1.1,18.2-2.6c-0.2-2.1-5.9,0.9-13.1-0.9C92.6,402.4,90.1,407.5,85.2,403.9z"/>
			<path class="st6" d="M108,342.6c-7.7,0-7.1,5.2-13.4,9.9c-6,4.4-4.9,10-0.8,12.3c5.9,3.2,10.9-1.8,14.4-1.8
				c3.5,0,9.6,6.1,15.3,1.1c5.7-5,0-10.2-3.3-12.9C116.4,347.9,115.4,342.6,108,342.6z"/>
			<path class="st6" d="M79.2,331.6c-4.1,1.7,0.2,14.9,5.8,12.1C89.5,341.4,84.6,329.4,79.2,331.6z"/>
			<path class="st6" d="M96.8,322c-6.6,1-2.1,14.4,3,13.8C104.9,335.3,104.2,320.9,96.8,322z"/>
			<path class="st6" d="M119.3,321.1c-6.3-0.7-7.6,12.4-2.1,13.7C122.6,336,125.8,321.8,119.3,321.1z"/>
			<path class="st6" d="M138.4,329.7c-6.3-2.2-10,9.8-6,12.2C139.1,345.1,142.6,331.1,138.4,329.7z"/>
			<g>
				<path class="st3" d="M79.4,418c-0.2,3.8-0.5,7.9-0.9,12.2c2.9,0.2,5.1-0.2,5.4-1c1-1.9,16.1,3.2,24.2,3.9
					c8.1,0.6,4.8-3.9,11.6-5.5c6.8-1.6,11.6-5.5,3-3.9C116,424.9,94.9,424.4,79.4,418z"/>
				<path class="st3" d="M79.5,457.9c5.1,2.3,13.3,5.2,14,2.4c0.8-2.8,14.4,3.1,14.1-0.4c-0.3-3.6,11.3,1.9,19.1,0
					c7.8-1.9-0.7-2.9-8.6-5.2c-7.9-2.3-12.4,1-19.1-2.3c-6.7-3.2-9.9,3.2-17.5-3.2c-1.7-1.4-3.1-2.3-4.3-2.9
					c-0.4,3.8-0.7,7.6-1.1,11.3C76.9,457.3,77.9,457.2,79.5,457.9z"/>
				<path class="st3" d="M79.9,485.2c5.4,3.7,6.9-0.9,12.5,1.3c5.6,2.2,7.1,1.3,13.4,1.1c6.2-0.2,12.1-0.9,8-2.4
					c-4.1-1.5-8.8,0.2-15.1-3c-6.2-3.2-9.9-0.9-16.4-4.3c-3.8-2-5.8-1.9-8.1-2.4c-0.3,2.8-0.6,5.5-0.9,8
					C75.2,483.5,77.3,483.5,79.9,485.2z"/>
			</g>
			<g>
				<path class="st3" d="M92.1,472.4c3,2.6,8.6,1.3,12.3,1.3c3.7,0,2.2,3.2,9,1.3c6.9-1.9,8.5,3.6,13.8,0.6c5.3-3,9.2,0.6,12.9-1.5
					c0,0,0,0,0.1,0c-0.1-3-0.3-6.2-0.5-9.5c-4,2.7-6.2,1.3-11,2.6c-6.5,1.7-9.7-1.7-14,0c-4.3,1.7-6.8,0.3-12.3,1.5
					C96.9,470,89.1,469.8,92.1,472.4z"/>
				<path class="st3" d="M98,445c6.1,3.2,17.8,0.6,23.6,0c5.8-0.6,11.3,1.3,15.7-1.6c0.5-0.3,1-0.7,1.5-1.2
					c-0.1-3.3-0.3-6.6-0.4-9.9c-0.3,0.1-0.7,0.3-1.1,0.5c-10.9,4.7-19.2,7.8-17.3,8.4c1.9,0.6-15.6-1.6-11.8,1.6
					C111.9,445.9,91.9,441.7,98,445z"/>
				<path class="st3" d="M140.8,484.4c-1.9,0.5-1.7,1.6-2.1,2.9c-0.6,2.2-11.4,1.8-10.6,3.4c0.9,1.6-12.6,0.3-14.1,2.2
					c-1.6,1.9-23.2,2.2-17.6,3.9c5.7,1.7,18.7-0.2,25.2,0c6.5,0.2,11.1-3.2,14.9-1.7c2.1,0.8,3.1-0.1,4.8-0.9
					C141.1,491.6,140.9,488.3,140.8,484.4z"/>
				<path class="st3" d="M109.8,416.8c2.6,1.3,10-0.8,12.9-0.6c2.9,0.2,0.6,3.1,6.1,0.9c5.5-2.2,6.5-1.9,6.7-1.1
					c0.1,0.3,1,0,2.3-0.7c-0.1-2.8-0.2-5.4-0.3-7.8c-1.5,0.8-1.9,1.3-1.8,2.2c0.3,1.5-10.1,1-8.3,2.7c1.7,1.6-8.1,3.1-14.4,2.4
					C106.6,414.3,107.2,415.6,109.8,416.8z"/>
			</g>
		</g>
		<g>
			<path class="st20" d="M859.2,139.5c-4.9,18.5-21.5,27.2-14.3,38.8c6.4,10.2,16.7,2.9,18.5,3.6c1.8,0.7-1.7,12.9,7.9,16.1
				c10.4,3.5,14-6.7,16.5-7.1c2.5-0.4,6.8,11.4,17.7,7.6c7.4-2.6,7.8-10,6.7-16c-0.2-2,1.8,1.4,7.7,2.9c7.9,2,15.9-5.8,10.5-17.7
				c-5.4-12-17.5-25.4-18.2-30.7c-0.6-5.4,6.7-103.6,9-136.9c-42.3,0-71.8,0-71.8,0S862,128.9,859.2,139.5z"/>
			<path class="st8" d="M887,165.1c12.9,0,16.4-13.3,11.7-16.8c-4.7-3.6-6.2,2.4-11.4,2.4c-5.2,0-6.9-6-11.6-1.9
				C871,152.9,875.3,165.1,887,165.1z"/>
			<path class="st8" d="M857.1,170.6c-3.8-2.8,3.3-9.5,6.7-6.7C866.4,165.8,861.1,173.4,857.1,170.6z"/>
			<path class="st8" d="M877.1,185.2c-3.1-0.5-2.1-9.8,2.8-10C884.8,175,882.8,186,877.1,185.2z"/>
			<path class="st8" d="M901.9,185c-3.9,1.5-6.8-7.5-3.4-8.9C901.9,174.6,906.4,183.2,901.9,185z"/>
			<path class="st8" d="M919.9,171.3c-2.8,2.4-8.9-4.5-6.1-6.9C916.6,162.1,923.3,168.4,919.9,171.3z"/>
			<path class="st15" d="M918.2,44.3c-4.2-0.4-8.4-1.8-12.3,3.3c-6.7,8.8-15.2-19.5-14.6-3.2c0.6,16.3-13.5-2.8-16.1,15.8
				C872.7,78.7,865,46,857.8,64c-0.8,2-1.5,3.6-2.1,4.9C852.9,34.3,849.6,0,849.6,0s29.5,0,71.8,0C920.7,10.2,919.5,26.5,918.2,44.3
				z"/>
		</g>
	</g>
</g>
</svg>
