<svg version="1.1" id="Layer_1" xmlns="http://www.w3.org/2000/svg" xmlns:xlink="http://www.w3.org/1999/xlink" x="0px" y="0px"
	 viewBox="0 0 600 600" style="enable-background:new 0 0 600 600;" xml:space="preserve">
<style type="text/css">
	.st0{fill:#FFCC80;}
	.st1{opacity:0.31;}
	.st2{fill:#440203;}
	.st3{fill:#FFFFFF;}
	.st4{opacity:0.63;}
	.st5{opacity:0.3;}
	.st6{fill:#681829;}
	.st7{fill:#F0A216;}
	.st8{fill:#FCA110;}
	.st9{opacity:0.5;}
	.st10{fill:#EF182D;}
	.st11{opacity:0.4;}
	.st12{fill:#FFA6A6;}
	.st13{fill:#FFD524;}
	.st14{opacity:0.6;}
</style>
<g id="pozadi">
	<rect class="st0" width="600" height="600"/>
</g>
<g id="slepice">
	<g class="st1">
		<ellipse class="st2" cx="306.7" cy="486.6" rx="152.7" ry="14.7"/>
	</g>
	<g>
		<path class="st3" d="M430.3,273.2l-1.6-8.5C429.4,267.4,429.9,270.3,430.3,273.2z"/>
		<path class="st2" d="M430.3,273.6c-0.2,0-0.3-0.1-0.4-0.3l-1.6-8.5c0-0.2,0.1-0.4,0.3-0.4c0.2,0,0.4,0.1,0.4,0.3
			c0.7,2.7,1.2,5.6,1.6,8.5C430.7,273.4,430.6,273.5,430.3,273.6C430.4,273.6,430.3,273.6,430.3,273.6z"/>
	</g>
	<g>
		<path class="st3" d="M430.3,273.2l-1.6-8.5C429.4,267.4,429.9,270.3,430.3,273.2z"/>
		<path class="st2" d="M430.3,273.6c-0.2,0-0.3-0.1-0.4-0.3l-1.6-8.5c0-0.2,0.1-0.4,0.3-0.4c0.2,0,0.4,0.1,0.4,0.3
			c0.7,2.7,1.2,5.6,1.6,8.5C430.7,273.4,430.6,273.5,430.3,273.6C430.4,273.6,430.3,273.6,430.3,273.6z"/>
	</g>
	<g class="st4">
		<path class="st3" d="M382.7,310l-0.5,0.4C382.2,310.2,382.4,310.1,382.7,310z"/>
		<path class="st2" d="M382.2,310.8c-0.1,0-0.2,0-0.2-0.1c-0.1-0.1-0.2-0.3-0.1-0.4c0.1-0.3,0.4-0.6,0.8-0.6c0.2,0,0.3,0.1,0.4,0.2
			c0.1,0.2,0,0.3-0.1,0.4l-0.5,0.4C382.3,310.8,382.2,310.8,382.2,310.8z"/>
	</g>
	<g>
		<path class="st3" d="M446.8,366.4c-10,14.7-23.9,17.4-23.9,17.4l-21.7-41.1l-5.3-28.2c-0.3,3-10.7-4.8-13.2-4.4l10.9-8.1
			c16.1-23.9,10-55.6,22.8-54.5c5,0.4,8.8,6.1,11.3,13.7c0,0,0,0.1,0,0.1c0,0,0,0,0,0c0,0.1,0,0.1,0.1,0.2c0.3,1,0.6,2.1,0.9,3.2
			c0,0,7.1,5,13.3,14.5c4.7,7.2,8.9,17.1,9,29.3v0C451,308.5,464.2,340.8,446.8,366.4z"/>
	</g>
	<g class="st5">
		<path class="st6" d="M427.7,261.3c0-0.1,0-0.1,0-0.1C427.7,261.2,427.7,261.2,427.7,261.3z"/>
		<path class="st2" d="M427.7,261.6c-0.1,0-0.3-0.1-0.3-0.2l0-0.1c-0.1-0.2,0-0.4,0.2-0.5c0.2-0.1,0.4,0,0.5,0.2
			c0,0.1,0.1,0.1,0.1,0.2c0.1,0.2,0,0.4-0.2,0.5C427.8,261.6,427.8,261.6,427.7,261.6z"/>
	</g>
	<g>
		<path class="st3" d="M382.7,310l-0.5,0.4C382.2,310.2,382.4,310.1,382.7,310z"/>
		<path class="st2" d="M382.2,310.8c-0.1,0-0.2,0-0.2-0.1c-0.1-0.1-0.2-0.3-0.1-0.4c0.1-0.3,0.4-0.6,0.8-0.6c0.2,0,0.3,0.1,0.4,0.2
			c0.1,0.2,0,0.3-0.1,0.4l-0.5,0.4C382.3,310.8,382.2,310.8,382.2,310.8z"/>
	</g>
	<g>
		<path class="st3" d="M382.7,310L382.7,310C382.7,310,382.7,310,382.7,310L382.7,310z"/>
		<path class="st2" d="M382.7,310.4c-0.1,0-0.3-0.1-0.3-0.2c-0.1-0.2,0-0.4,0.1-0.5l0.1-0.1c0.1-0.1,0.2-0.1,0.3-0.1
			c0.1,0,0.2,0.1,0.2,0.2l0,0c0.1,0.1,0.1,0.3,0,0.4C383,310.3,382.9,310.4,382.7,310.4C382.7,310.4,382.7,310.4,382.7,310.4z"/>
	</g>
	<g>
		<path class="st2" d="M393.2,301.7c1-2.3,1.9-4.5,2.8-6.8c0.8-2.3,1.6-4.5,2.3-6.9c1.4-4.6,2.5-9.3,3.5-14c1-4.7,1.9-9.5,3-14.4
			c0.6-2.5,1.2-4.9,2.2-7.5c0.5-1.3,1.2-2.6,2.1-3.8c0.3-0.3,0.5-0.6,0.8-0.9c0.3-0.3,0.6-0.6,1-0.8c0.4-0.2,0.7-0.5,1.1-0.7
			c0.4-0.2,0.8-0.3,1.2-0.5c1.7-0.5,3.4-0.4,5,0c1.6,0.4,3,1.3,4.1,2.2c2.3,1.9,3.9,4.2,5.1,6.6c2.5,4.7,3.8,9.7,4.7,14.8
			c0.4,2.5,0.7,5,0.9,7.6c0.2,2.5,0.2,5.1,0,7.6c-0.1,1.3-0.2,2.5-0.4,3.8c-0.2,1.3-0.4,2.5-0.7,3.8c-0.6,2.5-1.5,4.9-2.8,7.1
			c-0.1,0.2-0.4,0.3-0.6,0.1c-0.1-0.1-0.2-0.2-0.2-0.4l0,0c0.6-4.9,0.5-9.7,0.3-14.4c-0.1-2.4-0.3-4.8-0.6-7.1
			c-0.3-2.4-0.6-4.7-1.1-7.1c-0.9-4.7-2.2-9.3-4.1-13.3c-1-2-2.2-3.8-3.7-5.1c-0.7-0.6-1.5-1.1-2.3-1.3c-0.8-0.2-1.7-0.2-2.3-0.1
			c-0.6,0.2-1.2,0.6-1.8,1.3c-0.5,0.7-1,1.6-1.4,2.7c-0.8,2-1.4,4.4-1.8,6.7c-0.9,4.7-1.7,9.6-2.8,14.5c-1.1,4.9-2.6,9.7-4.7,14.3
			c-2.1,4.6-4.8,9-8.2,12.7c-0.2,0.2-0.4,0.2-0.6,0C393.2,302.1,393.2,301.9,393.2,301.7L393.2,301.7z"/>
	</g>
	<g>
		<path class="st2" d="M430.1,262.7c0.8,0.6,1.5,1.2,2.2,1.8c0.7,0.6,1.4,1.2,2,1.8c1.3,1.2,2.6,2.6,3.8,3.9
			c2.4,2.7,4.6,5.6,6.5,8.7c3.8,6.2,6.6,13.1,7.9,20.2c1.3,7.2,1.2,14.6,0.1,21.7c-0.6,3.6-1.6,7.1-3.1,10.4
			c-0.7,1.7-1.6,3.3-2.6,4.8c-0.5,0.8-1,1.5-1.6,2.2c-0.6,0.7-1.2,1.4-1.9,2.1c-0.3,0.3-0.8,0.3-1.1,0c-0.2-0.2-0.3-0.6-0.1-0.9
			l0-0.1c1.4-3,2.4-6.3,3.3-9.5c0.9-3.2,1.5-6.5,2-9.9c0.5-3.3,1-6.7,1-10c0.1-3.3-0.2-6.7-0.8-10c-1.2-6.6-3.7-12.9-7.2-18.6
			c-1.8-2.8-3.8-5.5-6-8c-1.1-1.2-2.3-2.5-3.5-3.6c-0.6-0.6-1.2-1.1-1.9-1.7c-0.6-0.5-1.3-1.1-1.9-1.5l-0.1,0
			c-1.1-0.8-1.3-2.3-0.5-3.4C427.5,262.2,429,261.9,430.1,262.7z"/>
	</g>
	<g>
		<path class="st2" d="M422.8,386.2c-1.1,0-2.1-0.8-2.4-1.9c-0.3-1.3,0.6-2.6,1.9-2.8c0.1,0,13.2-2.8,22.4-16.4
			c16.5-24.3,4.1-55.3,4-55.6c-0.5-1.2,0.1-2.6,1.3-3.1c1.2-0.5,2.6,0.1,3.1,1.3c0.6,1.4,13.5,33.7-4.5,60.1
			c-10.4,15.3-24.9,18.3-25.5,18.4C423.1,386.2,423,386.2,422.8,386.2z"/>
	</g>
	<g>
		<g>
			<path class="st7" d="M227.1,454.8c17.3,0,31.2,16.6,31.2,24.4"/>
		</g>
		<g>
			<path class="st2" d="M258.3,479.6c-0.2,0-0.4-0.2-0.4-0.4c0-7.9-14.3-24-30.9-24c-0.2,0-0.4-0.2-0.4-0.4s0.2-0.4,0.4-0.4
				c17.3,0,31.6,16.4,31.6,24.8C258.7,479.4,258.5,479.6,258.3,479.6z"/>
		</g>
	</g>
	<g>
		<g>
			<path class="st8" d="M269.7,479.2c0,1.1-1.2,2-3.3,2.8c-10.8,4.1-45.1,4-55.9-0.1c-2-0.8-3-3.6-3.3-5.2c-0.5-2.9,0.2-4.8,1.5-6
				c3.4-3.1,11.1-2.5,15.9-6.4c5.4-4.4,6.1-9.6,13.9-9.6C255.8,454.8,269.7,471.4,269.7,479.2z"/>
		</g>
		<g>
			<path class="st2" d="M238.7,485.5c-11.4,0-22.8-1.1-28.3-3.2c-2.2-0.8-3.3-3.8-3.5-5.4c-0.5-2.8,0.1-4.9,1.6-6.4
				c1.7-1.6,4.4-2.2,7.2-2.9c3.1-0.8,6.2-1.5,8.7-3.5c1.7-1.4,3-2.8,4.1-4.2c2.4-2.9,4.6-5.4,10-5.4c17.3,0,31.6,16.4,31.6,24.8
				c0,1.2-1.2,2.3-3.6,3.2C261.1,484.5,249.9,485.5,238.7,485.5z M238.5,455.2c-5.1,0-7,2.3-9.4,5.1c-1.1,1.4-2.5,2.9-4.2,4.3
				c-2.6,2.1-6,2.9-9,3.6c-2.7,0.7-5.3,1.3-6.9,2.7c-1.4,1.3-1.8,3.1-1.4,5.7c0.2,1.5,1.2,4.2,3.1,4.9c10.6,4.1,44.9,4.1,55.6,0.1
				c2-0.8,3.1-1.6,3.1-2.5C269.4,471.3,255.1,455.2,238.5,455.2z"/>
		</g>
	</g>
	<g>
		<path class="st2" d="M238.9,487.5c-11.8,0-23.6-1.1-29.2-3.3c-3.7-1.4-4.6-6.1-4.8-7c-1.5-8.7,5.4-10.4,10.3-11.6
			c2.9-0.7,5.8-1.4,7.9-3.1c1.6-1.3,2.7-2.6,3.9-4c2.5-3,5.2-6.1,11.5-6.1c18.4,0,33.6,17.7,33.6,26.8c0,1-0.4,2.5-2.3,3.8
			C265.4,486.1,252.2,487.5,238.9,487.5z M238.5,457.2c-4.1,0-5.5,1.7-7.8,4.4c-1.2,1.4-2.6,3.1-4.5,4.6c-2.9,2.3-6.5,3.2-9.7,4
			c-6,1.5-7.4,2.3-6.8,6.1c0.3,1.5,1.1,3,1.8,3.3c5.4,2,18,3.2,31.4,2.9c14.8-0.3,23-2.3,24.5-3.7
			C266.9,472.5,254.3,457.2,238.5,457.2z"/>
	</g>
	<g>
		<g>
			<path class="st8" d="M367.7,476.8c-0.3,1.6-1.3,4.4-3.3,5.2c-11.1,4.2-47,4.2-56.8-0.3c-1.6-0.7-2.4-1.5-2.4-2.5
				c0-7.8,14-24.4,31.2-24.4c7.7,0,8.4,5.2,13.9,9.6c4.8,3.8,12.4,3.3,15.8,6.3C367.5,472,368.2,473.8,367.7,476.8z"/>
		</g>
		<g>
			<path class="st2" d="M336.3,485.4c-12,0-24-1.1-28.9-3.4c-1.8-0.8-2.7-1.7-2.7-2.8c0-8.4,14.3-24.8,31.6-24.8
				c5.4,0,7.5,2.5,10,5.4c1.2,1.4,2.4,2.9,4.1,4.2c2.4,2,5.6,2.7,8.7,3.5c2.8,0.7,5.4,1.3,7.1,2.8c1.6,1.5,2.2,3.6,1.7,6.4l0,0
				c-0.3,1.6-1.3,4.6-3.5,5.4C359.1,484.4,347.7,485.4,336.3,485.4z M336.4,455.2c-16.6,0-30.9,16.1-30.9,24c0,0.9,1.2,1.7,2.2,2.1
				c9.5,4.3,45.4,4.5,56.5,0.3c1.9-0.7,2.8-3.4,3-4.9c0.4-2.6,0-4.5-1.5-5.8c-1.6-1.4-4.1-2-6.8-2.7c-3-0.7-6.4-1.6-9-3.6
				c-1.8-1.4-3.1-3-4.3-4.3C343.4,457.5,341.5,455.2,336.4,455.2z M367.6,476.8L367.6,476.8L367.6,476.8z"/>
		</g>
	</g>
	<g>
		<path class="st2" d="M336,487.5c-13.3,0-26.5-1.4-31-4.5c-1.9-1.3-2.3-2.8-2.3-3.8c0-9.1,15.2-26.8,33.6-26.8
			c6.3,0,9,3.1,11.5,6.1c1.1,1.3,2.3,2.7,3.9,4c2.1,1.7,5,2.4,7.9,3.1c5,1.2,11.8,2.9,10.3,11.6c-0.2,0.9-1.1,5.6-4.8,7
			C359.6,486.4,347.8,487.5,336,487.5z M307.6,478.9c1.5,1.4,9.8,3.4,24.5,3.7c13.4,0.3,26.1-0.9,31.4-2.9c0.7-0.3,1.5-1.8,1.8-3.3
			c0.7-3.9-0.8-4.7-6.8-6.1c-3.2-0.8-6.8-1.7-9.7-4c-1.9-1.6-3.3-3.2-4.5-4.6c-2.3-2.8-3.7-4.4-7.8-4.4
			C320.6,457.2,308,472.5,307.6,478.9z"/>
	</g>
	<g class="st1">
		<path class="st2" d="M269.7,479.2c0,1.1-1.2,2-3.3,2.8c-22-1.3-41.4-5.2-57.6-11.3c3.4-3.1,11.1-2.5,15.9-6.4
			c5.4-4.4,6.1-9.6,13.9-9.6C255.8,454.8,269.7,471.4,269.7,479.2z"/>
	</g>
	<g class="st1">
		<path class="st2" d="M366.1,470.7c-15.8,5.4-35.1,9.3-58.4,11c-1.6-0.7-2.4-1.5-2.4-2.5c0-7.8,14-24.4,31.2-24.4
			c7.7,0,8.4,5.2,13.9,9.6C355,468.2,362.6,467.7,366.1,470.7z"/>
	</g>
	<g>
		<path class="st3" d="M306.2,474.6c-69.5,7.3-120.6-18.8-142.6-67c-40.1-88,1.5-214.7,80.6-237.8c59.9-17.5,102,9.5,124,72.4
			c13.4,38.3,34.8,52.4,50.5,57.5c12.7,4.1,21,15.5,20.3,28C436.6,372.8,417.7,462.9,306.2,474.6z"/>
	</g>
	<g class="st1">
		<path class="st2" d="M446.8,366.4c-5.8,8.5-13,13-17.9,15.3c-14.3,41.4-47.4,85-122.7,92.9c-69.5,7.3-120.6-18.8-142.6-67
			c-9.3-20.4-14.2-42.8-15.3-65.6c-0.1-2.3,3.3-2.7,3.7-0.5c2.6,12.3,6.4,24.3,11.5,35.6c22,48.2,73.1,74.3,142.6,67
			c42.7-4.5,71.8-20.5,91.7-41c-1.1,0.3-2.2,0.4-3.3,0.4c-32.7,0-44.3-73.9-32.9-81.4l37.6,8.4c14,4.9,22.8,2.7,23.8,11.5
			c0.6,5.3-0.7,19.7-4.7,33.3c0,0,0.1-0.1,0.1-0.1c1.4-2.6,3-6,4.6-9.5c4-9.1,9.9-17.1,17.1-23.9c1.2-1.1,2.3-2.3,3.1-3.6
			c7.9-12,6.6-19.7,8.1-28.9C453.1,314.1,462.7,343,446.8,366.4z"/>
	</g>
	<g>
		<path class="st2" d="M433.4,369.9c-3.3,17.8-10.4,35.2-20.9,50.3c-5.2,7.6-11.3,14.5-18.1,20.8c-6.8,6.2-14.3,11.6-22.3,16.2
			c-8,4.6-16.4,8.3-25.1,11.3c-8.7,3-17.6,5.2-26.6,6.8c-9,1.6-18.1,2.5-27.2,3c-9.1,0.4-18.3,0.2-27.4-0.6
			c-9.1-0.9-18.2-2.4-27-4.9l-3.3-0.9l-3.3-1l-1.6-0.5l-1.6-0.6l-3.2-1.2c-4.3-1.7-8.5-3.5-12.6-5.6c-2.1-1-4-2.2-6.1-3.3l-2.9-1.8
			l-1.5-0.9l-1.4-1c-3.9-2.5-7.5-5.4-11-8.4c-3.5-3-6.8-6.3-9.9-9.7l-2.3-2.6l-1.1-1.3l-1.1-1.4c-0.7-0.9-1.4-1.8-2.1-2.7l-2-2.8
			c-2.6-3.8-5.1-7.7-7.2-11.8c-1.1-2-2.1-4.1-3.1-6.2c-0.9-2.1-1.9-4.2-2.7-6.3c-1.7-4.2-3.3-8.6-4.6-12.9
			c-1.4-4.4-2.6-8.8-3.6-13.2c-4.1-17.8-5.5-36.2-4.7-54.4c0.9-18.2,4.1-36.3,9.4-53.8c5.4-17.4,13-34.2,23.1-49.5
			c2.5-3.8,5.2-7.5,8.1-11.1c2.9-3.6,5.9-7.1,9.1-10.4c6.4-6.6,13.5-12.6,21.2-17.6c3.9-2.5,7.9-4.8,12.1-6.8
			c4.2-2,8.5-3.7,12.9-5.1l1.7-0.5l1.7-0.5l3.3-0.9c1.1-0.3,2.2-0.5,3.3-0.8c1.1-0.3,2.2-0.5,3.4-0.8l3.4-0.6l1.7-0.3l1.7-0.2
			l3.4-0.5c1.1-0.1,2.3-0.2,3.4-0.3c2.3-0.3,4.6-0.3,6.9-0.4c1.2,0,2.3,0,3.5,0l1.7,0c0.6,0,1.2,0.1,1.7,0.1l3.5,0.2l3.5,0.4
			c1.2,0.1,2.3,0.3,3.4,0.5c1.1,0.2,2.3,0.3,3.4,0.6c4.6,0.9,9,2.3,13.4,3.9c4.3,1.7,8.5,3.8,12.5,6.2c4,2.4,7.7,5.2,11.3,8.2
			c3.5,3,6.8,6.3,9.8,9.8c3,3.5,5.9,7.1,8.4,11c1.3,1.9,2.5,3.9,3.7,5.8c0.6,1,1.2,2,1.7,3c0.6,1,1.2,2,1.7,3
			c4.4,8.1,8,16.5,11.1,25.1l0.6,1.6l0.6,1.6l1.2,3.1c0.7,2.1,1.7,4.1,2.6,6.1c0.9,2,1.9,4,2.9,5.9c1,2,2.1,3.8,3.2,5.8
			c4.4,7.6,9.8,14.5,16.1,20.5c0.8,0.8,1.6,1.4,2.4,2.2l1.2,1.1l1.3,1c1.7,1.4,3.5,2.6,5.3,3.9c3.6,2.5,7.5,4.6,11.6,6.4l0,0
			c0.4,0.2,0.6,0.7,0.4,1.2c-0.2,0.4-0.6,0.6-1,0.5c-4.5-0.9-8.9-2.5-13-4.7c-2-1.1-4.1-2.2-6-3.6l-1.5-1c-0.5-0.3-0.9-0.7-1.4-1.1
			c-0.9-0.7-1.9-1.4-2.7-2.2l-2.6-2.3c-0.9-0.8-1.6-1.6-2.5-2.5c-1.7-1.6-3.1-3.4-4.6-5.2c-1.4-1.8-2.8-3.7-4.1-5.6l-1.9-2.9
			l-0.9-1.5l-0.9-1.5c-4.6-8-8.1-16.6-11.2-25.1c-3-8.4-6.5-16.5-10.7-24.3c-0.5-1-1.1-1.9-1.6-2.9c-0.6-1-1.1-1.9-1.7-2.9
			c-1.2-1.9-2.3-3.8-3.6-5.6c-2.4-3.7-5.2-7.1-8-10.5c-2.9-3.3-6-6.4-9.3-9.3c-3.4-2.8-6.9-5.4-10.6-7.7c-3.7-2.2-7.6-4.2-11.7-5.8
			c-4.1-1.5-8.2-2.8-12.5-3.7c-1.1-0.3-2.1-0.4-3.2-0.6c-1.1-0.2-2.2-0.4-3.2-0.5l-3.3-0.4l-3.3-0.2c-0.5,0-1.1-0.1-1.6-0.1l-1.6,0
			c-1.1,0-2.2,0-3.3,0c-2.2,0.1-4.4,0.1-6.6,0.4c-1.1,0.1-2.2,0.2-3.3,0.3l-3.3,0.5l-1.6,0.2l-1.6,0.3l-3.3,0.6
			c-1.1,0.2-2.2,0.5-3.2,0.7c-1.1,0.3-2.2,0.5-3.2,0.8l-3.2,0.9l-1.6,0.4l-1.6,0.5c-4.2,1.3-8.3,2.9-12.2,4.8
			c-4,1.9-7.8,4.1-11.5,6.5c-7.4,4.8-14.2,10.5-20.3,16.9c-3.1,3.2-6,6.5-8.7,10c-2.7,3.5-5.4,7-7.8,10.7
			c-9.8,14.8-17.2,31.2-22.5,48.1c-5.3,17-8.4,34.7-9.2,52.5c-0.8,17.8,0.5,35.7,4.5,53c1,4.3,2.1,8.6,3.5,12.8
			c1.3,4.2,2.8,8.4,4.5,12.5c0.8,2.1,1.7,4.1,2.6,6.1c1,2,1.9,4,2.9,5.9c2,3.9,4.4,7.6,6.9,11.3l1.9,2.7c0.7,0.9,1.4,1.7,2,2.6
			l1,1.3l1.1,1.3l2.2,2.5c3,3.2,6.1,6.3,9.4,9.2c3.4,2.8,6.8,5.6,10.5,8l1.4,0.9l1.4,0.9l2.8,1.7c1.9,1.1,3.8,2.2,5.8,3.2
			c3.9,2.1,8,3.8,12.1,5.4l3.1,1.1l1.6,0.6l1.6,0.5l3.2,1l3.2,0.9c8.5,2.4,17.3,3.9,26.1,4.7c8.8,0.8,17.7,1,26.6,0.6
			c8.9-0.4,17.8-1.3,26.5-2.9c17.5-3.1,34.6-8.6,49.8-17.6c7.6-4.5,14.7-9.7,21.2-15.7c1.6-1.5,3.2-3,4.7-4.6l2.3-2.4l2.2-2.5
			l1.1-1.2l1.1-1.3l2.1-2.5l2-2.6c0.7-0.9,1.3-1.8,2-2.7c2.6-3.6,4.9-7.3,7.2-11.1l1.7-2.9c0.6-1,1-2,1.6-2.9c1.1-1.9,2-3.9,3-5.9
			c1.9-4,3.7-8.1,5.4-12.2c1.7-4.1,3.2-8.3,4.8-12.6l0,0c0.2-0.5,0.7-0.7,1.1-0.5C433.2,369,433.5,369.4,433.4,369.9z"/>
	</g>
	<g>
		<g>
			<path class="st8" d="M272.1,281.4c0,6.7-11.2,12.2-24.9,12.2c-13.8,0-24.9-5.5-24.9-12.2c0-6.7,11.2-19.9,24.9-19.9
				C260.9,261.5,272.1,274.7,272.1,281.4z"/>
		</g>
		<g>
			<path class="st2" d="M247.2,294c-14,0-25.3-5.6-25.3-12.6c0-6.8,10.9-20.2,25.3-20.2c14.4,0,25.3,13.5,25.3,20.2
				C272.5,288.3,261.1,294,247.2,294z M247.2,261.9c-13.4,0-24.6,12.9-24.6,19.5c0,6.5,11,11.8,24.6,11.8c13.5,0,24.6-5.3,24.6-11.8
				C271.7,274.8,260.6,261.9,247.2,261.9z"/>
		</g>
	</g>
	<g class="st5">
		<path class="st2" d="M247.2,284.6c-10.9,0-20.1-3.4-23.5-8.1c-0.9,1.8-1.4,3.5-1.4,4.9c0,6.7,11.2,12.2,24.9,12.2
			s24.9-5.5,24.9-12.2c0-1.4-0.5-3.1-1.4-4.9C267.3,281.2,258,284.6,247.2,284.6z"/>
	</g>
	<g class="st9">
		<g>
			<path class="st3" d="M271,277.1c-0.6,0.6-1.4,1.2-2.4,1.8c-4.7-5.4-12.2-10.3-20.6-10.6c-0.3,0-0.5,0-0.8,0s-0.6,0-0.8,0
				c-8.5,0.3-15.9,5.2-20.6,10.6c-1-0.6-1.8-1.1-2.4-1.8c3.1-6.7,12.2-15.2,23.1-15.6c0.3,0,0.5,0,0.8,0c0.3,0,0.5,0,0.8,0
				C258.8,261.9,268,270.4,271,277.1z"/>
		</g>
	</g>
	<g>
		<path class="st2" d="M247.2,296c-15.3,0-27.3-6.4-27.3-14.6c0-8.4,12.8-22.3,27.3-22.3c14.6,0,27.3,13.9,27.3,22.3
			C274.5,289.6,262.5,296,247.2,296z M247.2,263.9c-12.8,0-22.5,12.4-22.5,17.5c0,4.6,9.3,9.8,22.5,9.8c13.3,0,22.5-5.2,22.5-9.8
			C269.7,276.3,260,263.9,247.2,263.9z"/>
	</g>
	<g>
		<path class="st10" d="M300.6,168.1c-25.7-4.5-44.1,7.4-58.3,25.7c0,0-17.3-7.8-17.2-22c0.1-16.7,16.9-16.3,22.6-12.7
			c0,0-3.7-22.6,15.1-33.1c19.9-11.2,41.8,8.2,42.3,28.4c0,0,29.3-3.9,20.4,24.9C325.6,179.3,314.6,170.6,300.6,168.1z"/>
		<path class="st2" d="M242.3,194.2c-0.1,0-0.1,0-0.2,0c-0.2-0.1-17.5-8.1-17.4-22.3c0-7.9,3.7-11.6,6.9-13.3
			c5-2.7,11.8-2.2,15.7-0.2c-0.4-4.1-1.5-23.3,15.4-32.7c8.1-4.6,17.2-4.4,25.6,0.3c9.9,5.7,16.8,16.9,17.2,28
			c2.3-0.2,13.3-1,18.9,5.7c3.7,4.4,4.2,11,1.5,19.7c0,0.1-0.1,0.2-0.2,0.2c-0.1,0-0.2,0-0.3-0.1c-0.1-0.1-11.1-8.7-24.8-11.1l0,0
			c-22.5-4-41.5,4.4-57.9,25.6C242.5,194.1,242.4,194.2,242.3,194.2z M239.5,157.5c-2.5,0-5.2,0.5-7.5,1.8
			c-4.2,2.3-6.4,6.7-6.5,12.6c-0.1,12.8,14.6,20.4,16.7,21.5c16.6-21.3,35.7-29.6,58.5-25.6c12.4,2.2,22.5,9.3,24.7,10.9
			c2.4-8.2,1.9-14.4-1.5-18.5c-5.9-7-18.5-5.4-18.7-5.4c-0.1,0-0.2,0-0.3-0.1c-0.1-0.1-0.1-0.2-0.1-0.3c-0.3-11-7-22.1-16.9-27.7
			c-8.1-4.6-17-4.8-24.9-0.3c-18.4,10.3-15,32.5-14.9,32.7c0,0.1,0,0.3-0.2,0.4c-0.1,0.1-0.3,0.1-0.4,0
			C245.8,158.3,242.7,157.5,239.5,157.5z"/>
	</g>
	<g class="st11">
		<g>
			<path class="st3" d="M325.6,179.3c0,0-1-0.8-2.8-2c1.7-19.5-21.9-18.2-21.9-18.2c-0.4-18.5-18.7-34.2-36.9-24
				c-17,9.5-11.4,31.1-11.2,31.6c-5.2-3.3-23.2-5-23.3,10.4c0,4.2,1.6,7.7,3.8,10.6c-4.2-3.7-8.2-9.1-8.2-15.9
				c0.1-16.7,16.9-16.3,22.6-12.7c0,0-3.7-22.6,15.1-33.1c19.9-11.2,41.8,8.2,42.3,28.4C305.1,154.4,334.5,150.5,325.6,179.3z"/>
		</g>
	</g>
	<g>
		<path class="st2" d="M242.3,196.4c-0.4,0-0.7-0.1-1.1-0.2c-0.8-0.3-18.8-8.7-18.8-24.4c0-9,4.4-13.2,8-15.2
			c4.4-2.4,10-2.6,14.3-1.5c-0.1-7.6,1.8-23,16.7-31.4c8.8-5,18.7-4.8,27.8,0.3c9.9,5.6,17,16.5,18.2,27.5
			c4.5-0.1,13.4,0.5,18.6,6.6c4.2,5,4.9,12.4,2,21.9c-0.3,0.8-0.9,1.5-1.7,1.7c-0.8,0.3-1.7,0.1-2.4-0.5
			c-0.1-0.1-10.6-8.3-23.8-10.7l0,0c-21.6-3.8-39.9,4.3-55.7,24.7C243.9,196.1,243.1,196.4,242.3,196.4z M239.5,159.7
			c-2.2,0-4.5,0.4-6.5,1.5c-3.5,1.9-5.3,5.5-5.3,10.6c0,9.7,9.8,16.3,13.9,18.6c16.9-20.9,36.3-29,59.4-24.9l0,0
			c10.1,1.8,18.6,6.6,23,9.5c1.3-5.9,0.6-10.4-1.9-13.4c-5.1-6-16.5-4.6-16.7-4.6c-0.7,0.1-1.5-0.1-2-0.6c-0.6-0.5-0.9-1.2-0.9-1.9
			c-0.2-10.2-6.6-20.6-15.7-25.8c-7.4-4.2-15.5-4.4-22.6-0.3c-17,9.6-13.9,30.2-13.8,30.4c0.2,1-0.3,2-1.1,2.6c-0.9,0.6-2,0.6-2.9,0
			C244.9,160.4,242.3,159.7,239.5,159.7z"/>
	</g>
	<g>
		<path class="st3" d="M361.6,310.4c-11.4,7.4,0.2,81.3,32.9,81.3c22.8,0,29.6-50.4,28.4-61.5c-1-8.8-9.8-6.5-23.8-11.5"/>
	</g>
	<g class="st1">
		<path class="st2" d="M418,364.4c-4.4,14.3-11.9,27.4-23.4,27.4c-31.7,0-43.6-69.8-33.8-80.6c1.6,26,15,65.2,39.7,65.2
			C407.7,376.5,413.5,371.6,418,364.4z"/>
	</g>
	<g>
		<path class="st2" d="M362.1,311.1c-0.5,0.8-0.8,1.6-1,2.4c-0.2,0.9-0.4,1.8-0.5,2.7c-0.2,1.9-0.4,3.8-0.5,5.8c-0.1,4-0.1,8,0.2,12
			c0.3,4,1,8.1,1.8,12.1c0.9,4,1.9,7.9,3.2,11.8c1.3,3.9,2.8,7.6,4.7,11.2c1.8,3.6,3.9,7,6.4,10.1c2.5,3.1,5.4,5.7,8.7,7.6
			c1.6,0.9,3.4,1.6,5.2,2c0.9,0.2,1.8,0.4,2.7,0.4c0.5,0.1,0.9,0,1.4,0.1c0.5,0,0.9-0.1,1.3-0.1c3.5-0.3,6.7-2.2,9.3-4.9l0.5-0.5
			l0.5-0.5l0.9-1.1l0.9-1.2l0.4-0.6l0.4-0.6l0.8-1.2c0.3-0.4,0.5-0.9,0.7-1.3c0.5-0.9,0.9-1.8,1.4-2.6c1.8-3.6,3.1-7.4,4.3-11.3
			c1.2-3.9,2.1-7.9,2.9-11.9c0.8-4,1.4-8.1,1.7-12.1c0.2-2,0.3-4.1,0.3-6c0-1,0-2-0.1-2.8c-0.1-0.8-0.3-1.6-0.6-2.2
			c-0.3-0.6-0.7-1.1-1.3-1.5c-0.6-0.4-1.3-0.8-2.2-1.1c-1.7-0.6-3.8-0.9-5.8-1.3c-4.1-0.8-8.4-1.9-11.8-4.9
			c-0.4-0.3-0.4-0.9-0.1-1.2c0.2-0.2,0.4-0.3,0.6-0.3l0,0c2.2-0.2,4.3,0,6.3,0.3c2,0.3,4,0.7,6,1.1c2,0.5,4.1,1,6.3,1.8
			c1.1,0.4,2.3,0.9,3.4,1.7c1.1,0.8,2.1,1.9,2.8,3.2c0.6,1.3,0.9,2.6,1.1,3.8c0.1,1.2,0.2,2.3,0.2,3.4c0,2.2-0.1,4.3-0.3,6.4
			c-0.4,4.2-1,8.4-1.8,12.6c-0.8,4.2-1.8,8.3-3,12.4c-1.2,4.1-2.7,8.1-4.6,12c-0.5,1-1,1.9-1.5,2.9c-0.3,0.5-0.5,1-0.8,1.4l-0.9,1.4
			l-0.4,0.7l-0.5,0.7l-1,1.3l-1.1,1.3l-0.5,0.6l-0.6,0.6c-1.5,1.7-3.4,3.1-5.5,4.3c-2.1,1.2-4.5,1.9-6.9,2.1c-0.6,0-1.2,0.1-1.8,0.1
			c-0.6,0-1.2,0-1.7-0.1c-1.2-0.1-2.3-0.3-3.4-0.6c-2.3-0.5-4.4-1.4-6.4-2.5c-4-2.2-7.3-5.4-10-8.8c-2.8-3.4-5-7.1-7-11
			c-1.9-3.8-3.5-7.8-4.9-11.8c-1.4-4-2.5-8.1-3.4-12.3c-0.4-2.1-0.8-4.2-1.2-6.3c-0.4-2.1-0.6-4.2-0.9-6.3
			c-0.5-4.2-0.8-8.5-0.3-12.9c0.3-2.2,0.6-4.4,1.5-6.5c0.4-1.1,1-2.1,1.7-3.1c0.7-1,1.7-1.9,2.9-2.3c0.4-0.1,0.9,0.1,1,0.5
			c0.1,0.2,0,0.5-0.1,0.7L362.1,311.1z"/>
	</g>
	<g>
		<path class="st2" d="M425.2,331.1c-0.1,0.3-0.2,0.4-0.2,0.6c-0.1,0.2-0.1,0.3-0.2,0.4c-0.1,0.3-0.3,0.5-0.5,0.8
			c-0.3,0.5-0.7,1-1.1,1.4c-0.8,0.9-1.7,1.5-2.6,2.2c-1.9,1.2-4,1.8-6.1,2.1c-1,0.2-2.1,0.2-3.1,0.2c-1,0-2-0.1-3-0.2
			c-0.5-0.1-1-0.2-1.5-0.3c-0.5-0.1-1-0.2-1.4-0.4c-0.9-0.3-1.9-0.7-2.7-1.1c1-0.3,1.9-0.4,2.9-0.6c0.9-0.2,1.8-0.4,2.7-0.5l2.6-0.5
			c0.8-0.2,1.7-0.4,2.5-0.7c1.6-0.5,3.1-1.2,4.3-2.1c0.3-0.2,0.6-0.5,0.9-0.7c0.3-0.3,0.6-0.5,0.8-0.8c0.3-0.3,0.5-0.5,0.7-0.8
			c0.1-0.1,0.2-0.3,0.3-0.4l0.1-0.2c0,0,0.1-0.1,0.1-0.1c0.5-1.2,1.8-1.9,3.1-1.4C425,328.5,425.7,329.9,425.2,331.1z"/>
	</g>
	<g>
		<path class="st2" d="M403.9,353.9c1.9-0.6,3.7-1.1,5.3-1.6c1.7-0.6,3.3-1.1,4.6-2c1.4-0.8,2.6-1.8,3.6-3c1-1.2,1.9-2.5,2.7-3.9
			l0-0.1c0.7-1.1,2.1-1.5,3.3-0.9c1,0.6,1.5,1.9,1,3c-0.8,1.9-1.9,3.7-3.4,5.3c-1.5,1.5-3.4,2.7-5.4,3.5c-2,0.7-4,1.1-6,1
			C407.6,355.1,405.7,354.7,403.9,353.9z"/>
	</g>
	<g>
		<path class="st2" d="M406.4,369.6c1.1-0.8,2.2-1.4,3.2-2c1-0.6,2-1.1,2.8-1.7c0.8-0.6,1.6-1.2,2.2-1.9c0.6-0.7,1.1-1.4,1.6-2.2
			l0.1-0.1c0.7-1.1,2.2-1.5,3.3-0.8c1,0.6,1.4,1.8,1,2.8c-0.5,1.4-1.4,2.7-2.5,3.7c-1.1,1-2.5,1.8-3.8,2.2c-1.3,0.5-2.7,0.7-4,0.7
			C409,370.4,407.7,370.2,406.4,369.6z"/>
	</g>
	<g>
		<ellipse class="st12" cx="317.1" cy="291.3" rx="26" ry="16.6"/>
	</g>
	<g>
		<ellipse class="st12" cx="185.5" cy="293.6" rx="26" ry="16.6"/>
	</g>
</g>
<g id="oci">
	<g>
		<g>

				<ellipse transform="matrix(7.753988e-02 -0.997 0.997 7.753988e-02 -72.3416 438.2736)" class="st2" cx="200.7" cy="258.2" rx="22.1" ry="16"/>
		</g>
		<g>

				<ellipse transform="matrix(7.753996e-02 -0.997 0.997 7.753996e-02 -65.185 439.6969)" class="st3" cx="205" cy="255.1" rx="7.4" ry="4.8"/>
		</g>
	</g>
	<g>
		<g>

				<ellipse transform="matrix(0.997 -7.753988e-02 7.753988e-02 0.997 -19.1141 24.1884)" class="st2" cx="301.9" cy="258.2" rx="16" ry="22.1"/>
		</g>
		<g>

				<ellipse transform="matrix(0.997 -7.753996e-02 7.753996e-02 0.997 -18.8825 23.8418)" class="st3" cx="297.6" cy="255.1" rx="4.8" ry="7.4"/>
		</g>
	</g>
</g>
<g id="kure">
	<g>
		<path class="st13" d="M457.3,440c1.5,10.1-11.7,43.3-54.5,45c-29,1.2-52.5-8.9-52.5-38.2c0-29.3,23.5-53.1,52.5-53.1
			c18.1,0,32.7,9.7,41.6,30.1C448.8,433.9,456.1,431.5,457.3,440z"/>
		<path class="st2" d="M398.4,485.5c-16.9,0-30.1-4.1-38.3-12c-6.8-6.5-10.2-15.5-10.2-26.7c0-29.5,23.7-53.5,52.9-53.5
			c18.8,0,33.3,10.5,41.9,30.4c2.1,4.9,4.9,6.8,7.4,8.5c2.6,1.8,4.9,3.4,5.6,7.8l0,0c0.8,5.5-2.4,15.9-10,25.2
			c-7.2,8.7-20.9,19.3-44.8,20.3C401.3,485.4,399.8,485.5,398.4,485.5z M402.8,394c-28.7,0-52.1,23.7-52.1,52.8
			c0,11,3.3,19.8,9.9,26.1c8.8,8.4,23.3,12.5,42.2,11.7c23.7-1,37.1-11.4,44.3-20c7.4-9,10.6-19.3,9.9-24.6
			c-0.6-4.1-2.7-5.5-5.3-7.3c-2.6-1.7-5.5-3.7-7.7-8.8C435.5,404.4,421.3,394,402.8,394z"/>
	</g>
	<g class="st14">
		<g>
			<path class="st3" d="M457,445.7c-1.9-6.6-8.5-5.2-12.6-14.6c-8.9-20.5-23.5-30.1-41.6-30.1c-27.8,0-50.5,21.8-52.4,49.5
				c-0.1-1.2-0.1-2.4-0.1-3.7c0-29.3,23.5-53.1,52.5-53.1c18.1,0,32.7,9.7,41.6,30.1c4.4,10.1,11.7,7.7,12.9,16.2
				C457.5,441.4,457.4,443.4,457,445.7z"/>
		</g>
	</g>
	<g class="st1">
		<path class="st2" d="M402.8,485c-29,1.2-52.5-8.9-52.5-38.2c0-2.1,0.1-4.2,0.4-6.3c3.1,24.7,25.3,33.2,52.1,32.1
			c13.6-0.6,24.3-4.3,32.4-9.5c-7.8-1.4-11-15.6-8.5-22.1l11.4,0.6c4.4,0.8,6.8-0.3,7.5,2.2c0.5,1.8,0,7.6-1.8,12.4
			c6.6-6.5,10.5-13.8,12.3-19.8c0.5,0.9,0.9,2.1,1.1,3.5C458.8,450.1,445.6,483.3,402.8,485z"/>
	</g>
	<g class="st1">
		<path class="st2" d="M395.7,451.9c0,3.9-5.4,7-12,7s-12-3.1-12-7s5.4-11.4,12-11.4S395.7,448.1,395.7,451.9z"/>
	</g>
	<g>
		<g>
			<path class="st8" d="M392.8,448.4c0,2.9-4.1,5.3-9.1,5.3c-5,0-9.1-2.4-9.1-5.3c0-2.9,4.1-8.6,9.1-8.6
				C388.8,439.8,392.8,445.5,392.8,448.4z"/>
		</g>
		<g>
			<path class="st2" d="M383.8,454.1c-5.2,0-9.4-2.5-9.4-5.7c0-3,4.1-9,9.4-9c5.4,0,9.4,6,9.4,9C393.2,451.6,389,454.1,383.8,454.1z
				 M383.8,440.2c-4.8,0-8.7,5.5-8.7,8.3c0,2.7,3.9,4.9,8.7,4.9c4.8,0,8.7-2.2,8.7-4.9C392.5,445.6,388.5,440.2,383.8,440.2z"/>
		</g>
	</g>
	<g class="st1">
		<path class="st2" d="M392.8,448.4c0,2.9-4.1,5.3-9.1,5.3c-5,0-9.1-2.4-9.1-5.3c0-0.8,0.3-1.7,0.8-2.7c1.4,1.5,4.6,2.5,8.3,2.5
			c3.7,0,6.9-1,8.3-2.5C392.6,446.7,392.8,447.7,392.8,448.4z"/>
	</g>
	<g>
		<path class="st2" d="M383.8,456c-6.3,0-11.3-3.3-11.3-7.6c0-4.3,5.1-10.9,11.3-10.9s11.3,6.6,11.3,10.9
			C395.1,452.7,390.1,456,383.8,456z M383.8,442c-3.7,0-6.8,4.6-6.8,6.4c0,1.2,2.7,3.1,6.8,3.1c4.1,0,6.8-1.8,6.8-3.1
			C390.6,446.7,387.5,442,383.8,442z"/>
	</g>
	<g>
		<path class="st13" d="M428.2,435.9c-2.4,6.1,1.2,20.3,9.4,18.9c5.7-0.9,7.6-13.8,6.8-16.5c-0.6-2.2-2.7-1.2-6.4-1.9"/>
		<path class="st2" d="M436.5,455.3c-2.1,0-4.1-1-5.7-3c-3.6-4.5-4.6-12.4-3-16.5c0.1-0.2,0.3-0.3,0.5-0.2c0.2,0.1,0.3,0.3,0.2,0.5
			c-1.5,3.8-0.6,11.6,2.9,15.8c1.2,1.5,3.2,3.1,6.1,2.6c1.3-0.2,2.5-1.2,3.6-2.8c2.7-4.2,3.4-11.4,2.9-13.2c-0.3-1.1-1-1.2-3-1.3
			c-0.9,0-1.9-0.1-3.2-0.3c-0.2,0-0.3-0.2-0.3-0.4c0-0.2,0.2-0.3,0.4-0.3c1.2,0.2,2.2,0.3,3.1,0.3c1.8,0.1,3.2,0.1,3.7,1.9
			c0.6,2.1-0.3,9.5-3,13.8c-1.2,1.9-2.6,2.9-4.1,3.2C437.2,455.3,436.8,455.3,436.5,455.3z"/>
	</g>
	<g class="st1">
		<path class="st2" d="M437.5,454.8c-7.8,1.3-11.4-11.5-9.7-18c1.1,5.7,4.4,11.1,9.7,10.3c3.4-0.6,5.4-5.3,6.4-9.7
			c0.2,0.2,0.4,0.5,0.5,0.9C445.1,441.1,443.2,453.9,437.5,454.8z"/>
	</g>
	<g>
		<path class="st2" d="M428.9,436.2c-0.3,1.9-0.1,3.9,0.2,5.8c0.4,1.9,0.9,3.8,1.8,5.5c0.8,1.7,1.8,3.2,3,4.2
			c0.6,0.5,1.2,0.8,1.9,0.9c0.3,0.1,0.7,0.1,1,0.1c0.2,0,0.4,0,0.5-0.1c0.1,0,0.2-0.1,0.4-0.1c1-0.3,2.1-1.8,2.9-3.5
			c0.8-1.7,1.4-3.6,1.8-5.5c0.2-1,0.4-1.9,0.5-2.9c0.1-0.5,0.1-1,0.1-1.4c0-0.2,0-0.4,0-0.5c0-0.1,0-0.2,0-0.3c0,0,0-0.1-0.1-0.1
			c-0.1-0.1-0.2-0.1-0.4-0.2c-0.4-0.1-0.9-0.2-1.4-0.3c-1.1-0.1-2.2-0.3-3.2-0.7c-0.4-0.1-0.6-0.6-0.5-1c0.1-0.3,0.4-0.5,0.7-0.5
			l0,0c1,0,2,0,3.1-0.1c0.5,0,1.1-0.1,1.7,0c0.3,0,0.7,0.1,1.1,0.3c0.4,0.2,0.9,0.5,1.2,0.9c0.3,0.4,0.5,0.8,0.6,1.1
			c0.1,0.4,0.2,0.7,0.2,1.1c0.1,0.6,0.1,1.2,0.1,1.8c0,1.2,0,2.3-0.2,3.4c-0.3,2.2-0.7,4.4-1.6,6.6c-0.5,1.1-1,2.2-1.8,3.2
			c-0.8,1-1.8,2.1-3.3,2.7c-0.4,0.2-0.8,0.3-1.2,0.4c-0.4,0.1-0.7,0.1-1.1,0.1c-0.7,0.1-1.4,0-2.2-0.1c-1.4-0.3-2.8-1-3.8-1.8
			c-2.1-1.7-3.2-4-4-6.2c-0.7-2.2-1.1-4.5-1.1-6.8c0-2.3,0.3-4.6,1.5-6.6c0.2-0.4,0.7-0.5,1-0.3
			C428.8,435.5,428.9,435.9,428.9,436.2L428.9,436.2z"/>
	</g>
	<g>
		<path class="st2" d="M398.4,487.5c-17.4,0-31.1-4.3-39.7-12.6c-7.2-6.9-10.8-16.3-10.8-28.1c0-30.6,24.6-55.5,54.9-55.5
			c19.7,0,34.8,10.9,43.8,31.6c1.9,4.3,4.3,6,6.7,7.6c2.7,1.8,5.7,3.9,6.4,9.2v0c0.9,6-2.5,17.1-10.5,26.7c-7.5,9-21.6,20-46.3,21
			C401.4,487.5,399.9,487.5,398.4,487.5z M402.8,396c-27.6,0-50.1,22.8-50.1,50.7c0,10.4,3.1,18.7,9.3,24.7
			c8.4,8,22.4,11.9,40.7,11.2c22.9-0.9,35.9-11,42.8-19.3c7.9-9.5,10-19.2,9.4-23c-0.5-3.3-1.9-4.3-4.4-5.9c-2.6-1.8-5.9-4-8.4-9.6
			C433.9,405.7,420.6,396,402.8,396z"/>
	</g>
	<g>
		<path class="st2" d="M369.8,439.7c-0.3-1.9-0.9-4-1.8-5.3c-0.5-0.7-1-1.1-1.6-1.3c-0.6-0.3-1.3-0.4-2.1-0.3
			c-0.4,0-0.7,0.1-1.1,0.2c-0.3,0.1-0.7,0.2-1,0.4c-0.7,0.3-1.3,0.9-1.8,1.6c-1.1,1.4-2,3.3-2.8,5.3l0,0.1c-0.2,0.6-0.9,0.8-1.4,0.6
			c-0.4-0.2-0.7-0.6-0.7-1c-0.1-1.3,0.1-2.4,0.3-3.6c0.3-1.2,0.7-2.4,1.4-3.5c0.6-1.2,1.6-2.2,2.8-3.1c1.2-0.8,2.8-1.3,4.2-1.4
			c1.4-0.1,2.9,0.1,4.3,0.9c1.4,0.7,2.5,2,3.1,3.2c0.7,1.3,0.9,2.6,1,3.8c0.1,1.3,0,2.5-0.3,3.7c-0.2,0.7-0.8,1.1-1.5,1
			c-0.5-0.1-0.9-0.5-1-1L369.8,439.7z"/>
	</g>
	<g>
		<path class="st2" d="M398.5,439.9c-0.3-1.3-0.4-2.4-0.3-3.7c0.1-1.3,0.4-2.6,1-3.8c0.6-1.3,1.7-2.5,3.1-3.2c1.4-0.8,3-0.9,4.3-0.9
			c1.4,0,3,0.5,4.2,1.4c1.2,0.9,2.2,1.9,2.8,3.1c0.7,1.1,1.1,2.3,1.4,3.5c0.3,1.2,0.4,2.4,0.3,3.6c0,0.6-0.6,1.1-1.2,1.1
			c-0.4,0-0.8-0.3-1-0.7l0-0.1c-0.8-1.9-1.7-3.8-2.8-5.3c-0.6-0.7-1.2-1.3-1.8-1.6c-0.3-0.2-0.6-0.3-1-0.4c-0.3-0.1-0.7-0.1-1.1-0.2
			c-0.8,0-1.6,0.1-2.1,0.3c-0.6,0.2-1.1,0.7-1.6,1.3c-0.9,1.3-1.5,3.4-1.8,5.3l0,0.1c-0.1,0.7-0.8,1.2-1.5,1.1
			C399.1,440.8,398.7,440.4,398.5,439.9z"/>
	</g>
	<g>
		<path class="st13" d="M409.8,398.8l2.2,0.6l-4.9,8.4l-20.9-1.3l-2.1-4.7c-4.9-10.7,5.2-37.5,18-29.3c2.5,1.6,3.9,4.9,2,9
			c-2.5,5.2-9.4,10.3-7.8,15.1c0,0,0,0,0,0c0.2-0.4,5.3-11.6,13.4-12.1c5.8-0.4,7.8,2.7,8,4C419.1,396.7,412.7,395.9,409.8,398.8z"
			/>
	</g>
	<g class="st14">
		<g>
			<path class="st3" d="M383.7,387.7c2.5-10.5,9.8-20.6,18.3-15.2c2.5,1.6,3.9,4.9,2,9c-0.2,0.3-0.3,0.7-0.5,1
				c0-2.3-1.2-4.2-2.9-5.3C393.4,372.7,387,379.2,383.7,387.7z"/>
		</g>
	</g>
	<g class="st14">
		<g>
			<path class="st3" d="M416.4,394.8c0-0.5-0.1-1-0.2-1.5c-0.2-1.3-2.3-4.4-8-4c-8.1,0.5-10.2,8.1-10.4,8.5c0,0-1.7-1.4-1.6-1
				c0,0,0,0,0,0c0.2-0.4,5.3-11.6,13.4-12.1c5.8-0.4,7.8,2.7,8,4C418.3,391.7,417.6,393.6,416.4,394.8z"/>
		</g>
	</g>
	<g>
		<path class="st2" d="M381.9,402.9c-0.7-1.7-1.1-3.3-1.2-4.9c-0.2-1.6-0.2-3.2-0.1-4.8c0.2-3.1,0.9-6.2,1.9-9.1
			c0.5-1.5,1.1-2.9,1.8-4.3c0.7-1.4,1.5-2.8,2.4-4.1c0.9-1.3,2-2.5,3.2-3.6c1.3-1.1,2.8-2,4.5-2.6c1.7-0.5,3.7-0.5,5.4,0
			c0.4,0.1,0.8,0.3,1.3,0.4l0.6,0.3l0.6,0.3c0.4,0.2,0.7,0.4,1.1,0.7c0.4,0.3,0.7,0.6,1.1,0.9c1.3,1.3,2.2,3.2,2.3,5.1
			c0.1,1.9-0.4,3.6-1.1,5.2c-0.7,1.5-1.7,2.8-2.6,4l-2.7,3.4c-0.9,1.1-1.7,2.2-2.2,3.4c-0.5,1.1-0.7,2.2-0.5,3.1l0.1,0.2
			c0.2,0.8-0.2,1.7-1.1,2c-0.8,0.2-1.7-0.2-2-1.1c0,0,0-0.1,0-0.1c-0.1-0.5-0.3-1-0.3-1.4c0-0.5-0.1-1,0-1.4l0.1-0.7l0.2-0.6
			c0.1-0.4,0.3-0.8,0.5-1.2c0.7-1.5,1.6-2.8,2.5-4c1.8-2.4,3.7-4.6,4.8-6.9c0.5-1.1,0.8-2.3,0.7-3.3c-0.1-1-0.6-2-1.3-2.7
			c-0.4-0.4-0.8-0.6-1.4-0.9l-0.4-0.2l-0.4-0.2c-0.3-0.1-0.5-0.2-0.8-0.3c-1.1-0.3-2.2-0.2-3.2,0.1c-1.1,0.3-2.1,1-3,1.8
			c-0.9,0.8-1.8,1.9-2.5,3c-1.5,2.2-2.6,4.7-3.4,7.3c-0.8,2.6-1.3,5.3-1.5,8c-0.1,1.3,0,2.7,0.1,3.9c0.2,1.3,0.5,2.5,0.9,3.5
			c0.6,1.2,0.1,2.6-1.1,3.2C383.9,404.7,382.5,404.2,381.9,402.9C381.9,402.9,381.9,402.9,381.9,402.9L381.9,402.9z"/>
	</g>
	<g>
		<path class="st2" d="M395,396.1c0.8-1.8,1.8-3.5,2.9-5.1c1.1-1.6,2.4-3.2,3.9-4.5c1.5-1.4,3.3-2.6,5.4-3.2
			c0.5-0.2,1.1-0.3,1.6-0.4c0.3,0,0.6-0.1,0.8-0.1l0.8,0c1.1,0,2.1,0,3.2,0.3c2.2,0.5,4.5,1.7,5.8,4.2c0.1,0.2,0.1,0.4,0.2,0.5
			c0.1,0.2,0.1,0.5,0.1,0.6l0.1,0.8l0.1,0.8c0,0.3,0,0.6,0,0.9l0,0.9c0,0.3-0.1,0.6-0.1,0.9c-0.1,0.3-0.1,0.6-0.2,0.9
			c-0.1,0.3-0.2,0.6-0.4,0.9c-0.6,1.2-1.5,2.3-2.5,3c-1,0.7-1.9,1.2-2.8,1.6c-0.8,0.4-1.6,0.8-2.1,1.2c-0.5,0.4-0.7,0.7-0.9,1.1
			l-0.1,0.1c-0.5,1.2-1.9,1.8-3.2,1.2c-1.2-0.5-1.8-1.9-1.2-3.1c0.6-1.4,1.6-2.5,2.7-3.1c1-0.7,2-1.1,2.9-1.5
			c0.9-0.4,1.6-0.7,2.2-1.1c0.6-0.4,0.9-0.7,1.2-1.2c0-0.1,0.1-0.3,0.2-0.4c0.1-0.1,0.1-0.3,0.1-0.4c0-0.2,0.1-0.3,0.1-0.5l0-0.5
			c0-0.2,0-0.4,0-0.5l-0.1-0.6l-0.1-0.6c0-0.1,0-0.1,0-0.1c0,0,0-0.1,0-0.1c-0.1-0.4-0.6-0.9-1.1-1.3c-0.5-0.4-1.2-0.7-1.9-0.9
			c-0.7-0.2-1.5-0.3-2.3-0.3l-0.6,0l-0.6,0.1c-0.4,0-0.8,0.1-1.1,0.2c-1.5,0.4-2.9,1.2-4.3,2.3c-2.6,2.2-4.8,5.2-6.4,8.3l0,0.1
			c-0.3,0.7-1.2,0.9-1.8,0.6C395,397.5,394.7,396.7,395,396.1z"/>
	</g>
</g>
</svg>
