<svg baseProfile="tiny" xmlns="http://www.w3.org/2000/svg" viewBox="0 0 248.7 63.6" overflow="visible"><g fill="#358D9E"><path d="M113.6 46h-.8c.2-1 .3-2 .3-2.8 0-1.1-.2-2-.6-2.7-.8-1.6-2.2-2.3-4.2-2.3-1.9 0-3.7.8-5.4 2.5s-3.1 3.9-4.1 6.5c-1 2.7-1.6 5.4-1.6 8.3 0 2.4.4 4.1 1.3 5.3.8 1.2 2 1.8 3.6 1.8.9 0 1.9-.2 2.8-.6 1-.4 1.8-1 2.5-1.7.6-.7 1.2-1.4 1.6-2.2s1-2 1.6-3.4h.8c-1.1 4.1-1.8 7-2.1 8.6h-.8c.1-.5.1-.9.1-1.2 0-.6-.2-.9-.5-.9-.2 0-.4.1-.7.3-1.1.7-2.2 1.3-3.3 1.7-1.1.4-2.3.6-3.7.6-3.2 0-5.6-.8-7.2-2.3-1.6-1.5-2.4-3.7-2.4-6.6 0-2.8.7-5.6 2.2-8.3 1.5-2.7 3.5-4.9 6.2-6.6s5.5-2.6 8.7-2.6c.9 0 1.7.1 2.4.3.7.2 1.2.5 1.7.8s.9.7 1.3 1.2c.2.2.3.3.5.3.4 0 .9-.7 1.4-2.1h.8c-.9 2-1.7 4.7-2.4 8.1zM133.8 57.2l-1 2.7c-.4 1.3-1.1 2.3-1.9 2.8s-1.8.9-2.9.9c-.6 0-1.2-.1-1.6-.3-.5-.2-.8-.5-1-.9-.2-.4-.3-.9-.3-1.5s.1-1.4.4-2.3l.9-3.6c-.9 2.2-1.8 4-2.7 5.3-.9 1.3-1.7 2.1-2.6 2.6s-1.9.8-3 .8-1.9-.3-2.4-.8-.8-1.2-.8-2.2c0-.7.2-1.5.5-2.5l3.5-10.5c.1-.4.2-.8.2-1 0-.5-.2-.8-.7-.8-.4 0-.8.2-1.1.6s-.7 1.1-1.1 2.2l-.6 1.7h-.7l.9-2.6c.8-2.4 2.4-3.7 4.8-3.7 2.2 0 3.3 1 3.3 3 0 .7-.2 1.6-.5 2.7l-3.2 9.7c-.2.6-.3 1.1-.3 1.5 0 .6.2.8.7.8.7 0 1.5-.7 2.5-2.1 1-1.4 2-3.2 2.9-5.5 1-2.3 1.9-4.8 2.6-7.4l.6-2.2c2.1 0 3.8-.2 5.2-.5L129.9 60c-.2.5-.2.9-.2 1.2 0 .4.2.6.6.6.4 0 .8-.2 1.2-.6.4-.4.7-1.1 1.1-2.2l.7-1.8h.5zM145.6 51c.6-.7 1.2-1.8 1.7-3.2s1.1-2.4 1.7-2.8c.7-.5 1.4-.8 2.2-.8 1.1 0 1.9.3 2.5.9s.9 1.4.9 2.3c0 .6-.1 1.1-.4 1.6-.3.5-.6.9-1.1 1.1-.5.3-1 .4-1.6.4-.7 0-1.3-.2-1.7-.6-.4-.4-.6-.9-.6-1.5 0-.7.2-1.3.7-1.9s1-1 1.7-1.4c0-.1-.1-.2-.2-.2s-.2-.1-.3-.1c-.5 0-1 .2-1.5.5-.5.4-1 1.3-1.5 2.6s-1 2.4-1.6 3.1c-.5.8-1.3 1.3-2.4 1.6 1.8 0 3.2.4 4.3 1 1.1.6 1.7 1.6 1.7 3 0 .4 0 .7-.1 1.1l-.5 2.6c-.1.3-.1.6-.1.8 0 .3.1.4.2.5s.3.2.5.2c.8 0 1.5-.9 2.2-2.8l.6-1.7h.7l-.9 2.6c-.9 2.5-2.6 3.7-5.2 3.7-1 0-1.7-.2-2.2-.7-.5-.5-.8-1.2-.8-2.1 0-.4 0-.9.1-1.3l.6-2.8c.1-.6.2-1 .2-1.4 0-.7-.2-1.2-.6-1.6s-1.1-.6-2.1-.8l-3 10.1h-5l7.1-23.9c.1-.4.2-.8.2-1 0-.5-.2-.8-.6-1-.4-.2-1-.3-1.9-.3l.2-.8c3.1 0 5.9-.5 8.3-1.5l-5.2 17.7c1.3 0 2.3-.4 2.8-1.2zM165.7 46.7c.6-.9 1.2-1.6 1.9-1.9s1.4-.6 2.3-.6c.9 0 1.6.3 2.1.8s.8 1.2.8 2.1c0 .7-.1 1.3-.4 1.9s-.7 1-1.2 1.4c-.5.3-1.1.5-1.7.5-.7 0-1.2-.2-1.6-.5-.4-.4-.6-.9-.6-1.6 0-.6.1-1.1.4-1.6.3-.5.6-.9 1.1-1.3.5-.3 1-.6 1.5-.7-.3-.1-.4-.1-.5-.1-1.3 0-2.5.9-3.8 2.7-1.3 1.8-2.6 5-3.9 9.7l-1.5 5.8h-5l4.4-15.5c.1-.5.2-.8.2-1.1 0-.5-.2-.7-.6-.7-.4 0-.8.2-1.2.6-.4.4-.7 1.2-1.1 2.2l-.7 1.8h-.7l1-2.7c.9-2.4 2.5-3.7 4.9-3.7 1.8 0 2.7 1 2.7 2.9 0 .7-.1 1.4-.3 2.1l-.3 1.2c.6-1.6 1.2-2.8 1.8-3.7zM189.8 57.3l-.9 2.6c-.5 1.3-1.1 2.3-2 2.8-.8.6-1.8.8-2.7.8-1.2 0-2.1-.4-2.6-1.1-.3-.5-.5-1.1-.5-1.8 0-.6.1-1.3.3-2.1-1.5 3.4-3.5 5.1-6 5.1-1.3 0-2.3-.4-3-1.2-.7-.8-1-1.9-1-3.2 0-2.1.6-4.4 1.7-6.7 1.1-2.4 2.6-4.4 4.3-6 1.7-1.6 3.4-2.4 5.1-2.4.6 0 1.2.2 1.6.6.4.4.6 1 .7 1.7l.5-1.8c1.9 0 3.6-.2 5.2-.5L185.8 60c-.1.4-.2.7-.2 1 0 .5.2.8.7.8.8 0 1.6-.9 2.2-2.8l.6-1.7h.7zm-5.5-10c0-.6-.1-1-.3-1.3-.2-.3-.5-.5-.9-.5-.8 0-1.7.7-2.8 2.2-1 1.5-1.9 3.3-2.6 5.5-.7 2.2-1.1 4.3-1.1 6.4 0 .8.1 1.4.2 1.7.2.3.4.5.8.5.5 0 1.1-.4 1.7-1.1.6-.7 1.3-1.8 1.9-3.2.6-1.4 1.2-3 1.7-4.9l-.2.9 1.6-5.6v-.6zm.6-9.4c.7-1.2 1.2-2 1.5-2.5s.7-1 1.2-1.4c.6-.6 1.2-.9 1.9-.9.5 0 .9.2 1.3.5.3.3.5.7.5 1.1 0 .6-.3 1.3-1 2-.3.3-.7.7-1.1 1-.4.3-1.3.9-2.5 1.7-1.3.8-2.4 1.6-3.6 2.5l-.4-.3c.7-1.4 1.5-2.5 2.2-3.7zM202 46.7c.6-.9 1.2-1.6 1.9-1.9s1.4-.6 2.3-.6c.9 0 1.6.3 2.1.8s.8 1.2.8 2.1c0 .7-.1 1.3-.4 1.9s-.7 1-1.2 1.4c-.5.3-1.1.5-1.7.5-.7 0-1.2-.2-1.6-.5-.4-.4-.6-.9-.6-1.6 0-.6.1-1.1.4-1.6.3-.5.6-.9 1.1-1.3.5-.3 1-.6 1.5-.7-.3-.1-.4-.1-.5-.1-1.3 0-2.5.9-3.8 2.7-1.3 1.8-2.6 5-3.9 9.7l-1.5 5.8h-5l4.4-15.5c.1-.5.2-.8.2-1.1 0-.5-.2-.7-.6-.7-.4 0-.8.2-1.2.6-.4.4-.7 1.2-1.1 2.2l-.7 1.8h-.7l1-2.7c.9-2.4 2.5-3.7 4.9-3.7 1.8 0 2.7 1 2.7 2.9 0 .7-.1 1.4-.3 2.1l-.3 1.2c.6-1.6 1.2-2.8 1.8-3.7zM227.2 59.9c-.9 2.5-2.5 3.7-4.8 3.7-1.3 0-2.3-.4-2.9-1.2-.3-.5-.5-1-.5-1.7s.2-1.7.6-2.8l3.2-9.7c.2-.7.3-1.2.3-1.5 0-.5-.2-.8-.7-.8-.7 0-1.6.7-2.6 2.2s-2 3.3-3.1 5.7-1.9 4.9-2.7 7.5l-.5 1.9h-5l4.3-15.5c.1-.5.2-.9.2-1.1 0-.4-.2-.6-.6-.6-.4 0-.8.2-1.2.6-.3.4-.7 1.2-1.1 2.2l-.7 1.8h-.4l1-2.7c.5-1.3 1.1-2.2 1.8-2.8s1.7-.9 2.8-.9c2 0 3.1 1 3.1 2.9 0 .6-.1 1.3-.3 2.1l-1.1 4.3c1-2.4 1.9-4.3 2.8-5.7.9-1.4 1.8-2.3 2.7-2.9.9-.5 1.9-.8 3.1-.8 2.2 0 3.2 1 3.2 2.9 0 .7-.2 1.6-.5 2.5L224.1 60c-.1.4-.2.7-.2 1 0 .5.2.7.7.7.4 0 .8-.2 1.1-.6.4-.4.7-1.1 1.1-2.2l.6-1.7h.7l-.9 2.7zM248.1 57.3l-.9 2.6c-.5 1.3-1.1 2.3-2 2.8-.8.6-1.8.8-2.7.8-1.2 0-2.1-.4-2.6-1.1-.3-.5-.5-1.1-.5-1.8 0-.6.1-1.3.3-2.1-1.5 3.4-3.5 5.1-6 5.1-1.3 0-2.3-.4-3-1.2-.7-.8-1-1.9-1-3.2 0-2.1.6-4.4 1.7-6.7 1.1-2.4 2.6-4.4 4.3-6 1.7-1.6 3.4-2.4 5.1-2.4.6 0 1.2.2 1.6.6.4.4.6 1 .7 1.7l.5-1.8c1.9 0 3.6-.2 5.2-.5l-4.8 16c-.1.4-.2.7-.2 1 0 .5.2.8.7.8.8 0 1.6-.9 2.2-2.8l.6-1.7h.8zm-5.4-10c0-.6-.1-1-.3-1.3-.2-.3-.5-.5-.9-.5-.8 0-1.7.7-2.8 2.2-1 1.5-1.9 3.3-2.6 5.5-.7 2.2-1.1 4.3-1.1 6.4 0 .8.1 1.4.2 1.7.2.3.4.5.8.5.5 0 1.1-.4 1.7-1.1.6-.7 1.3-1.8 1.9-3.2.6-1.4 1.2-3 1.7-4.9l-.2.9 1.6-5.6v-.6z"/></g><g fill="#E6828B"><path d="M2.6 62.132l-2.4-28.6s-4.2-6.9 31.2-7.3c0 0-33.2 3.4-25.4 7.9 13.2 7.5 59.2 10.3 79.1 3.5 0 0-16.9 15.5-80.5 2.6l-2 21.9z"/><path d="M45 21.132c-3.9-.2-7.2 2.7-7.4 6.5-.2 3.8 2.7 7.1 6.5 7.3 3.8.2 7.1-2.7 7.3-6.5.2-3.5-2.2-6.5-5.6-7.2 1.4-7.5 9.5-12.9 14-12.6 4.7.3 5-1.3 5-1.3-16.2-2.5-19.3 10.7-19.8 13.8zm1.3 1.7c2.1.1 3.8 1.9 3.7 4-.1 2.1-1.9 3.8-4 3.7-2.1-.1-3.8-1.8-3.7-3.9v-.1c.1-2.1 1.8-3.8 4-3.7z"/></g><g fill="#E6828B"><path d="M99.3 11.8h-.7c.1-.7.2-1.3.2-2 0-1.4-.4-2.6-1.3-3.4-.9-.8-2.1-1.3-3.8-1.3-1.3 0-2.3.3-3.1 1s-1.2 1.6-1.2 3c0 1.6.9 3.4 2.8 5.4 1.8 2 3.2 3.5 4.2 4.7 1 1.2 1.4 2.6 1.4 4.3 0 1.6-.5 2.9-1.5 4s-2.3 1.9-3.8 2.4-3 .8-4.5.8c-1.1 0-2-.1-2.7-.2-.7-.1-1.3-.3-1.8-.5s-1-.5-1.6-.9c-.5-.3-.9-.5-1.2-.5-.2 0-.4.1-.5.2-.2.1-.3.3-.4.6s-.3.7-.5 1.2h-.7c.8-1.8 1.6-4.7 2.4-8.6h.7c-.3 1-.4 1.9-.3 2.8.1 1.7.6 3 1.6 3.9 1 .9 2.4 1.3 4.2 1.3 3.1 0 4.6-1.3 4.6-3.8 0-2-.8-4-2.5-5.9-1.7-1.9-3-3.4-3.8-4.5-.8-1.1-1.3-2.5-1.3-4.2 0-1.5.4-2.8 1.3-3.9s2-1.9 3.3-2.4c1.4-.5 2.7-.8 4.1-.8 1.2 0 2.3.1 3.2.4.9.3 1.7.7 2.5 1.1.6.4 1 .6 1.2.6.2 0 .4-.1.6-.4.2-.3.4-.8.6-1.4h.7c-1.2 2-1.9 4.4-2.4 7zM110.5 18c.6-.7 1.2-1.8 1.7-3.2.6-1.4 1.1-2.4 1.7-2.8.7-.5 1.4-.8 2.2-.8 1.1 0 1.9.3 2.5.9.6.6.9 1.4.9 2.3 0 .6-.1 1.1-.4 1.6-.3.5-.6.9-1.1 1.1-.5.3-1 .4-1.6.4-.7 0-1.3-.2-1.7-.6-.4-.4-.6-.9-.6-1.5 0-.7.2-1.3.7-1.9.4-.6 1-1 1.7-1.4 0-.1-.1-.2-.2-.2-.1-.1-.2-.1-.3-.1-.5 0-1 .2-1.5.5-.5.4-1 1.3-1.5 2.6s-1 2.4-1.6 3.1c-.5.8-1.3 1.3-2.4 1.6 1.8 0 3.2.4 4.3 1 1.1.6 1.7 1.6 1.7 3 0 .4 0 .7-.1 1.1l-.5 2.6c-.1.3-.1.6-.1.8 0 .3.1.4.2.5.1.1.3.2.5.2.8 0 1.5-.9 2.2-2.8l.6-1.7h.7l-.9 2.6c-.9 2.5-2.6 3.7-5.2 3.7-1 0-1.7-.2-2.2-.7s-.8-1.2-.8-2.1c0-.4 0-.9.1-1.3l.6-2.8c.1-.6.2-1 .2-1.4 0-.7-.2-1.2-.6-1.6-.4-.4-1.1-.6-2.1-.8l-3 10.1h-5l7.1-23.9c.1-.4.2-.8.2-1 0-.5-.2-.8-.6-1s-1-.3-1.9-.3l.2-.8c3.1 0 5.9-.5 8.3-1.5l-5.2 17.7c1.3 0 2.2-.4 2.8-1.2zM128.4 18.9c-1 2.7-1.6 5-1.7 7.1 0 1 .1 1.8.3 2.3.3.5.7.7 1.3.7 1.4 0 2.7-.5 3.9-1.6s2.1-2.5 2.9-4.1c.8-1.6 1.3-3.3 1.6-4.9-1-.5-1.9-1.1-2.5-2-.7-.8-1-1.8-1-2.8 0-.8.2-1.4.6-1.8.4-.4 1-.6 1.7-.6.9 0 1.5.4 1.9 1.1.4.7.6 1.7.5 3-.1 2.4-.6 4.8-1.5 7.2-.9 2.4-2.2 4.3-3.9 5.9-1.7 1.6-3.8 2.3-6.2 2.3-1.8 0-3.1-.4-3.9-1.2-.8-.8-1.2-1.8-1.2-3 0-4 3.2-8.6 9.6-13.8-.6.1-1.1.2-1.5.5-.4.3-1.1.7-1.9 1.4-.8.7-1.5 1-2 1-.2 0-.4 0-.5-.1s-.4-.2-.7-.3c-.3-.2-.6-.2-.8-.2-.3 0-.6.1-.8.4-.2.3-.4.7-.6 1.3l-.3 1h-.7l.8-2.6c.7-2.5 1.8-3.8 3.4-3.8.4 0 .9.1 1.3.4.4.3.8.5 1.1.6s.7.2 1.2.2c1 0 1.8-.3 2.6-.8l.4-.7.8.4c-1.8 2.3-3.2 4.8-4.2 7.5zM150.7 28.2c-.8.7-1.8 1.3-2.8 1.8-1.1.4-2.2.7-3.4.7-1.1 0-2-.2-2.9-.6s-1.5-1-2-1.7c-.5-.8-.7-1.7-.7-2.8 0-2.1.6-4.3 1.7-6.6s2.7-4.1 4.7-5.6 4.1-2.2 6.5-2.2c1.1 0 2 .2 2.7.7.7.5 1 1.2 1 2.1 0 1.4-.6 2.6-1.7 3.8-1.1 1.1-2.5 2.1-4.2 2.9-1.7.8-3.4 1.5-5.2 1.9-.1.9-.2 1.7-.2 2.4 0 1.3.2 2.2.7 2.7.5.5 1.2.8 2.1.8.7 0 1.6-.2 2.5-.7.9-.5 1.8-1.2 2.7-2.2l.6.3c-.6.8-1.3 1.6-2.1 2.3zm-2.2-14.9c-.9 1-1.7 2.2-2.4 3.8-.7 1.6-1.3 3.2-1.6 4.8 1.7-.7 3-1.5 3.9-2.4 1-.9 1.7-1.8 2.3-3s.8-2.3.8-3.6c0-.4 0-.8-.1-.9-.1-.2-.2-.3-.4-.3-.8.1-1.6.6-2.5 1.6zm1.8-11.4c1 .4 2 .9 2.9 1.5 2-1.1 4.2-2 6.5-2.6l.2.5c-1.7.8-3.3 1.8-4.9 3-1.5 1.3-2.7 2.6-3.7 4h-.6c-.3-1.7-.8-3.1-1.5-4.2-.6-1.1-1.6-2-2.8-2.9l.1-.5c1.5.4 2.8.8 3.8 1.2zM160.4 28c0 .6.3.9.8.9.7 0 1.4-.9 2.1-2.8l.6-1.7h.7l-.9 2.6c-.5 1.3-1.1 2.3-2 2.8-.9.6-1.8.8-2.8.8-1.1 0-1.9-.3-2.4-.8-.5-.6-.8-1.3-.8-2.4 0-.7.1-1.6.4-2.5l5.6-18.7c.1-.4.2-.8.2-1 0-.5-.2-.8-.6-1-.4-.2-1-.3-1.9-.3l.3-.8c1.6 0 3.1-.1 4.4-.4 1.3-.2 2.6-.6 3.9-1.1L160.5 27c-.1.4-.1.7-.1 1zM184.6 24.3l-.9 2.6c-.5 1.3-1.1 2.3-2 2.8-.8.6-1.8.8-2.7.8-1.2 0-2.1-.4-2.6-1.1-.3-.5-.5-1.1-.5-1.8 0-.6.1-1.3.3-2.1-1.5 3.4-3.5 5.1-6 5.1-1.3 0-2.3-.4-3-1.2s-1-1.9-1-3.2c0-2.1.6-4.4 1.7-6.7 1.1-2.4 2.6-4.4 4.3-6 1.7-1.6 3.4-2.4 5.1-2.4.6 0 1.2.2 1.6.6.4.4.6 1 .7 1.7l.5-1.8c1.9 0 3.6-.2 5.2-.5L180.6 27c-.1.4-.2.7-.2 1 0 .5.2.8.7.8.8 0 1.6-.9 2.2-2.8l.6-1.7h.7zm-5.4-10c0-.6-.1-1-.3-1.3-.2-.3-.5-.5-.9-.5-.8 0-1.7.7-2.8 2.2-1 1.5-1.9 3.3-2.6 5.5-.7 2.2-1.1 4.3-1.1 6.4 0 .8.1 1.4.2 1.7s.4.5.8.5c.5 0 1.1-.4 1.7-1.1.6-.7 1.3-1.8 1.9-3.2.6-1.4 1.2-3 1.7-4.9l-.2.9 1.6-5.6v-.6zm.5-9.4c.7-1.2 1.2-2 1.5-2.5s.7-1 1.2-1.4c.6-.6 1.2-.9 1.9-.9.5 0 .9.2 1.3.5.3.3.5.7.5 1.1 0 .6-.3 1.3-1 2-.3.3-.7.7-1.1 1-.4.3-1.3.9-2.5 1.6s-2.4 1.6-3.6 2.5l-.4-.3c.7-1.3 1.5-2.4 2.2-3.6z"/></g></svg>